shantell_bounce--extrabold.ufo
<glyph name="quotedbl" format="2">
	<unicode hex="0022"/>
	<advance width="548"/>
	<outline>
		<contour>
			<point x="397" y="208.2731641629" type="curve" smooth="yes"/>
			<point x="435" y="208.2731641629"/>
			<point x="461" y="229.2731641629"/>
			<point x="475" y="268.2731641629" type="curve" smooth="yes"/>
			<point x="504" y="350.2731641629"/>
			<point x="513" y="449.2731641629"/>
			<point x="499" y="515.2731641629" type="curve" smooth="yes"/>
			<point x="491" y="550.2731641629"/>
			<point x="454" y="576.2731641629"/>
			<point x="414" y="576.2731641629" type="curve" smooth="yes"/>
			<point x="364" y="576.2731641629"/>
			<point x="329" y="530.2731641629"/>
			<point x="331" y="482.2731641629" type="curve" smooth="yes"/>
			<point x="333.0496245626" y="428.9829255354"/>
			<point x="323" y="366.2731641629"/>
			<point x="312" y="306.2731641629" type="curve" smooth="yes"/>
			<point x="302" y="250.2731641629"/>
			<point x="341" y="208.2731641629"/>
		</contour>
		<contour>
			<point x="130" y="208.2731641629" type="curve" smooth="yes"/>
			<point x="168" y="208.2731641629"/>
			<point x="194" y="229.2731641629"/>
			<point x="208" y="268.2731641629" type="curve" smooth="yes"/>
			<point x="237" y="350.2731641629"/>
			<point x="246" y="449.2731641629"/>
			<point x="232" y="515.2731641629" type="curve" smooth="yes"/>
			<point x="224" y="550.2731641629"/>
			<point x="187" y="576.2731641629"/>
			<point x="147" y="576.2731641629" type="curve" smooth="yes"/>
			<point x="97" y="576.2731641629"/>
			<point x="58" y="530.2731641629"/>
			<point x="64" y="482.2731641629" type="curve" smooth="yes"/>
			<point x="70" y="430.2731641629"/>
			<point x="61" y="366.2731641629"/>
			<point x="46" y="322.2731641629" type="curve" smooth="yes"/>
			<point x="31" y="277.2731641629"/>
			<point x="73" y="208.2731641629"/>
		</contour>
	</outline>
</glyph>
<glyph name="quotesingle" format="2">
	<unicode hex="0027"/>
	<advance width="281"/>
	<outline>
		<contour>
			<point x="130" y="256.0716474331" type="curve" smooth="yes"/>
			<point x="168" y="256.0716474331"/>
			<point x="194" y="277.0716474331"/>
			<point x="208" y="316.0716474331" type="curve" smooth="yes"/>
			<point x="237" y="398.0716474331"/>
			<point x="246" y="497.0716474331"/>
			<point x="232" y="563.0716474331" type="curve" smooth="yes"/>
			<point x="223" y="598.0716474331"/>
			<point x="187" y="624.0716474331"/>
			<point x="147" y="624.0716474331" type="curve" smooth="yes"/>
			<point x="97" y="624.0716474331"/>
			<point x="56" y="578.0716474331"/>
			<point x="64" y="530.0716474331" type="curve" smooth="yes"/>
			<point x="73" y="479.0716474331"/>
			<point x="61" y="416.0716474331"/>
			<point x="46" y="370.0716474331" type="curve" smooth="yes"/>
			<point x="32" y="324.0716474331"/>
			<point x="73" y="256.0716474331"/>
		</contour>
	</outline>
</glyph>
<glyph name="zero" format="2">
	<unicode hex="0030"/>
	<advance width="700"/>
	<outline>
		<contour>
			<point x="305" y="351.1416761376" type="curve" smooth="yes"/>
			<point x="223" y="295.1416761376"/>
			<point x="194" y="228.1416761376"/>
			<point x="194" y="134.1416761376" type="curve" smooth="yes"/>
			<point x="194" y="70.1416761376"/>
			<point x="234" y="24.1416761376"/>
			<point x="315" y="24.1416761376" type="curve" smooth="yes"/>
			<point x="406" y="24.1416761376"/>
			<point x="505" y="115.1416761376"/>
			<point x="505" y="281.1416761376" type="curve" smooth="yes"/>
			<point x="505" y="349.1416761376"/>
			<point x="479" y="403.1416761376"/>
			<point x="400" y="403.1416761376" type="curve" smooth="yes"/>
			<point x="320" y="403.1416761376"/>
			<point x="285" y="371.1416761376"/>
			<point x="247" y="339.1416761376" type="curve" smooth="yes"/>
			<point x="228" y="323.1416761376"/>
			<point x="208" y="310.1416761376"/>
			<point x="189" y="310.1416761376" type="curve" smooth="yes"/>
			<point x="122" y="310.1416761376"/>
			<point x="94" y="372.1416761376"/>
			<point x="94" y="412.1416761376" type="curve" smooth="yes"/>
			<point x="94" y="476.1416761376"/>
			<point x="202" y="575.1416761376"/>
			<point x="400" y="575.1416761376" type="curve" smooth="yes"/>
			<point x="594" y="575.1416761376"/>
			<point x="678" y="463.1416761376"/>
			<point x="678" y="281.1416761376" type="curve" smooth="yes"/>
			<point x="678" y="-7.8583238624"/>
			<point x="494" y="-146.8583238624"/>
			<point x="317" y="-146.8583238624" type="curve" smooth="yes"/>
			<point x="140" y="-146.8583238624"/>
			<point x="21" y="-61.8583238624"/>
			<point x="21" y="134.1416761376" type="curve" smooth="yes"/>
			<point x="21" y="366.1416761376"/>
			<point x="193" y="487.1416761376"/>
			<point x="266" y="487.1416761376" type="curve" smooth="yes"/>
			<point x="315" y="487.1416761376"/>
			<point x="334" y="467.1416761376"/>
			<point x="334" y="413.1416761376" type="curve" smooth="yes"/>
			<point x="334" y="392.1416761376"/>
			<point x="324" y="364.1416761376"/>
		</contour>
	</outline>
</glyph>
<glyph name="six" format="2">
	<unicode hex="0036"/>
	<advance width="700"/>
	<outline>
		<contour>
			<point x="465" y="447.5577892339" type="curve" smooth="yes"/>
			<point x="318.5493302526" y="343.8095643656"/>
			<point x="205" y="246.5577892339"/>
			<point x="205" y="142.5577892339" type="curve" smooth="yes"/>
			<point x="205" y="78.7603208795"/>
			<point x="269.9192546584" y="58.5577892339"/>
			<point x="361" y="58.5577892339" type="curve" smooth="yes"/>
			<point x="447.0970149254" y="58.5577892339"/>
			<point x="500" y="90.5577892339"/>
			<point x="500" y="129.5577892339" type="curve" smooth="yes"/>
			<point x="500" y="158.5577892339"/>
			<point x="473.3913043478" y="186.5577892339"/>
			<point x="398" y="186.5577892339" type="curve" smooth="yes"/>
			<point x="313.3971631206" y="186.5577892339"/>
			<point x="291.9787234043" y="165.5577892339"/>
			<point x="247" y="165.5577892339" type="curve" smooth="yes"/>
			<point x="205" y="165.5577892339"/>
			<point x="191" y="185.5577892339"/>
			<point x="191" y="211.5577892339" type="curve" smooth="yes"/>
			<point x="191" y="254.5184191552"/>
			<point x="286" y="335.5577892339"/>
			<point x="443" y="335.5577892339" type="curve" smooth="yes"/>
			<point x="585" y="335.5577892339"/>
			<point x="675" y="242.8694171409"/>
			<point x="675" y="123.5577892339" type="curve" smooth="yes"/>
			<point x="675" y="-14.4422107661"/>
			<point x="552.5339805825" y="-111.4422107661"/>
			<point x="357" y="-111.4422107661" type="curve" smooth="yes"/>
			<point x="130.1495601173" y="-111.4422107661"/>
			<point x="25" y="-10.4422107661"/>
			<point x="25" y="137.5577892339" type="curve" smooth="yes"/>
			<point x="25" y="282.5577892339"/>
			<point x="145.1410615844" y="431.382221164"/>
			<point x="341" y="574.5577892339" type="curve" smooth="yes"/>
			<point x="379.0628429786" y="602.3333773534"/>
			<point x="392.8405797101" y="608.5577892339"/>
			<point x="414" y="608.5577892339" type="curve" smooth="yes"/>
			<point x="464.7446808511" y="608.5577892339"/>
			<point x="504" y="559.062839739"/>
			<point x="504" y="510.5577892339" type="curve" smooth="yes"/>
			<point x="504" y="487.5577892339"/>
			<point x="500" y="471.5577892339"/>
		</contour>
	</outline>
</glyph>
<glyph name="G" format="2">
	<unicode hex="0047"/>
	<advance width="839"/>
	<outline>
		<contour>
			<point x="435" y="402.1638436349" type="curve" smooth="yes"/>
			<point x="490" y="402.1638436349"/>
			<point x="552" y="429.1638436349"/>
			<point x="716" y="429.1638436349" type="curve" smooth="yes"/>
			<point x="782" y="429.1638436349"/>
			<point x="810" y="476.1638436349"/>
			<point x="810" y="527.1638436349" type="curve" smooth="yes"/>
			<point x="810" y="572.1638436349"/>
			<point x="791" y="595.1638436349"/>
			<point x="694" y="595.1638436349" type="curve" smooth="yes"/>
			<point x="577" y="593.1638436349"/>
			<point x="487" y="578.1638436349"/>
			<point x="407" y="554.1638436349" type="curve" smooth="yes"/>
			<point x="357" y="540.1638436349"/>
			<point x="344" y="524.1638436349"/>
			<point x="344" y="489.1638436349" type="curve" smooth="yes"/>
			<point x="344" y="439.1638436349"/>
			<point x="386" y="402.1638436349"/>
		</contour>
		<contour>
			<point x="724" y="47.1638436349" type="curve" smooth="yes"/>
			<point x="749" y="47.1638436349"/>
			<point x="788" y="65.1638436349"/>
			<point x="788" y="105.1638436349" type="curve" smooth="yes"/>
			<point x="788" y="128.1638436349"/>
			<point x="784" y="137.1638436349"/>
			<point x="762" y="184.1638436349" type="curve" smooth="yes"/>
			<point x="729" y="251.1638436349"/>
			<point x="719" y="303.1638436349"/>
			<point x="719" y="445.1638436349" type="curve" smooth="yes"/>
			<point x="719" y="482.1638436349"/>
			<point x="689" y="504.1638436349"/>
			<point x="635" y="504.1638436349" type="curve" smooth="yes"/>
			<point x="590" y="504.1638436349"/>
			<point x="576" y="491.1638436349"/>
			<point x="551" y="452.1638436349" type="curve" smooth="yes"/>
			<point x="487" y="352.1638436349"/>
			<point x="390" y="323.1638436349"/>
			<point x="314" y="323.1638436349" type="curve" smooth="yes"/>
			<point x="261" y="323.1638436349"/>
			<point x="234" y="351.1638436349"/>
			<point x="234" y="410.1638436349" type="curve" smooth="yes"/>
			<point x="234" y="520.1638436349"/>
			<point x="345" y="670.1638436349"/>
			<point x="463" y="670.1638436349" type="curve" smooth="yes"/>
			<point x="482" y="670.1638436349"/>
			<point x="488" y="661.1638436349"/>
			<point x="488" y="649.1638436349" type="curve" smooth="yes"/>
			<point x="488" y="634.1638436349"/>
			<point x="495" y="621.1638436349"/>
			<point x="523" y="621.1638436349" type="curve" smooth="yes"/>
			<point x="595" y="621.1638436349"/>
			<point x="643" y="689.4715359426"/>
			<point x="643" y="769.1638436349" type="curve" smooth="yes"/>
			<point x="643" y="823.1638436349"/>
			<point x="606" y="864.1638436349"/>
			<point x="515" y="864.1638436349" type="curve" smooth="yes"/>
			<point x="278" y="864.1638436349"/>
			<point x="45" y="635.1638436349"/>
			<point x="45" y="393.1638436349" type="curve" smooth="yes"/>
			<point x="45" y="244.1638436349"/>
			<point x="138" y="146.1638436349"/>
			<point x="297" y="146.1638436349" type="curve" smooth="yes"/>
			<point x="408" y="146.1638436349"/>
			<point x="529" y="189.1638436349"/>
			<point x="581" y="276.1638436349" type="curve"/>
			<point x="555" y="280.1638436349" type="line"/>
			<point x="570" y="187.1638436349"/>
			<point x="583" y="145.1638436349"/>
			<point x="606" y="105.1638436349" type="curve" smooth="yes"/>
			<point x="632" y="64.1638436349"/>
			<point x="669" y="47.1638436349"/>
		</contour>
	</outline>
</glyph>
<glyph name="H" format="2">
	<unicode hex="0048"/>
	<advance width="730"/>
	<outline>
		<contour>
			<point x="201" y="-141.2117892047" type="curve" smooth="yes"/>
			<point x="243" y="-141.2117892047"/>
			<point x="276" y="-110.2117892047"/>
			<point x="276" y="-73.2117892047" type="curve" smooth="yes"/>
			<point x="276" y="67.7882107953"/>
			<point x="261" y="272.7882107953"/>
			<point x="261" y="480.7882107953" type="curve" smooth="yes"/>
			<point x="261" y="547.7882107953"/>
			<point x="203" y="579.7882107953"/>
			<point x="146" y="579.7882107953" type="curve" smooth="yes"/>
			<point x="87" y="579.7882107953"/>
			<point x="62" y="560.7882107953"/>
			<point x="62" y="504.7882107953" type="curve" smooth="yes"/>
			<point x="62" y="448.7882107953"/>
			<point x="99" y="135.7882107953"/>
			<point x="91" y="-10.2117892047" type="curve" smooth="yes"/>
			<point x="87" y="-69.2117892047"/>
			<point x="149" y="-141.2117892047"/>
		</contour>
		<contour>
			<point x="602" y="-139.2117892047" type="curve" smooth="yes"/>
			<point x="643" y="-139.2117892047"/>
			<point x="661" y="-110.2117892047"/>
			<point x="661" y="-84.2117892047" type="curve" smooth="yes"/>
			<point x="661" y="-2.2117892047"/>
			<point x="643" y="46.7882107953"/>
			<point x="642" y="103.7882107953" type="curve" smooth="yes"/>
			<point x="641" y="186.7882107953"/>
			<point x="648" y="318.7882107953"/>
			<point x="648" y="424.7882107953" type="curve" smooth="yes"/>
			<point x="648" y="525.7882107953"/>
			<point x="603" y="574.7882107953"/>
			<point x="541" y="574.7882107953" type="curve" smooth="yes"/>
			<point x="507" y="574.7882107953"/>
			<point x="475" y="557.7882107953"/>
			<point x="475" y="518.7882107953" type="curve" smooth="yes"/>
			<point x="475" y="431.7882107953"/>
			<point x="460" y="300.7882107953"/>
			<point x="460" y="161.7882107953" type="curve" smooth="yes"/>
			<point x="460" y="-26.2117892047"/>
			<point x="506" y="-139.2117892047"/>
		</contour>
		<contour>
			<point x="206" y="146.7882107953" type="curve" smooth="yes"/>
			<point x="267" y="146.7882107953"/>
			<point x="366" y="176.7882107953"/>
			<point x="638" y="176.7882107953" type="curve" smooth="yes"/>
			<point x="669" y="176.7882107953"/>
			<point x="687" y="197.7882107953"/>
			<point x="687" y="230.7882107953" type="curve" smooth="yes"/>
			<point x="687" y="271.7882107953"/>
			<point x="644" y="339.7882107953"/>
			<point x="525" y="339.7882107953" type="curve" smooth="yes"/>
			<point x="375" y="339.7882107953"/>
			<point x="220" y="337.7882107953"/>
			<point x="77" y="293.7882107953" type="curve" smooth="yes"/>
			<point x="49" y="285.7882107953"/>
			<point x="43" y="271.7882107953"/>
			<point x="43" y="249.7882107953" type="curve" smooth="yes"/>
			<point x="43" y="199.7882107953"/>
			<point x="101" y="146.7882107953"/>
		</contour>
	</outline>
</glyph>
<glyph name="I" format="2">
	<unicode hex="0049"/>
	<advance width="610"/>
	<outline>
		<contour>
			<point x="196" y="69.7824677396" type="curve" smooth="yes"/>
			<point x="237" y="69.7824677396"/>
			<point x="330" y="80.7824677396"/>
			<point x="443" y="80.7824677396" type="curve" smooth="yes"/>
			<point x="549" y="80.7824677396"/>
			<point x="594" y="124.7824677396"/>
			<point x="594" y="178.7824677396" type="curve" smooth="yes"/>
			<point x="594" y="215.7824677396"/>
			<point x="571" y="244.7824677396"/>
			<point x="468" y="244.7824677396" type="curve" smooth="yes"/>
			<point x="315" y="244.7824677396"/>
			<point x="279" y="263.7824677396"/>
			<point x="88" y="231.7824677396" type="curve" smooth="yes"/>
			<point x="52" y="225.7824677396"/>
			<point x="33" y="198.7824677396"/>
			<point x="33" y="168.7824677396" type="curve" smooth="yes"/>
			<point x="33" y="111.7824677396"/>
			<point x="80" y="69.7824677396"/>
		</contour>
		<contour>
			<point x="135" y="593.7824677396" type="curve" smooth="yes"/>
			<point x="192" y="593.7824677396"/>
			<point x="272" y="611.7824677396"/>
			<point x="442" y="611.7824677396" type="curve" smooth="yes"/>
			<point x="514" y="611.7824677396"/>
			<point x="579" y="653.7824677396"/>
			<point x="579" y="715.7824677396" type="curve" smooth="yes"/>
			<point x="579" y="776.7824677396"/>
			<point x="551" y="790.7824677396"/>
			<point x="459" y="790.7824677396" type="curve" smooth="yes"/>
			<point x="373" y="790.7824677396"/>
			<point x="252" y="781.7824677396"/>
			<point x="117" y="762.7824677396" type="curve" smooth="yes"/>
			<point x="66" y="755.7824677396"/>
			<point x="29" y="727.7824677396"/>
			<point x="29" y="682.7824677396" type="curve" smooth="yes"/>
			<point x="29" y="634.7824677396"/>
			<point x="56" y="593.7824677396"/>
		</contour>
		<contour>
			<point x="320" y="200.7824677396" type="curve" smooth="yes"/>
			<point x="361" y="200.7824677396"/>
			<point x="384" y="223.7824677396"/>
			<point x="384" y="269.7824677396" type="curve" smooth="yes"/>
			<point x="384" y="407.7824677396"/>
			<point x="401" y="517.7824677396"/>
			<point x="401" y="575.7824677396" type="curve" smooth="yes"/>
			<point x="401" y="625.7824677396"/>
			<point x="352" y="665.7824677396"/>
			<point x="293" y="665.7824677396" type="curve" smooth="yes"/>
			<point x="242" y="665.7824677396"/>
			<point x="226" y="638.7824677396"/>
			<point x="226" y="584.7824677396" type="curve" smooth="yes"/>
			<point x="226" y="502.7824677396"/>
			<point x="211" y="390.7824677396"/>
			<point x="211" y="277.7824677396" type="curve" smooth="yes"/>
			<point x="211" y="230.7824677396"/>
			<point x="254" y="200.7824677396"/>
		</contour>
	</outline>
</glyph>
<glyph name="J" format="2">
	<unicode hex="004A"/>
	<advance width="655"/>
	<outline>
		<contour>
			<point x="298" y="51.89907812" type="curve" smooth="yes"/>
			<point x="488" y="51.89907812"/>
			<point x="589" y="131.89907812"/>
			<point x="589" y="309.89907812" type="curve" smooth="yes"/>
			<point x="589" y="399.89907812"/>
			<point x="550" y="565.89907812"/>
			<point x="517" y="654.89907812" type="curve" smooth="yes"/>
			<point x="493" y="719.89907812"/>
			<point x="452" y="737.89907812"/>
			<point x="377" y="739.89907812" type="curve" smooth="yes"/>
			<point x="343" y="739.89907812"/>
			<point x="315" y="707.89907812"/>
			<point x="329" y="670.89907812" type="curve" smooth="yes"/>
			<point x="368" y="577.89907812"/>
			<point x="411" y="419.89907812"/>
			<point x="411" y="335.89907812" type="curve" smooth="yes"/>
			<point x="411" y="258.89907812"/>
			<point x="383" y="224.89907812"/>
			<point x="298" y="224.89907812" type="curve" smooth="yes"/>
			<point x="224" y="224.89907812"/>
			<point x="204" y="246.89907812"/>
			<point x="204" y="267.89907812" type="curve" smooth="yes"/>
			<point x="204" y="297.89907812"/>
			<point x="230" y="321.89907812"/>
			<point x="230" y="352.89907812" type="curve" smooth="yes"/>
			<point x="230" y="379.89907812"/>
			<point x="213" y="393.89907812"/>
			<point x="180" y="393.89907812" type="curve" smooth="yes"/>
			<point x="75" y="393.89907812"/>
			<point x="35" y="295.89907812"/>
			<point x="35" y="234.89907812" type="curve" smooth="yes"/>
			<point x="35" y="120.89907812"/>
			<point x="142" y="51.89907812"/>
		</contour>
		<contour>
			<point x="222" y="589.89907812" type="curve" smooth="yes"/>
			<point x="302" y="589.89907812"/>
			<point x="429" y="607.89907812"/>
			<point x="560" y="607.89907812" type="curve" smooth="yes"/>
			<point x="606" y="607.89907812"/>
			<point x="630" y="628.89907812"/>
			<point x="630" y="667.89907812" type="curve" smooth="yes"/>
			<point x="630" y="756.89907812"/>
			<point x="542" y="775.89907812"/>
			<point x="464" y="775.89907812" type="curve" smooth="yes"/>
			<point x="364" y="775.89907812"/>
			<point x="313" y="763.89907812"/>
			<point x="241" y="763.89907812" type="curve" smooth="yes"/>
			<point x="200" y="763.89907812"/>
			<point x="160" y="776.89907812"/>
			<point x="111" y="776.89907812" type="curve" smooth="yes"/>
			<point x="79" y="776.89907812"/>
			<point x="61" y="754.89907812"/>
			<point x="61" y="720.89907812" type="curve" smooth="yes"/>
			<point x="61" y="624.89907812"/>
			<point x="156" y="589.89907812"/>
		</contour>
	</outline>
</glyph>
<glyph name="P" format="2">
	<unicode hex="0050"/>
	<advance width="655"/>
	<outline>
		<contour>
			<point x="80" y="190.9905803653" type="curve" smooth="yes"/>
			<point x="80" y="85.9905803653"/>
			<point x="128" y="45.9905803653"/>
			<point x="199" y="45.9905803653" type="curve" smooth="yes"/>
			<point x="248" y="45.9905803653"/>
			<point x="258" y="90.9905803653"/>
			<point x="258" y="185.9905803653" type="curve" smooth="yes"/>
			<point x="258" y="327.9905803653"/>
			<point x="214" y="421.9905803653"/>
			<point x="214" y="521.9905803653" type="curve" smooth="yes"/>
			<point x="214" y="564.9905803653"/>
			<point x="259" y="588.9905803653"/>
			<point x="348" y="588.9905803653" type="curve" smooth="yes"/>
			<point x="393" y="588.9905803653"/>
			<point x="436" y="571.9905803653"/>
			<point x="436" y="535.9905803653" type="curve" smooth="yes"/>
			<point x="436" y="473.9905803653"/>
			<point x="359" y="403.9905803653"/>
			<point x="284" y="403.9905803653" type="curve" smooth="yes"/>
			<point x="227" y="403.9905803653"/>
			<point x="215" y="421.9905803653"/>
			<point x="190" y="421.9905803653" type="curve" smooth="yes"/>
			<point x="155" y="421.9905803653"/>
			<point x="127" y="399.9905803653"/>
			<point x="127" y="358.9905803653" type="curve" smooth="yes"/>
			<point x="127" y="291.9905803653"/>
			<point x="197" y="228.9905803653"/>
			<point x="291" y="228.9905803653" type="curve" smooth="yes"/>
			<point x="464" y="228.9905803653"/>
			<point x="609" y="386.9905803653"/>
			<point x="609" y="535.9905803653" type="curve" smooth="yes"/>
			<point x="609" y="680.9905803653"/>
			<point x="491" y="763.9905803653"/>
			<point x="347" y="763.9905803653" type="curve" smooth="yes"/>
			<point x="123" y="763.9905803653"/>
			<point x="41" y="667.9905803653"/>
			<point x="41" y="521.9905803653" type="curve" smooth="yes"/>
			<point x="41" y="418.9905803653"/>
			<point x="80" y="366.9905803653"/>
		</contour>
	</outline>
</glyph>
<glyph name="R" format="2">
	<unicode hex="0052"/>
	<advance width="756"/>
	<outline>
		<contour>
			<point x="111" y="857.58994985" type="curve" smooth="yes"/>
			<point x="55" y="857.58994985"/>
			<point x="35" y="816.58994985"/>
			<point x="48" y="770.58994985" type="curve" smooth="yes"/>
			<point x="76" y="671.58994985"/>
			<point x="102" y="604.58994985"/>
			<point x="99" y="495.58994985" type="curve"/>
			<point x="64" y="422.58994985"/>
			<point x="48" y="357.58994985"/>
			<point x="48" y="308.58994985" type="curve" smooth="yes"/>
			<point x="48" y="213.58994985"/>
			<point x="123" y="169.58994985"/>
			<point x="176" y="169.58994985" type="curve" smooth="yes"/>
			<point x="217" y="169.58994985"/>
			<point x="233" y="185.58994985"/>
			<point x="233" y="226.58994985" type="curve" smooth="yes"/>
			<point x="233" y="651.58994985"/>
			<point x="479" y="717.58994985"/>
			<point x="508" y="717.58994985" type="curve" smooth="yes"/>
			<point x="521" y="717.58994985"/>
			<point x="526" y="713.58994985"/>
			<point x="526" y="702.58994985" type="curve" smooth="yes"/>
			<point x="526" y="660.58994985"/>
			<point x="445" y="553.58994985"/>
			<point x="210" y="505.58994985" type="curve" smooth="yes"/>
			<point x="171" y="497.58994985"/>
			<point x="156" y="419.58994985"/>
			<point x="179" y="388.58994985" type="curve" smooth="yes"/>
			<point x="258" y="286.58994985"/>
			<point x="527" y="170.58994985"/>
			<point x="602" y="170.58994985" type="curve" smooth="yes"/>
			<point x="680" y="170.58994985"/>
			<point x="734" y="213.58994985"/>
			<point x="734" y="265.58994985" type="curve" smooth="yes"/>
			<point x="734" y="296.58994985"/>
			<point x="704" y="315.58994985"/>
			<point x="640" y="330.58994985" type="curve" smooth="yes"/>
			<point x="570" y="347.58994985"/>
			<point x="484" y="375.58994985"/>
			<point x="403" y="415.58994985" type="curve"/>
			<point x="578" y="468.58994985"/>
			<point x="700" y="582.58994985"/>
			<point x="700" y="711.58994985" type="curve" smooth="yes"/>
			<point x="700" y="812.58994985"/>
			<point x="648" y="892.58994985"/>
			<point x="520" y="892.58994985" type="curve" smooth="yes"/>
			<point x="403" y="892.58994985"/>
			<point x="294" y="818.58994985"/>
			<point x="230" y="706.58994985" type="curve"/>
			<point x="253" y="706.58994985" type="line"/>
			<point x="228" y="819.58994985"/>
			<point x="192" y="857.58994985"/>
		</contour>
	</outline>
</glyph>
<glyph name="W" format="2">
	<unicode hex="0057"/>
	<advance width="1005"/>
	<outline>
		<contour>
			<point x="230" y="751.1481218676" type="curve" smooth="yes"/>
			<point x="227" y="801.1481218676"/>
			<point x="180" y="844.1481218676"/>
			<point x="93" y="844.1481218676" type="curve" smooth="yes"/>
			<point x="48" y="844.1481218676"/>
			<point x="31" y="808.1481218676"/>
			<point x="34" y="763.1481218676" type="curve" smooth="yes"/>
			<point x="46" y="582.1481218676"/>
			<point x="96" y="387.1481218676"/>
			<point x="163" y="216.1481218676" type="curve" smooth="yes"/>
			<point x="195" y="135.1481218676"/>
			<point x="236" y="124.1481218676"/>
			<point x="263" y="124.1481218676" type="curve" smooth="yes"/>
			<point x="306" y="124.1481218676"/>
			<point x="327" y="145.1481218676"/>
			<point x="341" y="191.1481218676" type="curve" smooth="yes"/>
			<point x="392" y="354.1481218676"/>
			<point x="448" y="484.1481218676"/>
			<point x="524" y="573.1481218676" type="curve" smooth="yes"/>
			<point x="546" y="598.1481218676"/>
			<point x="443" y="623.1481218676"/>
			<point x="466" y="592.1481218676" type="curve" smooth="yes"/>
			<point x="530" y="507.1481218676"/>
			<point x="563" y="298.1481218676"/>
			<point x="648" y="191.1481218676" type="curve" smooth="yes"/>
			<point x="687" y="142.1481218676"/>
			<point x="719" y="120.1481218676"/>
			<point x="772" y="120.1481218676" type="curve" smooth="yes"/>
			<point x="797" y="120.1481218676"/>
			<point x="823" y="131.1481218676"/>
			<point x="841" y="174.1481218676" type="curve" smooth="yes"/>
			<point x="902" y="325.1481218676"/>
			<point x="918" y="547.1481218676"/>
			<point x="960" y="691.1481218676" type="curve" smooth="yes"/>
			<point x="978" y="754.1481218676"/>
			<point x="962" y="844.1481218676"/>
			<point x="859" y="844.1481218676" type="curve" smooth="yes"/>
			<point x="831" y="844.1481218676"/>
			<point x="808" y="835.1481218676"/>
			<point x="792" y="803.1481218676" type="curve" smooth="yes"/>
			<point x="765" y="753.1481218676"/>
			<point x="743" y="499.1481218676"/>
			<point x="701" y="374.1481218676" type="curve" smooth="yes"/>
			<point x="677" y="301.1481218676"/>
			<point x="834" y="275.1481218676"/>
			<point x="786" y="339.1481218676" type="curve" smooth="yes"/>
			<point x="698" y="468.1481218676"/>
			<point x="663" y="669.1481218676"/>
			<point x="625" y="726.1481218676" type="curve" smooth="yes"/>
			<point x="598" y="767.1481218676"/>
			<point x="572" y="784.1481218676"/>
			<point x="517" y="784.1481218676" type="curve" smooth="yes"/>
			<point x="475" y="784.1481218676"/>
			<point x="442" y="763.1481218676"/>
			<point x="408" y="722.1481218676" type="curve" smooth="yes"/>
			<point x="342" y="641.1481218676"/>
			<point x="281" y="539.1481218676"/>
			<point x="219" y="360.1481218676" type="curve" smooth="yes"/>
			<point x="204" y="318.1481218676"/>
			<point x="320" y="311.1481218676"/>
			<point x="275" y="449.1481218676" type="curve" smooth="yes"/>
			<point x="247" y="544.1481218676"/>
			<point x="239" y="619.1481218676"/>
		</contour>
	</outline>
</glyph>
<glyph name="Z" format="2">
	<unicode hex="005A"/>
	<advance width="681"/>
	<outline>
		<contour>
			<point x="81" y="496.0389374712" type="curve" smooth="yes"/>
			<point x="179" y="519.0389374712"/>
			<point x="276" y="529.0389374712"/>
			<point x="370" y="529.0389374712" type="curve" smooth="yes"/>
			<point x="580" y="529.0389374712"/>
			<point x="634" y="451.0389374712"/>
			<point x="634" y="368.0389374712" type="curve" smooth="yes"/>
			<point x="634" y="259.0389374712"/>
			<point x="606" y="222.0389374712"/>
			<point x="407" y="108.0389374712" type="curve" smooth="yes"/>
			<point x="239" y="11.0389374712"/>
			<point x="232" y="3.0389374712"/>
			<point x="211" y="-44.9610625288" type="curve" smooth="yes"/>
			<point x="197" y="-76.9610625288"/>
			<point x="143" y="3.0389374712"/>
			<point x="171" y="-9.9610625288" type="curve" smooth="yes"/>
			<point x="195" y="-20.9610625288"/>
			<point x="215" y="-25.9610625288"/>
			<point x="255" y="-25.9610625288" type="curve" smooth="yes"/>
			<point x="318" y="-25.9610625288"/>
			<point x="398" y="-6.9610625288"/>
			<point x="479" y="-6.9610625288" type="curve" smooth="yes"/>
			<point x="572" y="-6.9610625288"/>
			<point x="658" y="-34.9610625288"/>
			<point x="658" y="-127.9610625288" type="curve" smooth="yes"/>
			<point x="658" y="-164.9610625288"/>
			<point x="633" y="-187.9610625288"/>
			<point x="600" y="-187.9610625288" type="curve" smooth="yes"/>
			<point x="557" y="-187.9610625288"/>
			<point x="530" y="-180.9610625288"/>
			<point x="463" y="-180.9610625288" type="curve" smooth="yes"/>
			<point x="380" y="-180.9610625288"/>
			<point x="302" y="-191.9610625288"/>
			<point x="235" y="-191.9610625288" type="curve" smooth="yes"/>
			<point x="93" y="-191.9610625288"/>
			<point x="43" y="-120.9610625288"/>
			<point x="43" y="-47.9610625288" type="curve" smooth="yes"/>
			<point x="43" y="42.0389374712"/>
			<point x="68" y="102.0389374712"/>
			<point x="297" y="236.0389374712" type="curve" smooth="yes"/>
			<point x="443" y="323.0389374712"/>
			<point x="452" y="335.0389374712"/>
			<point x="463" y="363.0389374712" type="curve" smooth="yes"/>
			<point x="475" y="395.0389374712"/>
			<point x="512" y="319.0389374712"/>
			<point x="488" y="338.0389374712" type="curve" smooth="yes"/>
			<point x="472" y="350.0389374712"/>
			<point x="468" y="356.0389374712"/>
			<point x="417" y="356.0389374712" type="curve" smooth="yes"/>
			<point x="301" y="356.0389374712"/>
			<point x="219" y="330.0389374712"/>
			<point x="169" y="330.0389374712" type="curve" smooth="yes"/>
			<point x="110" y="330.0389374712"/>
			<point x="35" y="361.0389374712"/>
			<point x="35" y="432.0389374712" type="curve" smooth="yes"/>
			<point x="35" y="461.0389374712"/>
			<point x="49" y="488.0389374712"/>
		</contour>
	</outline>
</glyph>
<glyph name="b" format="2">
	<unicode hex="0062"/>
	<advance width="635"/>
	<outline>
		<contour>
			<point x="222" y="560.766523888" type="curve" smooth="yes"/>
			<point x="222" y="514.766523888"/>
			<point x="205" y="432.766523888"/>
			<point x="205" y="347.766523888" type="curve" smooth="yes"/>
			<point x="205" y="295.766523888"/>
			<point x="202" y="263.766523888"/>
			<point x="209" y="213.766523888" type="curve" smooth="yes"/>
			<point x="213" y="185.766523888"/>
			<point x="152" y="218.766523888"/>
			<point x="168" y="254.766523888" type="curve" smooth="yes"/>
			<point x="196" y="316.766523888"/>
			<point x="283" y="394.766523888"/>
			<point x="386" y="394.766523888" type="curve" smooth="yes"/>
			<point x="501" y="394.766523888"/>
			<point x="597" y="328.766523888"/>
			<point x="597" y="172.766523888" type="curve" smooth="yes"/>
			<point x="597" y="-11.233476112"/>
			<point x="410" y="-142.233476112"/>
			<point x="220" y="-142.233476112" type="curve" smooth="yes"/>
			<point x="135" y="-142.233476112"/>
			<point x="34" y="-112.233476112"/>
			<point x="34" y="-27.233476112" type="curve" smooth="yes"/>
			<point x="34" y="17.766523888"/>
			<point x="68" y="38.766523888"/>
			<point x="118" y="38.766523888" type="curve" smooth="yes"/>
			<point x="143" y="38.766523888"/>
			<point x="176" y="30.766523888"/>
			<point x="208" y="30.766523888" type="curve" smooth="yes"/>
			<point x="287" y="30.766523888"/>
			<point x="420" y="73.766523888"/>
			<point x="420" y="181.766523888" type="curve" smooth="yes"/>
			<point x="420" y="206.766523888"/>
			<point x="411" y="220.766523888"/>
			<point x="383" y="220.766523888" type="curve" smooth="yes"/>
			<point x="290" y="220.766523888"/>
			<point x="227" y="140.766523888"/>
			<point x="203" y="25.766523888" type="curve" smooth="yes"/>
			<point x="197" y="-3.233476112"/>
			<point x="180" y="-22.233476112"/>
			<point x="151" y="-22.233476112" type="curve" smooth="yes"/>
			<point x="113" y="-22.233476112"/>
			<point x="76" y="6.766523888"/>
			<point x="67" y="57.766523888" type="curve" smooth="yes"/>
			<point x="49" y="159.766523888"/>
			<point x="38" y="269.766523888"/>
			<point x="38" y="331.766523888" type="curve" smooth="yes"/>
			<point x="38" y="481.766523888"/>
			<point x="61" y="541.766523888"/>
			<point x="54" y="618.766523888" type="curve" smooth="yes"/>
			<point x="51" y="652.766523888"/>
			<point x="64" y="678.766523888"/>
			<point x="100" y="678.766523888" type="curve" smooth="yes"/>
			<point x="161" y="678.766523888"/>
			<point x="222" y="636.766523888"/>
		</contour>
	</outline>
</glyph>
<glyph name="c" format="2">
	<unicode hex="0063"/>
	<advance width="552"/>
	<outline>
		<contour>
			<point x="494" y="243.7308032087" type="curve" smooth="yes"/>
			<point x="494" y="301.7308032087"/>
			<point x="477" y="323.7308032087"/>
			<point x="441" y="323.7308032087" type="curve" smooth="yes"/>
			<point x="387" y="323.7308032087"/>
			<point x="396" y="261.7308032087"/>
			<point x="287" y="261.7308032087" type="curve" smooth="yes"/>
			<point x="209" y="261.7308032087"/>
			<point x="198" y="284.7308032087"/>
			<point x="198" y="311.7308032087" type="curve" smooth="yes"/>
			<point x="198" y="379.7308032087"/>
			<point x="267" y="448.7308032087"/>
			<point x="361" y="448.7308032087" type="curve" smooth="yes"/>
			<point x="391" y="448.7308032087"/>
			<point x="392" y="419.7308032087"/>
			<point x="413" y="419.7308032087" type="curve" smooth="yes"/>
			<point x="459" y="419.7308032087"/>
			<point x="483" y="463.7308032087"/>
			<point x="483" y="519.7308032087" type="curve" smooth="yes"/>
			<point x="483" y="601.7308032087"/>
			<point x="427" y="620.7308032087"/>
			<point x="371" y="620.7308032087" type="curve" smooth="yes"/>
			<point x="185" y="620.7308032087"/>
			<point x="26" y="485.7308032087"/>
			<point x="26" y="315.7308032087" type="curve" smooth="yes"/>
			<point x="26" y="181.7308032087"/>
			<point x="119" y="86.7308032087"/>
			<point x="296" y="86.7308032087" type="curve" smooth="yes"/>
			<point x="411" y="86.7308032087"/>
			<point x="494" y="144.7308032087"/>
		</contour>
	</outline>
</glyph>
<glyph name="d" format="2">
	<unicode hex="0064"/>
	<advance width="708"/>
	<outline>
		<contour>
			<point x="293" y="97.6052733472" type="curve" smooth="yes"/>
			<point x="369" y="97.6052733472"/>
			<point x="481" y="148.6052733472"/>
			<point x="529" y="298.6052733472" type="curve"/>
			<point x="432" y="269.6052733472" type="line"/>
			<point x="432" y="173.6052733472"/>
			<point x="493" y="86.6052733472"/>
			<point x="577" y="86.6052733472" type="curve" smooth="yes"/>
			<point x="634" y="86.6052733472"/>
			<point x="672" y="134.6052733472"/>
			<point x="672" y="177.6052733472" type="curve" smooth="yes"/>
			<point x="672" y="216.6052733472"/>
			<point x="597" y="199.6052733472"/>
			<point x="597" y="400.6052733472" type="curve" smooth="yes"/>
			<point x="597" y="525.6052733472"/>
			<point x="628" y="602.6052733472"/>
			<point x="638" y="749.6052733472" type="curve" smooth="yes"/>
			<point x="644" y="858.6052733472"/>
			<point x="599" y="916.6052733472"/>
			<point x="512" y="916.6052733472" type="curve" smooth="yes"/>
			<point x="481" y="916.6052733472"/>
			<point x="458" y="900.6052733472"/>
			<point x="458" y="847.6052733472" type="curve" smooth="yes"/>
			<point x="458" y="477.6052733472"/>
			<point x="385" y="272.6052733472"/>
			<point x="288" y="272.6052733472" type="curve" smooth="yes"/>
			<point x="257" y="272.6052733472"/>
			<point x="214" y="335.6052733472"/>
			<point x="214" y="385.6052733472" type="curve" smooth="yes"/>
			<point x="214" y="432.6052733472"/>
			<point x="259" y="458.6052733472"/>
			<point x="327" y="458.6052733472" type="curve" smooth="yes"/>
			<point x="388" y="458.6052733472"/>
			<point x="399" y="439.6052733472"/>
			<point x="426" y="439.6052733472" type="curve" smooth="yes"/>
			<point x="446" y="439.6052733472"/>
			<point x="462" y="462.6052733472"/>
			<point x="462" y="495.6052733472" type="curve" smooth="yes"/>
			<point x="462" y="586.6052733472"/>
			<point x="393" y="633.6052733472"/>
			<point x="282" y="633.6052733472" type="curve" smooth="yes"/>
			<point x="131" y="635.6052733472"/>
			<point x="30" y="535.6052733472"/>
			<point x="30" y="385.6052733472" type="curve" smooth="yes"/>
			<point x="30" y="230.6052733472"/>
			<point x="138" y="97.6052733472"/>
		</contour>
	</outline>
</glyph>
<glyph name="h" format="2">
	<unicode hex="0068"/>
	<advance width="693"/>
	<outline>
		<contour>
			<point x="593" y="54.9336061557" type="curve" smooth="yes"/>
			<point x="638" y="54.9336061557"/>
			<point x="672" y="80.9336061557"/>
			<point x="672" y="114.9336061557" type="curve" smooth="yes"/>
			<point x="672" y="130.9336061557"/>
			<point x="667" y="145.9336061557"/>
			<point x="660" y="159.9336061557" type="curve" smooth="yes"/>
			<point x="642" y="191.9336061557"/>
			<point x="607" y="223.9336061557"/>
			<point x="596" y="334.9336061557" type="curve" smooth="yes"/>
			<point x="581" y="500.9336061557"/>
			<point x="549" y="598.9336061557"/>
			<point x="429" y="598.9336061557" type="curve" smooth="yes"/>
			<point x="346" y="598.9336061557"/>
			<point x="265" y="521.9336061557"/>
			<point x="194" y="363.9336061557" type="curve"/>
			<point x="230" y="290.9336061557" type="line"/>
			<point x="230" y="513.9336061557"/>
			<point x="252" y="612.9336061557"/>
			<point x="252" y="693.9336061557" type="curve" smooth="yes"/>
			<point x="252" y="836.9336061557"/>
			<point x="188" y="876.9336061557"/>
			<point x="136" y="876.9336061557" type="curve" smooth="yes"/>
			<point x="82" y="876.9336061557"/>
			<point x="63" y="847.9336061557"/>
			<point x="63" y="817.9336061557" type="curve" smooth="yes"/>
			<point x="63" y="776.9336061557"/>
			<point x="78" y="748.9336061557"/>
			<point x="78" y="671.9336061557" type="curve" smooth="yes"/>
			<point x="78" y="555.9336061557"/>
			<point x="55" y="412.9336061557"/>
			<point x="55" y="201.9336061557" type="curve" smooth="yes"/>
			<point x="55" y="126.9336061557"/>
			<point x="103" y="56.9336061557"/>
			<point x="163" y="56.9336061557" type="curve" smooth="yes"/>
			<point x="192" y="56.9336061557"/>
			<point x="213" y="67.9336061557"/>
			<point x="232" y="108.9336061557" type="curve" smooth="yes"/>
			<point x="308" y="276.9336061557"/>
			<point x="379" y="374.9336061557"/>
			<point x="416" y="387.9336061557" type="curve"/>
			<point x="423" y="355.9336061557"/>
			<point x="428" y="317.9336061557"/>
			<point x="434" y="215.9336061557" type="curve" smooth="yes"/>
			<point x="440" y="127.9336061557"/>
			<point x="495" y="54.9336061557"/>
		</contour>
	</outline>
</glyph>
<glyph name="j" format="2">
	<unicode hex="006A"/>
	<advance width="345"/>
	<outline>
		<contour>
			<point x="217" y="533.735605287" type="curve" smooth="yes"/>
			<point x="253" y="344.735605287"/>
			<point x="273" y="178.735605287"/>
			<point x="273" y="27.735605287" type="curve" smooth="yes"/>
			<point x="273" y="-117.264394713"/>
			<point x="190" y="-192.264394713"/>
			<point x="64" y="-192.264394713" type="curve" smooth="yes"/>
			<point x="-34" y="-192.264394713"/>
			<point x="-90" y="-132.264394713"/>
			<point x="-90" y="-59.264394713" type="curve" smooth="yes"/>
			<point x="-90" y="-20.264394713"/>
			<point x="-70" y="1.735605287"/>
			<point x="-41" y="1.735605287" type="curve" smooth="yes"/>
			<point x="-6" y="1.735605287"/>
			<point x="12" y="-20.264394713"/>
			<point x="55" y="-20.264394713" type="curve" smooth="yes"/>
			<point x="86" y="-20.264394713"/>
			<point x="103" y="4.735605287"/>
			<point x="103" y="41.735605287" type="curve" smooth="yes"/>
			<point x="103" y="251.735605287"/>
			<point x="50" y="333.735605287"/>
			<point x="50" y="469.735605287" type="curve" smooth="yes"/>
			<point x="50" y="557.735605287"/>
			<point x="96" y="591.735605287"/>
			<point x="143" y="591.735605287" type="curve" smooth="yes"/>
			<point x="183" y="591.735605287"/>
			<point x="207" y="580.735605287"/>
		</contour>
		<contour>
			<point x="158" y="666.735605287" type="curve" smooth="yes"/>
			<point x="216" y="666.735605287"/>
			<point x="238" y="716.735605287"/>
			<point x="238" y="762.735605287" type="curve" smooth="yes"/>
			<point x="238" y="816.735605287"/>
			<point x="204" y="884.735605287"/>
			<point x="143" y="884.735605287" type="curve" smooth="yes"/>
			<point x="84" y="884.735605287"/>
			<point x="37" y="836.735605287"/>
			<point x="37" y="769.735605287" type="curve" smooth="yes"/>
			<point x="37" y="716.735605287"/>
			<point x="91" y="666.735605287"/>
		</contour>
	</outline>
</glyph>
<glyph name="o" format="2">
	<unicode hex="006F"/>
	<advance width="678"/>
	<outline>
		<contour>
			<point x="354" y="163.8426609229" type="curve" smooth="yes"/>
			<point x="513" y="163.8426609229"/>
			<point x="634" y="283.8426609229"/>
			<point x="634" y="441.8426609229" type="curve" smooth="yes"/>
			<point x="634" y="595.8426609229"/>
			<point x="530" y="691.8426609229"/>
			<point x="350" y="691.8426609229" type="curve" smooth="yes"/>
			<point x="265" y="691.8426609229"/>
			<point x="170" y="603.8426609229"/>
			<point x="170" y="520.8426609229" type="curve" smooth="yes"/>
			<point x="170" y="460.8426609229"/>
			<point x="195" y="444.8426609229"/>
			<point x="220" y="444.8426609229" type="curve" smooth="yes"/>
			<point x="252" y="444.8426609229"/>
			<point x="269" y="454.8426609229"/>
			<point x="297" y="482.8426609229" type="curve" smooth="yes"/>
			<point x="322" y="507.8426609229"/>
			<point x="336" y="522.8426609229"/>
			<point x="362" y="522.8426609229" type="curve" smooth="yes"/>
			<point x="422" y="522.8426609229"/>
			<point x="464" y="487.8426609229"/>
			<point x="464" y="433.8426609229" type="curve" smooth="yes"/>
			<point x="464" y="371.8426609229"/>
			<point x="416" y="329.8426609229"/>
			<point x="349" y="329.8426609229" type="curve" smooth="yes"/>
			<point x="267" y="329.8426609229"/>
			<point x="215" y="371.8426609229"/>
			<point x="215" y="434.8426609229" type="curve" smooth="yes"/>
			<point x="215" y="473.8426609229"/>
			<point x="257" y="511.8426609229"/>
			<point x="296" y="523.8426609229" type="curve" smooth="yes"/>
			<point x="364" y="544.8426609229"/>
			<point x="381" y="587.8426609229"/>
			<point x="381" y="641.8426609229" type="curve" smooth="yes"/>
			<point x="381" y="686.8426609229"/>
			<point x="343" y="704.8426609229"/>
			<point x="304" y="704.8426609229" type="curve" smooth="yes"/>
			<point x="178" y="704.8426609229"/>
			<point x="44" y="570.8426609229"/>
			<point x="44" y="441.8426609229" type="curve" smooth="yes"/>
			<point x="44" y="279.8426609229"/>
			<point x="174" y="163.8426609229"/>
		</contour>
	</outline>
</glyph>
<glyph name="q" format="2">
	<unicode hex="0071"/>
	<advance width="618"/>
	<outline>
		<contour>
			<point x="423" y="172.275793097" type="curve" smooth="yes"/>
			<point x="466" y="172.275793097"/>
			<point x="500" y="205.275793097"/>
			<point x="500" y="242.275793097" type="curve" smooth="yes"/>
			<point x="500" y="320.275793097"/>
			<point x="437" y="392.275793097"/>
			<point x="339" y="392.275793097" type="curve" smooth="yes"/>
			<point x="179" y="392.275793097"/>
			<point x="15" y="227.275793097"/>
			<point x="15" y="75.275793097" type="curve" smooth="yes"/>
			<point x="15" y="-55.724206903"/>
			<point x="88" y="-142.724206903"/>
			<point x="235" y="-142.724206903" type="curve" smooth="yes"/>
			<point x="319" y="-142.724206903"/>
			<point x="373" y="-119.724206903"/>
			<point x="437" y="-75.724206903" type="curve" smooth="yes"/>
			<point x="510" y="-25.724206903"/>
			<point x="408" y="-14.724206903"/>
			<point x="406" y="-61.724206903" type="curve" smooth="yes"/>
			<point x="402" y="-148.724206903"/>
			<point x="405" y="-231.724206903"/>
			<point x="411" y="-300.724206903" type="curve" smooth="yes"/>
			<point x="414" y="-334.724206903"/>
			<point x="451" y="-392.724206903"/>
			<point x="505" y="-392.724206903" type="curve" smooth="yes"/>
			<point x="550" y="-392.724206903"/>
			<point x="597" y="-366.724206903"/>
			<point x="640" y="-328.724206903" type="curve" smooth="yes"/>
			<point x="652" y="-317.724206903"/>
			<point x="660" y="-301.724206903"/>
			<point x="660" y="-283.724206903" type="curve" smooth="yes"/>
			<point x="660" y="-212.724206903"/>
			<point x="638" y="-153.724206903"/>
			<point x="609" y="-153.724206903" type="curve" smooth="yes"/>
			<point x="591" y="-153.724206903"/>
			<point x="578" y="-167.724206903"/>
			<point x="557" y="-179.724206903" type="curve" smooth="yes"/>
			<point x="529" y="-195.724206903"/>
			<point x="581" y="-237.724206903"/>
			<point x="578" y="-191.724206903" type="curve" smooth="yes"/>
			<point x="572" y="-90.724206903"/>
			<point x="571" y="-38.724206903"/>
			<point x="572" y="18.275793097" type="curve"/>
			<point x="577" y="38.275793097"/>
			<point x="602" y="85.275793097"/>
			<point x="602" y="151.275793097" type="curve" smooth="yes"/>
			<point x="602" y="199.275793097"/>
			<point x="561" y="235.275793097"/>
			<point x="494" y="235.275793097" type="curve" smooth="yes"/>
			<point x="472" y="235.275793097"/>
			<point x="460" y="223.275793097"/>
			<point x="454" y="204.275793097" type="curve" smooth="yes"/>
			<point x="417" y="99.275793097"/>
			<point x="336" y="27.275793097"/>
			<point x="235" y="27.275793097" type="curve" smooth="yes"/>
			<point x="208" y="27.275793097"/>
			<point x="192" y="41.275793097"/>
			<point x="192" y="66.275793097" type="curve" smooth="yes"/>
			<point x="192" y="126.275793097"/>
			<point x="285" y="221.275793097"/>
			<point x="339" y="221.275793097" type="curve" smooth="yes"/>
			<point x="362" y="221.275793097"/>
			<point x="373" y="215.275793097"/>
			<point x="382" y="200.275793097" type="curve" smooth="yes"/>
			<point x="394" y="179.275793097"/>
			<point x="408" y="172.275793097"/>
		</contour>
	</outline>
</glyph>
<glyph name="u" format="2">
	<unicode hex="0075"/>
	<advance width="639"/>
	<outline>
		<contour>
			<point x="333" y="88.7306490403" type="curve" smooth="yes"/>
			<point x="474" y="88.7306490403"/>
			<point x="585" y="216.7757618223"/>
			<point x="585" y="481.7306490403" type="curve" smooth="yes"/>
			<point x="585" y="571.7306490403"/>
			<point x="547" y="615.7306490403"/>
			<point x="482" y="615.7306490403" type="curve" smooth="yes"/>
			<point x="428" y="615.7306490403"/>
			<point x="413" y="586.7306490403"/>
			<point x="413" y="537.7306490403" type="curve" smooth="yes"/>
			<point x="413" y="505.7306490403"/>
			<point x="417" y="480.7306490403"/>
			<point x="417" y="440.7306490403" type="curve" smooth="yes"/>
			<point x="417" y="354.6486818272"/>
			<point x="384" y="263.7306490403"/>
			<point x="321" y="263.7306490403" type="curve" smooth="yes"/>
			<point x="271" y="263.7306490403"/>
			<point x="208" y="343.5787503061"/>
			<point x="208" y="415.7306490403" type="curve" smooth="yes"/>
			<point x="208" y="448.7306490403"/>
			<point x="230" y="484.7306490403"/>
			<point x="230" y="509.7306490403" type="curve" smooth="yes"/>
			<point x="230" y="566.6045229142"/>
			<point x="177" y="616.7306490403"/>
			<point x="121" y="616.7306490403" type="curve" smooth="yes"/>
			<point x="95" y="616.7306490403"/>
			<point x="75" y="599.7306490403"/>
			<point x="67" y="577.7306490403" type="curve" smooth="yes"/>
			<point x="45.4562248666" y="523.8712112067"/>
			<point x="35" y="474.2848659078"/>
			<point x="35" y="415.7306490403" type="curve" smooth="yes"/>
			<point x="35" y="279.2351535448"/>
			<point x="152" y="88.7306490403"/>
		</contour>
	</outline>
</glyph>
<glyph name="w" format="2">
	<unicode hex="0077"/>
	<advance width="917"/>
	<outline>
		<contour>
			<point x="172" y="394.5225096237" type="curve" smooth="yes"/>
			<point x="218" y="300.5225096237"/>
			<point x="213" y="158.5225096237"/>
			<point x="280" y="88.5225096237" type="curve" smooth="yes"/>
			<point x="303" y="64.5225096237"/>
			<point x="201" y="66.5225096237"/>
			<point x="216" y="87.5225096237" type="curve" smooth="yes"/>
			<point x="258" y="153.5225096237"/>
			<point x="260" y="185.5225096237"/>
			<point x="301" y="293.5225096237" type="curve" smooth="yes"/>
			<point x="338" y="391.5225096237"/>
			<point x="372" y="451.5225096237"/>
			<point x="442" y="451.5225096237" type="curve" smooth="yes"/>
			<point x="516" y="451.5225096237"/>
			<point x="557" y="396.5225096237"/>
			<point x="592" y="306.5225096237" type="curve" smooth="yes"/>
			<point x="639" y="184.5225096237"/>
			<point x="631" y="124.5225096237"/>
			<point x="691" y="97.5225096237" type="curve" smooth="yes"/>
			<point x="749" y="72.5225096237"/>
			<point x="606" y="51.5225096237"/>
			<point x="635" y="85.5225096237" type="curve" smooth="yes"/>
			<point x="682" y="140.5225096237"/>
			<point x="688" y="292.5225096237"/>
			<point x="720" y="367.5225096237" type="curve" smooth="yes"/>
			<point x="736" y="404.5225096237"/>
			<point x="771" y="453.5225096237"/>
			<point x="826" y="453.5225096237" type="curve" smooth="yes"/>
			<point x="874" y="453.5225096237"/>
			<point x="918" y="406.5225096237"/>
			<point x="918" y="357.5225096237" type="curve" smooth="yes"/>
			<point x="918" y="336.5225096237"/>
			<point x="907" y="316.5225096237"/>
			<point x="892" y="298.5225096237" type="curve" smooth="yes"/>
			<point x="845" y="240.5225096237"/>
			<point x="838" y="163.5225096237"/>
			<point x="816" y="82.5225096237" type="curve" smooth="yes"/>
			<point x="780" y="-55.4774903763"/>
			<point x="726" y="-87.4774903763"/>
			<point x="682" y="-87.4774903763" type="curve" smooth="yes"/>
			<point x="632" y="-87.4774903763"/>
			<point x="592" y="-63.4774903763"/>
			<point x="549" y="7.5225096237" type="curve" smooth="yes"/>
			<point x="484" y="114.5225096237"/>
			<point x="472" y="236.5225096237"/>
			<point x="437" y="277.5225096237" type="curve" smooth="yes"/>
			<point x="414" y="302.5225096237"/>
			<point x="488" y="307.5225096237"/>
			<point x="463" y="276.5225096237" type="curve" smooth="yes"/>
			<point x="416" y="211.5225096237"/>
			<point x="409" y="108.5225096237"/>
			<point x="357" y="-2.4774903763" type="curve" smooth="yes"/>
			<point x="332" y="-58.4774903763"/>
			<point x="293" y="-89.4774903763"/>
			<point x="253" y="-89.4774903763" type="curve" smooth="yes"/>
			<point x="172" y="-89.4774903763"/>
			<point x="122" y="-29.4774903763"/>
			<point x="84" y="107.5225096237" type="curve" smooth="yes"/>
			<point x="52" y="223.5225096237"/>
			<point x="35" y="284.5225096237"/>
			<point x="12" y="330.5225096237" type="curve" smooth="yes"/>
			<point x="-30" y="405.5225096237"/>
			<point x="16" y="454.5225096237"/>
			<point x="80" y="454.5225096237" type="curve" smooth="yes"/>
			<point x="124" y="454.5225096237"/>
			<point x="148" y="442.5225096237"/>
		</contour>
	</outline>
</glyph>
<glyph name="y" format="2">
	<unicode hex="0079"/>
	<advance width="623"/>
	<outline>
		<contour>
			<point x="235" y="627.5256509419" type="curve" smooth="yes"/>
			<point x="235" y="671.5256509419"/>
			<point x="206" y="715.5256509419"/>
			<point x="116" y="715.5256509419" type="curve" smooth="yes"/>
			<point x="72" y="715.5256509419"/>
			<point x="38" y="686.5256509419"/>
			<point x="38" y="535.5256509419" type="curve" smooth="yes"/>
			<point x="38" y="350.5256509419"/>
			<point x="124" y="270.5256509419"/>
			<point x="266" y="270.5256509419" type="curve" smooth="yes"/>
			<point x="321" y="270.5256509419"/>
			<point x="398" y="292.5256509419"/>
			<point x="454" y="397.5256509419" type="curve" smooth="yes"/>
			<point x="468" y="424.5256509419"/>
			<point x="403" y="447.5256509419"/>
			<point x="403" y="433.5256509419" type="curve" smooth="yes"/>
			<point x="403" y="341.5256509419"/>
			<point x="408" y="291.5256509419"/>
			<point x="408" y="187.5256509419" type="curve" smooth="yes"/>
			<point x="408" y="140.5256509419"/>
			<point x="390" y="108.5256509419"/>
			<point x="323" y="108.5256509419" type="curve" smooth="yes"/>
			<point x="194" y="108.5256509419"/>
			<point x="172" y="148.5256509419"/>
			<point x="121" y="148.5256509419" type="curve" smooth="yes"/>
			<point x="88" y="148.5256509419"/>
			<point x="74" y="131.5256509419"/>
			<point x="74" y="82.5256509419" type="curve" smooth="yes"/>
			<point x="74" y="-3.4743490581"/>
			<point x="140" y="-68.4743490581"/>
			<point x="329" y="-68.4743490581" type="curve" smooth="yes"/>
			<point x="439" y="-68.4743490581"/>
			<point x="575" y="7.5256509419"/>
			<point x="575" y="187.5256509419" type="curve" smooth="yes"/>
			<point x="575" y="378.5256509419"/>
			<point x="535" y="424.5256509419"/>
			<point x="552" y="592.5256509419" type="curve" smooth="yes"/>
			<point x="562" y="689.5256509419"/>
			<point x="479" y="714.5256509419"/>
			<point x="434" y="714.5256509419" type="curve" smooth="yes"/>
			<point x="400" y="714.5256509419"/>
			<point x="389" y="707.5256509419"/>
			<point x="385" y="670.5256509419" type="curve" smooth="yes"/>
			<point x="373" y="543.5256509419"/>
			<point x="326" y="445.5256509419"/>
			<point x="256" y="445.5256509419" type="curve" smooth="yes"/>
			<point x="185" y="445.5256509419"/>
			<point x="235" y="563.5256509419"/>
		</contour>
	</outline>
</glyph>
<glyph name="z" format="2">
	<unicode hex="007A"/>
	<advance width="633"/>
	<outline>
		<contour>
			<point x="92" y="358.4866951813" type="curve" smooth="yes"/>
			<point x="169" y="371.4866951813"/>
			<point x="249" y="378.4866951813"/>
			<point x="325" y="378.4866951813" type="curve" smooth="yes"/>
			<point x="477" y="378.4866951813"/>
			<point x="523" y="303.4866951813"/>
			<point x="523" y="228.4866951813" type="curve" smooth="yes"/>
			<point x="523" y="168.8957860904"/>
			<point x="450" y="55.4866951813"/>
			<point x="203" y="4.4866951813" type="curve"/>
			<point x="255" y="34.4866951813" type="line"/>
			<point x="248" y="19.4866951813"/>
			<point x="248" y="10.4866951813"/>
			<point x="253" y="10.4866951813" type="curve" smooth="yes"/>
			<point x="328" y="10.4866951813"/>
			<point x="389" y="26.4866951813"/>
			<point x="483" y="26.4866951813" type="curve" smooth="yes"/>
			<point x="547" y="26.4866951813"/>
			<point x="584" y="-24.5133048187"/>
			<point x="584" y="-85.5133048187" type="curve" smooth="yes"/>
			<point x="584" y="-121.5133048187"/>
			<point x="565" y="-145.5133048187"/>
			<point x="520" y="-145.5133048187" type="curve" smooth="yes"/>
			<point x="440" y="-145.5133048187"/>
			<point x="318" y="-155.5133048187"/>
			<point x="223" y="-155.5133048187" type="curve" smooth="yes"/>
			<point x="80" y="-155.5133048187"/>
			<point x="44" y="-88.1383048187"/>
			<point x="44" y="-15.5133048187" type="curve" smooth="yes"/>
			<point x="44" y="52.4866951813"/>
			<point x="73" y="80.4866951813"/>
			<point x="106" y="89.4866951813" type="curve" smooth="yes"/>
			<point x="279.102004904" y="139.0890240719"/>
			<point x="330.9287767975" y="185.3442487763"/>
			<point x="359" y="241.4866951813" type="curve"/>
			<point x="401" y="190.4866951813" type="line"/>
			<point x="373" y="204.4866951813"/>
			<point x="360" y="209.4866951813"/>
			<point x="302" y="209.4866951813" type="curve" smooth="yes"/>
			<point x="203" y="209.4866951813"/>
			<point x="150" y="186.4866951813"/>
			<point x="119" y="186.4866951813" type="curve" smooth="yes"/>
			<point x="80" y="186.4866951813"/>
			<point x="40" y="239.4866951813"/>
			<point x="40" y="294.4866951813" type="curve" smooth="yes"/>
			<point x="40" y="327.4866951813"/>
			<point x="51" y="349.4866951813"/>
		</contour>
	</outline>
</glyph>
<glyph name="quoteright" format="2">
	<unicode hex="2019"/>
	<advance width="271"/>
	<image fileName="quoteleft.png" xScale="2.7154088417" yScale="2.7154088417" xOffset="-2596.4273808669" yOffset="-445.4316255776" color="0,0,0,0.31832"/>
	<outline>
		<contour>
			<point x="178" y="648.9702833868" type="curve" smooth="yes"/>
			<point x="144" y="648.9702833868"/>
			<point x="125" y="634.9702833868"/>
			<point x="109" y="598.9702833868" type="curve" smooth="yes"/>
			<point x="77" y="529.9702833868"/>
			<point x="49" y="436.9702833868"/>
			<point x="49" y="368.9702833868" type="curve" smooth="yes"/>
			<point x="49" y="306.9702833868"/>
			<point x="76" y="250.9702833868"/>
			<point x="120" y="250.9702833868" type="curve" smooth="yes"/>
			<point x="159" y="250.9702833868"/>
			<point x="180" y="279.9702833868"/>
			<point x="200" y="320.9702833868" type="curve" smooth="yes"/>
			<point x="221" y="365.9702833868"/>
			<point x="247" y="406.9702833868"/>
			<point x="273" y="478.9702833868" type="curve" smooth="yes"/>
			<point x="284" y="508.9702833868"/>
			<point x="289" y="529.9702833868"/>
			<point x="289" y="552.9702833868" type="curve" smooth="yes"/>
			<point x="289" y="597.9702833868"/>
			<point x="230" y="648.9702833868"/>
		</contour>
	</outline>
</glyph>
<glyph name="B.alt2" format="2">
	<advance width="633"/>
	<outline>
		<contour>
			<point x="254" y="343.2126746113"/>
			<point x="228" y="386.2126746113"/>
			<point x="228" y="529.2126746113" type="curve" smooth="yes"/>
			<point x="228" y="607.2126746113"/>
			<point x="230" y="638.2126746113"/>
			<point x="237" y="717.2126746113" type="curve" smooth="yes"/>
			<point x="242" y="762.2126746113"/>
			<point x="204" y="811.2126746113"/>
			<point x="151" y="811.2126746113" type="curve" smooth="yes"/>
			<point x="127" y="811.2126746113"/>
			<point x="94" y="795.2126746113"/>
			<point x="85" y="761.2126746113" type="curve" smooth="yes"/>
			<point x="61" y="666.2126746113"/>
			<point x="55" y="620.2126746113"/>
			<point x="55" y="513.2126746113" type="curve" smooth="yes"/>
			<point x="55" y="334.2126746113"/>
			<point x="130" y="172.2126746113"/>
			<point x="257" y="172.2126746113" type="curve" smooth="yes"/>
			<point x="383.2517482517" y="172.2126746113"/>
			<point x="563" y="235.2126746113"/>
			<point x="563" y="404.2126746113" type="curve" smooth="yes"/>
			<point x="563" y="471.2126746113"/>
			<point x="515" y="544.2126746113"/>
			<point x="372" y="560.2126746113" type="curve"/>
			<point x="381" y="505.2126746113" type="line"/>
			<point x="555" y="568.2126746113"/>
			<point x="589" y="645.2126746113"/>
			<point x="589" y="707.2126746113" type="curve" smooth="yes"/>
			<point x="589" y="850.2126746113"/>
			<point x="425.3165266106" y="894.2126746113"/>
			<point x="212" y="894.2126746113" type="curve" smooth="yes"/>
			<point x="75.1213872832" y="894.2126746113"/>
			<point x="27" y="850.2126746113"/>
			<point x="27" y="771.2126746113" type="curve" smooth="yes"/>
			<point x="27" y="732.2126746113"/>
			<point x="49" y="706.2126746113"/>
			<point x="91" y="706.2126746113" type="curve" smooth="yes"/>
			<point x="111" y="706.2126746113"/>
			<point x="160" y="710.2126746113"/>
			<point x="206" y="710.2126746113" type="curve" smooth="yes"/>
			<point x="395.6885245902" y="710.2126746113"/>
			<point x="409" y="704.2126746113"/>
			<point x="409" y="683.2126746113" type="curve" smooth="yes"/>
			<point x="409" y="647.2126746113"/>
			<point x="211.9512576" y="590.3416053542"/>
			<point x="159" y="575.2126746113" type="curve" smooth="yes"/>
			<point x="138" y="569.2126746113"/>
			<point x="120" y="541.2126746113"/>
			<point x="120" y="518.2126746113" type="curve" smooth="yes"/>
			<point x="120" y="469.2126746113"/>
			<point x="146" y="434.2126746113"/>
			<point x="183" y="435.2126746113" type="curve" smooth="yes"/>
			<point x="325.571956748" y="438.5283015124"/>
			<point x="393" y="426.2126746113"/>
			<point x="393" y="386.2126746113" type="curve" smooth="yes"/>
			<point x="393" y="375.2126746113"/>
			<point x="303.9813084112" y="343.2126746113"/>
			<point x="266" y="343.2126746113" type="curve" smooth="yes"/>
		</contour>
	</outline>
</glyph>
<glyph name="C.alt2" format="2">
	<advance width="682"/>
	<outline>
		<contour>
			<point x="367" y="150.1199725147" type="curve" smooth="yes"/>
			<point x="545" y="150.1199725147"/>
			<point x="633" y="214.1199725147"/>
			<point x="633" y="308.1199725147" type="curve" smooth="yes"/>
			<point x="633" y="348.1199725147"/>
			<point x="616" y="379.1199725147"/>
			<point x="589" y="379.1199725147" type="curve" smooth="yes"/>
			<point x="556" y="379.1199725147"/>
			<point x="494" y="317.1199725147"/>
			<point x="378" y="317.1199725147" type="curve" smooth="yes"/>
			<point x="279" y="317.1199725147"/>
			<point x="216" y="358.1199725147"/>
			<point x="216" y="434.1199725147" type="curve" smooth="yes"/>
			<point x="216" y="554.1199725147"/>
			<point x="319" y="684.1199725147"/>
			<point x="456" y="684.1199725147" type="curve" smooth="yes"/>
			<point x="482" y="684.1199725147"/>
			<point x="487" y="677.1199725147"/>
			<point x="487" y="660.1199725147" type="curve" smooth="yes"/>
			<point x="487" y="640.1199725147"/>
			<point x="499" y="625.1199725147"/>
			<point x="522" y="625.1199725147" type="curve" smooth="yes"/>
			<point x="587" y="625.1199725147"/>
			<point x="630" y="698.1199725147"/>
			<point x="630" y="769.1199725147" type="curve" smooth="yes"/>
			<point x="630" y="831.1199725147"/>
			<point x="592" y="871.1199725147"/>
			<point x="497" y="871.1199725147" type="curve" smooth="yes"/>
			<point x="260" y="871.1199725147"/>
			<point x="41" y="666.1199725147"/>
			<point x="41" y="449.1199725147" type="curve" smooth="yes"/>
			<point x="41" y="275.1199725147"/>
			<point x="163" y="150.1199725147"/>
		</contour>
	</outline>
</glyph>
<glyph name="E.alt2" format="2">
	<advance width="704"/>
	<outline>
		<contour>
			<point x="96" y="639.4909814216" type="curve" smooth="yes"/>
			<point x="74" y="553.4909814216"/>
			<point x="69" y="469.4909814216"/>
			<point x="69" y="409.4909814216" type="curve" smooth="yes"/>
			<point x="69" y="246.4909814216"/>
			<point x="163" y="109.4909814216"/>
			<point x="362" y="109.4909814216" type="curve" smooth="yes"/>
			<point x="558" y="109.4909814216"/>
			<point x="664" y="161.4909814216"/>
			<point x="664" y="255.4909814216" type="curve" smooth="yes"/>
			<point x="664" y="293.4909814216"/>
			<point x="651" y="317.4909814216"/>
			<point x="601" y="317.4909814216" type="curve" smooth="yes"/>
			<point x="559" y="317.4909814216"/>
			<point x="484" y="284.4909814216"/>
			<point x="362" y="284.4909814216" type="curve" smooth="yes"/>
			<point x="288" y="284.4909814216"/>
			<point x="245" y="338.4909814216"/>
			<point x="245" y="407.4909814216" type="curve" smooth="yes"/>
			<point x="245" y="518.4909814216"/>
			<point x="269" y="616.4909814216"/>
			<point x="269" y="658.4909814216" type="curve" smooth="yes"/>
			<point x="269" y="699.4909814216"/>
			<point x="225" y="722.4909814216"/>
			<point x="200" y="722.4909814216" type="curve" smooth="yes"/>
			<point x="149" y="722.4909814216"/>
			<point x="110" y="693.4909814216"/>
		</contour>
		<contour>
			<point x="202" y="351.4909814216" type="curve" smooth="yes"/>
			<point x="271" y="367.4909814216"/>
			<point x="344" y="380.4909814216"/>
			<point x="478" y="388.4909814216" type="curve" smooth="yes"/>
			<point x="534" y="392.4909814216"/>
			<point x="575" y="428.4909814216"/>
			<point x="575" y="494.4909814216" type="curve" smooth="yes"/>
			<point x="575" y="548.4909814216"/>
			<point x="559" y="560.4909814216"/>
			<point x="489" y="560.4909814216" type="curve" smooth="yes"/>
			<point x="349" y="555.4909814216"/>
			<point x="273" y="541.4909814216"/>
			<point x="208" y="526.4909814216" type="curve" smooth="yes"/>
			<point x="171" y="517.4909814216"/>
			<point x="143" y="480.4909814216"/>
			<point x="143" y="438.4909814216" type="curve" smooth="yes"/>
			<point x="143" y="385.4909814216"/>
			<point x="155" y="341.4909814216"/>
		</contour>
		<contour>
			<point x="181" y="618.4909814216" type="curve" smooth="yes"/>
			<point x="241" y="618.4909814216"/>
			<point x="429" y="661.4909814216"/>
			<point x="626" y="661.4909814216" type="curve" smooth="yes"/>
			<point x="657" y="661.4909814216"/>
			<point x="667" y="684.4909814216"/>
			<point x="667" y="713.4909814216" type="curve" smooth="yes"/>
			<point x="667" y="777.4909814216"/>
			<point x="601" y="828.4909814216"/>
			<point x="490" y="828.4909814216" type="curve" smooth="yes"/>
			<point x="404" y="828.4909814216"/>
			<point x="232" y="814.4909814216"/>
			<point x="91" y="768.4909814216" type="curve" smooth="yes"/>
			<point x="57" y="757.4909814216"/>
			<point x="50" y="738.4909814216"/>
			<point x="50" y="713.4909814216" type="curve" smooth="yes"/>
			<point x="50" y="662.4909814216"/>
			<point x="95" y="618.4909814216"/>
		</contour>
	</outline>
</glyph>
<glyph name="M.alt1" format="2">
	<advance width="1046"/>
	<outline>
		<contour>
			<point x="253" y="384.4553830138" type="curve" smooth="yes"/>
			<point x="257" y="310.4553830138"/>
			<point x="186" y="271.4553830138"/>
			<point x="210" y="361.4553830138" type="curve" smooth="yes"/>
			<point x="242" y="470.4553830138"/>
			<point x="298" y="552.4553830138"/>
			<point x="365" y="552.4553830138" type="curve" smooth="yes"/>
			<point x="442" y="552.4553830138"/>
			<point x="510" y="507.4553830138"/>
			<point x="538" y="259.4553830138" type="curve" smooth="yes"/>
			<point x="547" y="198.4553830138"/>
			<point x="541" y="152.4553830138"/>
			<point x="565" y="71.4553830138" type="curve" smooth="yes"/>
			<point x="577" y="34.4553830138"/>
			<point x="497" y="90.4553830138"/>
			<point x="527" y="146.4553830138" type="curve" smooth="yes"/>
			<point x="549" y="187.4553830138"/>
			<point x="578" y="300.4553830138"/>
			<point x="607" y="394.4553830138" type="curve" smooth="yes"/>
			<point x="633" y="478.4553830138"/>
			<point x="673" y="560.4553830138"/>
			<point x="759" y="560.4553830138" type="curve" smooth="yes"/>
			<point x="840" y="560.4553830138"/>
			<point x="931" y="540.4553830138"/>
			<point x="942" y="313.4553830138" type="curve" smooth="yes"/>
			<point x="946" y="194.4553830138"/>
			<point x="966" y="34.4553830138"/>
			<point x="1003" y="-65.5446169862" type="curve" smooth="yes"/>
			<point x="1019" y="-106.5446169862"/>
			<point x="1011" y="-165.5446169862"/>
			<point x="956" y="-165.5446169862" type="curve" smooth="yes"/>
			<point x="899" y="-165.5446169862"/>
			<point x="843" y="-144.5446169862"/>
			<point x="809" y="-88.5446169862" type="curve" smooth="yes"/>
			<point x="761" y="-13.5446169862"/>
			<point x="763" y="150.4553830138"/>
			<point x="752" y="250.4553830138" type="curve" smooth="yes"/>
			<point x="747" y="305.4553830138"/>
			<point x="738" y="353.4553830138"/>
			<point x="711" y="398.4553830138" type="curve" smooth="yes"/>
			<point x="687" y="434.4553830138"/>
			<point x="825" y="419.4553830138"/>
			<point x="788" y="371.4553830138" type="curve" smooth="yes"/>
			<point x="747" y="319.4553830138"/>
			<point x="698" y="126.4553830138"/>
			<point x="610" y="-112.5446169862" type="curve" smooth="yes"/>
			<point x="596" y="-149.5446169862"/>
			<point x="562" y="-165.5446169862"/>
			<point x="538" y="-165.5446169862" type="curve" smooth="yes"/>
			<point x="518" y="-165.5446169862"/>
			<point x="485" y="-154.5446169862"/>
			<point x="470" y="-133.5446169862" type="curve" smooth="yes"/>
			<point x="428" y="-77.5446169862"/>
			<point x="401" y="24.4553830138"/>
			<point x="387" y="144.4553830138" type="curve" smooth="yes"/>
			<point x="378" y="219.4553830138"/>
			<point x="370" y="260.4553830138"/>
			<point x="347" y="319.4553830138" type="curve" smooth="yes"/>
			<point x="321" y="391.4553830138"/>
			<point x="404" y="387.4553830138"/>
			<point x="355" y="316.4553830138" type="curve" smooth="yes"/>
			<point x="295" y="220.4553830138"/>
			<point x="242" y="62.4553830138"/>
			<point x="242" y="-132.5446169862" type="curve" smooth="yes"/>
			<point x="242" y="-154.5446169862"/>
			<point x="215" y="-168.5446169862"/>
			<point x="191" y="-168.5446169862" type="curve" smooth="yes"/>
			<point x="72" y="-168.5446169862"/>
			<point x="67" y="-18.5446169862"/>
			<point x="67" y="86.4553830138" type="curve" smooth="yes"/>
			<point x="67" y="175.4553830138"/>
			<point x="75" y="263.4553830138"/>
			<point x="75" y="342.4553830138" type="curve" smooth="yes"/>
			<point x="75" y="390.4553830138"/>
			<point x="63" y="437.4553830138"/>
			<point x="63" y="475.4553830138" type="curve" smooth="yes"/>
			<point x="63" y="493.4553830138"/>
			<point x="75" y="515.4553830138"/>
			<point x="109" y="515.4553830138" type="curve" smooth="yes"/>
			<point x="199" y="515.4553830138"/>
			<point x="253" y="444.4553830138"/>
		</contour>
	</outline>
</glyph>
<glyph name="M.alt2" format="2">
	<advance width="1046"/>
	<outline>
		<contour>
			<point x="253" y="716.5197919116" type="curve" smooth="yes"/>
			<point x="257" y="642.5197919116"/>
			<point x="186" y="603.5197919116"/>
			<point x="210" y="693.5197919116" type="curve" smooth="yes"/>
			<point x="242" y="802.5197919116"/>
			<point x="298" y="884.5197919116"/>
			<point x="365" y="884.5197919116" type="curve" smooth="yes"/>
			<point x="442" y="884.5197919116"/>
			<point x="510" y="839.5197919116"/>
			<point x="538" y="591.5197919116" type="curve" smooth="yes"/>
			<point x="547" y="530.5197919116"/>
			<point x="541" y="484.5197919116"/>
			<point x="565" y="403.5197919116" type="curve" smooth="yes"/>
			<point x="577" y="366.5197919116"/>
			<point x="497" y="422.5197919116"/>
			<point x="527" y="478.5197919116" type="curve" smooth="yes"/>
			<point x="549" y="519.5197919116"/>
			<point x="578" y="632.5197919116"/>
			<point x="607" y="726.5197919116" type="curve" smooth="yes"/>
			<point x="633" y="810.5197919116"/>
			<point x="673" y="892.5197919116"/>
			<point x="759" y="892.5197919116" type="curve" smooth="yes"/>
			<point x="840" y="892.5197919116"/>
			<point x="931" y="872.5197919116"/>
			<point x="942" y="645.5197919116" type="curve" smooth="yes"/>
			<point x="946" y="526.5197919116"/>
			<point x="966" y="366.5197919116"/>
			<point x="1003" y="266.5197919116" type="curve" smooth="yes"/>
			<point x="1019" y="225.5197919116"/>
			<point x="1011" y="166.5197919116"/>
			<point x="956" y="166.5197919116" type="curve" smooth="yes"/>
			<point x="899" y="166.5197919116"/>
			<point x="843" y="187.5197919116"/>
			<point x="809" y="243.5197919116" type="curve" smooth="yes"/>
			<point x="761" y="318.5197919116"/>
			<point x="763" y="482.5197919116"/>
			<point x="752" y="582.5197919116" type="curve" smooth="yes"/>
			<point x="747" y="637.5197919116"/>
			<point x="738" y="685.5197919116"/>
			<point x="711" y="730.5197919116" type="curve" smooth="yes"/>
			<point x="687" y="766.5197919116"/>
			<point x="825" y="751.5197919116"/>
			<point x="788" y="703.5197919116" type="curve" smooth="yes"/>
			<point x="747" y="651.5197919116"/>
			<point x="698" y="458.5197919116"/>
			<point x="610" y="219.5197919116" type="curve" smooth="yes"/>
			<point x="596" y="182.5197919116"/>
			<point x="562" y="166.5197919116"/>
			<point x="538" y="166.5197919116" type="curve" smooth="yes"/>
			<point x="518" y="166.5197919116"/>
			<point x="485" y="177.5197919116"/>
			<point x="470" y="198.5197919116" type="curve" smooth="yes"/>
			<point x="428" y="254.5197919116"/>
			<point x="401" y="356.5197919116"/>
			<point x="387" y="476.5197919116" type="curve" smooth="yes"/>
			<point x="378" y="551.5197919116"/>
			<point x="370" y="592.5197919116"/>
			<point x="347" y="651.5197919116" type="curve" smooth="yes"/>
			<point x="321" y="723.5197919116"/>
			<point x="404" y="719.5197919116"/>
			<point x="355" y="648.5197919116" type="curve" smooth="yes"/>
			<point x="295" y="552.5197919116"/>
			<point x="242" y="394.5197919116"/>
			<point x="242" y="199.5197919116" type="curve" smooth="yes"/>
			<point x="242" y="177.5197919116"/>
			<point x="215" y="163.5197919116"/>
			<point x="191" y="163.5197919116" type="curve" smooth="yes"/>
			<point x="72" y="163.5197919116"/>
			<point x="67" y="313.5197919116"/>
			<point x="67" y="418.5197919116" type="curve" smooth="yes"/>
			<point x="67" y="507.5197919116"/>
			<point x="75" y="595.5197919116"/>
			<point x="75" y="674.5197919116" type="curve" smooth="yes"/>
			<point x="75" y="722.5197919116"/>
			<point x="63" y="769.5197919116"/>
			<point x="63" y="807.5197919116" type="curve" smooth="yes"/>
			<point x="63" y="825.5197919116"/>
			<point x="75" y="847.5197919116"/>
			<point x="109" y="847.5197919116" type="curve" smooth="yes"/>
			<point x="199" y="847.5197919116"/>
			<point x="253" y="776.5197919116"/>
		</contour>
	</outline>
</glyph>
<glyph name="N.alt1" format="2">
	<advance width="833"/>
	<outline>
		<contour>
			<point x="147" y="-205.5953380093" type="curve" smooth="yes"/>
			<point x="195" y="-205.5953380093"/>
			<point x="222" y="-183.5953380093"/>
			<point x="232" y="-146.5953380093" type="curve" smooth="yes"/>
			<point x="252" y="-73.5953380093"/>
			<point x="263" y="29.4046619907"/>
			<point x="263" y="154.4046619907" type="curve" smooth="yes"/>
			<point x="263" y="204.4046619907"/>
			<point x="261" y="232.4046619907"/>
			<point x="250" y="300.4046619907" type="curve"/>
			<point x="219" y="294.4046619907" type="line"/>
			<point x="374.3691910075" y="69.3185263003"/>
			<point x="421" y="-204.5953380093"/>
			<point x="597" y="-204.5953380093" type="curve" smooth="yes"/>
			<point x="727" y="-204.5953380093"/>
			<point x="748" y="-95.854879994"/>
			<point x="748" y="54.4046619907" type="curve" smooth="yes"/>
			<point x="748" y="203.4046619907"/>
			<point x="727" y="280.4046619907"/>
			<point x="753" y="409.4046619907" type="curve" smooth="yes"/>
			<point x="761.9643828712" y="452.234491264"/>
			<point x="745.7920792079" y="527.4046619907"/>
			<point x="662" y="527.4046619907" type="curve" smooth="yes"/>
			<point x="624.8387096774" y="527.4046619907"/>
			<point x="600.1069527969" y="506.8217778986"/>
			<point x="590" y="467.4046619907" type="curve" smooth="yes"/>
			<point x="553" y="329.4046619907"/>
			<point x="586" y="200.4046619907"/>
			<point x="586" y="39.4046619907" type="curve" smooth="yes"/>
			<point x="586" y="-48.5953380093"/>
			<point x="549" y="-71.5953380093"/>
			<point x="526" y="-81.5953380093" type="curve"/>
			<point x="625" y="-35.5953380093" type="line"/>
			<point x="495" y="48.4046619907"/>
			<point x="396" y="522.4046619907"/>
			<point x="156" y="522.4046619907" type="curve" smooth="yes"/>
			<point x="104" y="522.4046619907"/>
			<point x="77" y="490.4046619907"/>
			<point x="77" y="450.4046619907" type="curve" smooth="yes"/>
			<point x="77" y="417.4046619907"/>
			<point x="93" y="269.4046619907"/>
			<point x="93" y="154.4046619907" type="curve" smooth="yes"/>
			<point x="93" y="-54.5953380093"/>
			<point x="69" y="-85.5953380093"/>
			<point x="69" y="-141.5953380093" type="curve" smooth="yes"/>
			<point x="69" y="-174.5953380093"/>
			<point x="89" y="-205.5953380093"/>
		</contour>
	</outline>
</glyph>
<glyph name="O.alt1" format="2">
	<advance width="766"/>
	<outline>
		<contour>
			<point x="340" y="289.0266314258" type="curve" smooth="yes"/>
			<point x="246" y="215.0266314258"/>
			<point x="220" y="171.0266314258"/>
			<point x="220" y="98.0266314258" type="curve" smooth="yes"/>
			<point x="220" y="12.0266314258"/>
			<point x="284" y="-27.9733685742"/>
			<point x="367" y="-27.9733685742" type="curve" smooth="yes"/>
			<point x="463" y="-27.9733685742"/>
			<point x="546" y="32.0266314258"/>
			<point x="546" y="108.0266314258" type="curve" smooth="yes"/>
			<point x="546" y="209.0266314258"/>
			<point x="465" y="346.0266314258"/>
			<point x="381" y="346.0266314258" type="curve" smooth="yes"/>
			<point x="372" y="346.0266314258"/>
			<point x="369" y="336.0266314258"/>
			<point x="369" y="322.0266314258" type="curve" smooth="yes"/>
			<point x="369" y="292.0266314258"/>
			<point x="352" y="277.0266314258"/>
			<point x="334" y="277.0266314258" type="curve" smooth="yes"/>
			<point x="280" y="277.0266314258"/>
			<point x="225" y="323.0266314258"/>
			<point x="225" y="414.0266314258" type="curve" smooth="yes"/>
			<point x="225" y="469.0266314258"/>
			<point x="279" y="519.0266314258"/>
			<point x="374" y="519.0266314258" type="curve" smooth="yes"/>
			<point x="564" y="519.0266314258"/>
			<point x="716" y="301.0266314258"/>
			<point x="716" y="108.0266314258" type="curve" smooth="yes"/>
			<point x="716" y="-60.9733685742"/>
			<point x="550" y="-201.9733685742"/>
			<point x="367" y="-201.9733685742" type="curve" smooth="yes"/>
			<point x="195" y="-201.9733685742"/>
			<point x="50" y="-81.9733685742"/>
			<point x="50" y="98.0266314258" type="curve" smooth="yes"/>
			<point x="50" y="296.0266314258"/>
			<point x="235" y="426.0266314258"/>
			<point x="277" y="426.0266314258" type="curve" smooth="yes"/>
			<point x="295" y="426.0266314258"/>
			<point x="328" y="415.0266314258"/>
			<point x="342" y="397.0266314258" type="curve" smooth="yes"/>
			<point x="365" y="367.0266314258"/>
			<point x="370" y="313.0266314258"/>
		</contour>
	</outline>
</glyph>
<glyph name="P.alt1" format="2">
	<advance width="655"/>
	<outline>
		<contour>
			<point x="80" y="-15.6459150214" type="curve" smooth="yes"/>
			<point x="80" y="-120.6459150214"/>
			<point x="128" y="-160.6459150214"/>
			<point x="199" y="-160.6459150214" type="curve" smooth="yes"/>
			<point x="248" y="-160.6459150214"/>
			<point x="258" y="-115.6459150214"/>
			<point x="258" y="-20.6459150214" type="curve" smooth="yes"/>
			<point x="258" y="121.3540849786"/>
			<point x="214" y="215.3540849786"/>
			<point x="214" y="315.3540849786" type="curve" smooth="yes"/>
			<point x="214" y="358.3540849786"/>
			<point x="259" y="382.3540849786"/>
			<point x="348" y="382.3540849786" type="curve" smooth="yes"/>
			<point x="393" y="382.3540849786"/>
			<point x="436" y="365.3540849786"/>
			<point x="436" y="329.3540849786" type="curve" smooth="yes"/>
			<point x="436" y="267.3540849786"/>
			<point x="359" y="197.3540849786"/>
			<point x="284" y="197.3540849786" type="curve" smooth="yes"/>
			<point x="227" y="197.3540849786"/>
			<point x="215" y="215.3540849786"/>
			<point x="190" y="215.3540849786" type="curve" smooth="yes"/>
			<point x="155" y="215.3540849786"/>
			<point x="127" y="193.3540849786"/>
			<point x="127" y="152.3540849786" type="curve" smooth="yes"/>
			<point x="127" y="85.3540849786"/>
			<point x="197" y="22.3540849786"/>
			<point x="291" y="22.3540849786" type="curve" smooth="yes"/>
			<point x="464" y="22.3540849786"/>
			<point x="609" y="180.3540849786"/>
			<point x="609" y="329.3540849786" type="curve" smooth="yes"/>
			<point x="609" y="474.3540849786"/>
			<point x="491" y="557.3540849786"/>
			<point x="347" y="557.3540849786" type="curve" smooth="yes"/>
			<point x="123" y="557.3540849786"/>
			<point x="41" y="461.3540849786"/>
			<point x="41" y="315.3540849786" type="curve" smooth="yes"/>
			<point x="41" y="212.3540849786"/>
			<point x="80" y="160.3540849786"/>
		</contour>
	</outline>
</glyph>
<glyph name="Q.alt2" format="2">
	<advance width="764"/>
	<outline>
		<contour>
			<point x="496" y="432.5860386479" type="curve" smooth="yes"/>
			<point x="524" y="395.5860386479"/>
			<point x="560" y="261.5860386479"/>
			<point x="618" y="188.5860386479" type="curve" smooth="yes"/>
			<point x="673" y="117.5860386479"/>
			<point x="662" y="7.5860386479"/>
			<point x="600" y="7.5860386479" type="curve" smooth="yes"/>
			<point x="568" y="7.5860386479"/>
			<point x="542" y="18.5860386479"/>
			<point x="508" y="56.5860386479" type="curve" smooth="yes"/>
			<point x="446" y="126.5860386479"/>
			<point x="397" y="291.5860386479"/>
			<point x="336" y="375.5860386479" type="curve" smooth="yes"/>
			<point x="292" y="436.5860386479"/>
			<point x="309" y="487.5860386479"/>
			<point x="368" y="487.5860386479" type="curve" smooth="yes"/>
			<point x="438" y="487.5860386479"/>
			<point x="471" y="464.5860386479"/>
		</contour>
		<contour>
			<point x="324" y="685.5860386479" type="curve" smooth="yes"/>
			<point x="249" y="651.5860386479"/>
			<point x="206" y="567.5860386479"/>
			<point x="206" y="488.5860386479" type="curve" smooth="yes"/>
			<point x="206" y="412.5860386479"/>
			<point x="254" y="341.5860386479"/>
			<point x="385" y="341.5860386479" type="curve" smooth="yes"/>
			<point x="489" y="341.5860386479"/>
			<point x="554" y="414.5860386479"/>
			<point x="554" y="490.5860386479" type="curve" smooth="yes"/>
			<point x="554" y="585.5860386479"/>
			<point x="490" y="699.5860386479"/>
			<point x="409" y="699.5860386479" type="curve" smooth="yes"/>
			<point x="364" y="699.5860386479"/>
			<point x="341" y="675.5860386479"/>
			<point x="318" y="630.5860386479" type="curve" smooth="yes"/>
			<point x="302" y="599.5860386479"/>
			<point x="287" y="589.5860386479"/>
			<point x="264" y="589.5860386479" type="curve" smooth="yes"/>
			<point x="210" y="589.5860386479"/>
			<point x="183" y="613.5860386479"/>
			<point x="183" y="672.5860386479" type="curve" smooth="yes"/>
			<point x="183" y="762.5860386479"/>
			<point x="303" y="884.5860386479"/>
			<point x="424" y="884.5860386479" type="curve" smooth="yes"/>
			<point x="589" y="884.5860386479"/>
			<point x="729" y="721.5860386479"/>
			<point x="729" y="502.5860386479" type="curve" smooth="yes"/>
			<point x="729" y="331.5860386479"/>
			<point x="600" y="166.5860386479"/>
			<point x="385" y="166.5860386479" type="curve" smooth="yes"/>
			<point x="128" y="166.5860386479"/>
			<point x="35" y="319.5860386479"/>
			<point x="35" y="488.5860386479" type="curve" smooth="yes"/>
			<point x="35" y="671.5860386479"/>
			<point x="188" y="831.5860386479"/>
			<point x="278" y="831.5860386479" type="curve" smooth="yes"/>
			<point x="317" y="831.5860386479"/>
			<point x="375" y="792.5860386479"/>
			<point x="375" y="749.5860386479" type="curve" smooth="yes"/>
			<point x="375" y="722.5860386479"/>
			<point x="370" y="706.5860386479"/>
		</contour>
	</outline>
</glyph>
<glyph name="S.alt1" format="2">
	<advance width="603"/>
	<outline>
		<contour>
			<point x="262" y="-184.0997063896" type="curve" smooth="yes"/>
			<point x="459" y="-184.0997063896"/>
			<point x="556" y="-129.0997063896"/>
			<point x="556" y="-7.0997063896" type="curve" smooth="yes"/>
			<point x="556" y="186.9002936104"/>
			<point x="226" y="209.9002936104"/>
			<point x="226" y="275.9002936104" type="curve" smooth="yes"/>
			<point x="226" y="305.9002936104"/>
			<point x="331" y="339.9002936104"/>
			<point x="480" y="370.9002936104" type="curve" smooth="yes"/>
			<point x="512" y="376.9002936104"/>
			<point x="534" y="405.9002936104"/>
			<point x="534" y="439.9002936104" type="curve" smooth="yes"/>
			<point x="534" y="488.9002936104"/>
			<point x="510" y="534.9002936104"/>
			<point x="438" y="534.9002936104" type="curve" smooth="yes"/>
			<point x="315" y="534.9002936104"/>
			<point x="47" y="436.9002936104"/>
			<point x="47" y="279.9002936104" type="curve" smooth="yes"/>
			<point x="47" y="81.9002936104"/>
			<point x="342" y="60.9002936104"/>
			<point x="375" y="-3.0997063896" type="curve"/>
			<point x="330" y="-14.0997063896"/>
			<point x="304" y="-17.0997063896"/>
			<point x="241" y="-17.0997063896" type="curve" smooth="yes"/>
			<point x="166" y="-17.0997063896"/>
			<point x="148" y="9.9002936104"/>
			<point x="112" y="9.9002936104" type="curve" smooth="yes"/>
			<point x="70" y="9.9002936104"/>
			<point x="60" y="-11.0997063896"/>
			<point x="60" y="-46.0997063896" type="curve" smooth="yes"/>
			<point x="60" y="-116.0997063896"/>
			<point x="131" y="-184.0997063896"/>
		</contour>
	</outline>
</glyph>
<glyph name="T.alt1" format="2">
	<advance width="645"/>
	<outline>
		<contour>
			<point x="227" y="497.5864826957" type="curve" smooth="yes"/>
			<point x="203" y="215.5864826957"/>
			<point x="200" y="124.5864826957"/>
			<point x="229" y="14.5864826957" type="curve" smooth="yes"/>
			<point x="252" y="-61.4135173043"/>
			<point x="297" y="-83.4135173043"/>
			<point x="350" y="-83.4135173043" type="curve" smooth="yes"/>
			<point x="391" y="-83.4135173043"/>
			<point x="412" y="-66.4135173043"/>
			<point x="412" y="-17.4135173043" type="curve" smooth="yes"/>
			<point x="412" y="21.5864826957"/>
			<point x="382" y="96.5864826957"/>
			<point x="404" y="443.5864826957" type="curve" smooth="yes"/>
			<point x="409" y="531.5864826957"/>
			<point x="382" y="569.5864826957"/>
			<point x="299" y="569.5864826957" type="curve" smooth="yes"/>
			<point x="258" y="569.5864826957"/>
			<point x="230" y="539.5864826957"/>
		</contour>
		<contour>
			<point x="133" y="472.5864826957" type="curve" smooth="yes"/>
			<point x="244" y="461.5864826957"/>
			<point x="348" y="461.5864826957"/>
			<point x="484" y="461.5864826957" type="curve" smooth="yes"/>
			<point x="552" y="461.5864826957"/>
			<point x="623" y="495.5864826957"/>
			<point x="623" y="578.5864826957" type="curve" smooth="yes"/>
			<point x="623" y="615.5864826957"/>
			<point x="603" y="640.5864826957"/>
			<point x="561" y="640.5864826957" type="curve" smooth="yes"/>
			<point x="478" y="640.5864826957"/>
			<point x="429" y="629.5864826957"/>
			<point x="365" y="629.5864826957" type="curve" smooth="yes"/>
			<point x="273" y="629.5864826957"/>
			<point x="188" y="639.5864826957"/>
			<point x="75" y="639.5864826957" type="curve" smooth="yes"/>
			<point x="37" y="639.5864826957"/>
			<point x="22" y="612.5864826957"/>
			<point x="22" y="580.5864826957" type="curve" smooth="yes"/>
			<point x="22" y="514.5864826957"/>
			<point x="49" y="480.5864826957"/>
		</contour>
	</outline>
</glyph>
<glyph name="T.alt2" format="2">
	<advance width="645"/>
	<outline>
		<contour>
			<point x="227" y="632.391854238" type="curve" smooth="yes"/>
			<point x="203" y="350.391854238"/>
			<point x="200" y="259.391854238"/>
			<point x="229" y="149.391854238" type="curve" smooth="yes"/>
			<point x="252" y="73.391854238"/>
			<point x="297" y="51.391854238"/>
			<point x="350" y="51.391854238" type="curve" smooth="yes"/>
			<point x="391" y="51.391854238"/>
			<point x="412" y="68.391854238"/>
			<point x="412" y="117.391854238" type="curve" smooth="yes"/>
			<point x="412" y="156.391854238"/>
			<point x="382" y="231.391854238"/>
			<point x="404" y="578.391854238" type="curve" smooth="yes"/>
			<point x="409" y="666.391854238"/>
			<point x="382" y="704.391854238"/>
			<point x="299" y="704.391854238" type="curve" smooth="yes"/>
			<point x="258" y="704.391854238"/>
			<point x="230" y="674.391854238"/>
		</contour>
		<contour>
			<point x="133" y="607.391854238" type="curve" smooth="yes"/>
			<point x="244" y="596.391854238"/>
			<point x="348" y="596.391854238"/>
			<point x="484" y="596.391854238" type="curve" smooth="yes"/>
			<point x="552" y="596.391854238"/>
			<point x="623" y="630.391854238"/>
			<point x="623" y="713.391854238" type="curve" smooth="yes"/>
			<point x="623" y="750.391854238"/>
			<point x="603" y="775.391854238"/>
			<point x="561" y="775.391854238" type="curve" smooth="yes"/>
			<point x="478" y="775.391854238"/>
			<point x="429" y="764.391854238"/>
			<point x="365" y="764.391854238" type="curve" smooth="yes"/>
			<point x="273" y="764.391854238"/>
			<point x="188" y="774.391854238"/>
			<point x="75" y="774.391854238" type="curve" smooth="yes"/>
			<point x="37" y="774.391854238"/>
			<point x="22" y="747.391854238"/>
			<point x="22" y="715.391854238" type="curve" smooth="yes"/>
			<point x="22" y="649.391854238"/>
			<point x="49" y="615.391854238"/>
		</contour>
	</outline>
</glyph>
<glyph name="U.alt1" format="2">
	<advance width="679"/>
	<outline>
		<contour>
			<point x="360" y="-147.1400740283" type="curve" smooth="yes"/>
			<point x="552" y="-147.1400740283"/>
			<point x="638" y="-20.1400740283"/>
			<point x="638" y="163.8599259717" type="curve" smooth="yes"/>
			<point x="638" y="247.8599259717"/>
			<point x="629" y="313.8599259717"/>
			<point x="629" y="385.8599259717" type="curve" smooth="yes"/>
			<point x="629" y="425.8599259717"/>
			<point x="638" y="490.8599259717"/>
			<point x="638" y="503.8599259717" type="curve" smooth="yes"/>
			<point x="638" y="544.8599259717"/>
			<point x="597" y="577.8599259717"/>
			<point x="557" y="577.8599259717" type="curve" smooth="yes"/>
			<point x="495" y="577.8599259717"/>
			<point x="451" y="540.8599259717"/>
			<point x="451" y="480.8599259717" type="curve" smooth="yes"/>
			<point x="451" y="363.8599259717"/>
			<point x="459" y="294.8599259717"/>
			<point x="459" y="170.8599259717" type="curve" smooth="yes"/>
			<point x="459" y="63.8599259717"/>
			<point x="423" y="30.8599259717"/>
			<point x="353" y="30.8599259717" type="curve" smooth="yes"/>
			<point x="274" y="30.8599259717"/>
			<point x="239" y="59.8599259717"/>
			<point x="239" y="197.8599259717" type="curve" smooth="yes"/>
			<point x="239" y="260.8599259717"/>
			<point x="248" y="348.8599259717"/>
			<point x="248" y="409.8599259717" type="curve" smooth="yes"/>
			<point x="248" y="545.8599259717"/>
			<point x="196" y="581.8599259717"/>
			<point x="128" y="581.8599259717" type="curve" smooth="yes"/>
			<point x="95" y="581.8599259717"/>
			<point x="41" y="571.8599259717"/>
			<point x="41" y="535.8599259717" type="curve" smooth="yes"/>
			<point x="41" y="478.8599259717"/>
			<point x="60" y="465.8599259717"/>
			<point x="60" y="354.8599259717" type="curve" smooth="yes"/>
			<point x="60" y="317.8599259717"/>
			<point x="55" y="262.8599259717"/>
			<point x="55" y="207.8599259717" type="curve" smooth="yes"/>
			<point x="55" y="-5.1400740283"/>
			<point x="143" y="-147.1400740283"/>
		</contour>
	</outline>
</glyph>
<glyph name="W.alt2" format="2">
	<advance width="1005"/>
	<outline>
		<contour>
			<point x="230" y="698.9793501194" type="curve" smooth="yes"/>
			<point x="227" y="748.9793501194"/>
			<point x="180" y="791.9793501194"/>
			<point x="93" y="791.9793501194" type="curve" smooth="yes"/>
			<point x="48" y="791.9793501194"/>
			<point x="31" y="755.9793501194"/>
			<point x="34" y="710.9793501194" type="curve" smooth="yes"/>
			<point x="46" y="529.9793501194"/>
			<point x="96" y="334.9793501194"/>
			<point x="163" y="163.9793501194" type="curve" smooth="yes"/>
			<point x="195" y="82.9793501194"/>
			<point x="236" y="71.9793501194"/>
			<point x="263" y="71.9793501194" type="curve" smooth="yes"/>
			<point x="306" y="71.9793501194"/>
			<point x="327" y="92.9793501194"/>
			<point x="341" y="138.9793501194" type="curve" smooth="yes"/>
			<point x="392" y="301.9793501194"/>
			<point x="448" y="431.9793501194"/>
			<point x="524" y="520.9793501194" type="curve" smooth="yes"/>
			<point x="546" y="545.9793501194"/>
			<point x="443" y="570.9793501194"/>
			<point x="466" y="539.9793501194" type="curve" smooth="yes"/>
			<point x="530" y="454.9793501194"/>
			<point x="563" y="245.9793501194"/>
			<point x="648" y="138.9793501194" type="curve" smooth="yes"/>
			<point x="687" y="89.9793501194"/>
			<point x="719" y="67.9793501194"/>
			<point x="772" y="67.9793501194" type="curve" smooth="yes"/>
			<point x="797" y="67.9793501194"/>
			<point x="823" y="78.9793501194"/>
			<point x="841" y="121.9793501194" type="curve" smooth="yes"/>
			<point x="902" y="272.9793501194"/>
			<point x="918" y="494.9793501194"/>
			<point x="960" y="638.9793501194" type="curve" smooth="yes"/>
			<point x="978" y="701.9793501194"/>
			<point x="962" y="791.9793501194"/>
			<point x="859" y="791.9793501194" type="curve" smooth="yes"/>
			<point x="831" y="791.9793501194"/>
			<point x="808" y="782.9793501194"/>
			<point x="792" y="750.9793501194" type="curve" smooth="yes"/>
			<point x="765" y="700.9793501194"/>
			<point x="743" y="446.9793501194"/>
			<point x="701" y="321.9793501194" type="curve" smooth="yes"/>
			<point x="677" y="248.9793501194"/>
			<point x="834" y="222.9793501194"/>
			<point x="786" y="286.9793501194" type="curve" smooth="yes"/>
			<point x="698" y="415.9793501194"/>
			<point x="663" y="616.9793501194"/>
			<point x="625" y="673.9793501194" type="curve" smooth="yes"/>
			<point x="598" y="714.9793501194"/>
			<point x="572" y="731.9793501194"/>
			<point x="517" y="731.9793501194" type="curve" smooth="yes"/>
			<point x="475" y="731.9793501194"/>
			<point x="442" y="710.9793501194"/>
			<point x="408" y="669.9793501194" type="curve" smooth="yes"/>
			<point x="342" y="588.9793501194"/>
			<point x="281" y="486.9793501194"/>
			<point x="219" y="307.9793501194" type="curve" smooth="yes"/>
			<point x="204" y="265.9793501194"/>
			<point x="320" y="258.9793501194"/>
			<point x="275" y="396.9793501194" type="curve" smooth="yes"/>
			<point x="247" y="491.9793501194"/>
			<point x="239" y="566.9793501194"/>
		</contour>
	</outline>
</glyph>
<glyph name="a.alt2" format="2">
	<advance width="704"/>
	<outline>
		<contour>
			<point x="362" y="513.5776027787" type="curve" smooth="yes"/>
			<point x="367" y="547.5776027787"/>
			<point x="399" y="567.5776027787"/>
			<point x="432" y="567.5776027787" type="curve" smooth="yes"/>
			<point x="489" y="567.5776027787"/>
			<point x="533" y="534.5776027787"/>
			<point x="550" y="493.5776027787" type="curve" smooth="yes"/>
			<point x="590" y="406.5776027787"/>
			<point x="606" y="344.5776027787"/>
			<point x="677" y="268.5776027787" type="curve" smooth="yes"/>
			<point x="716" y="226.5776027787"/>
			<point x="678" y="114.5776027787"/>
			<point x="602" y="114.5776027787" type="curve" smooth="yes"/>
			<point x="577" y="114.5776027787"/>
			<point x="561" y="125.5776027787"/>
			<point x="551" y="137.5776027787" type="curve" smooth="yes"/>
			<point x="493" y="208.5776027787"/>
			<point x="462" y="262.5776027787"/>
			<point x="423" y="370.5776027787" type="curve"/>
			<point x="483" y="376.5776027787" type="line"/>
			<point x="423" y="173.5776027787"/>
			<point x="315" y="111.5776027787"/>
			<point x="207" y="111.5776027787" type="curve" smooth="yes"/>
			<point x="99" y="111.5776027787"/>
			<point x="25" y="172.5776027787"/>
			<point x="25" y="264.5776027787" type="curve" smooth="yes"/>
			<point x="25" y="439.5776027787"/>
			<point x="186" y="647.5776027787"/>
			<point x="337" y="647.5776027787" type="curve" smooth="yes"/>
			<point x="393" y="647.5776027787"/>
			<point x="437" y="609.5776027787"/>
			<point x="437" y="541.5776027787" type="curve" smooth="yes"/>
			<point x="437" y="518.5776027787"/>
			<point x="422" y="506.5776027787"/>
			<point x="405" y="502.5776027787" type="curve" smooth="yes"/>
			<point x="281" y="479.5776027787"/>
			<point x="192" y="363.5776027787"/>
			<point x="192" y="248.5776027787" type="curve" smooth="yes"/>
			<point x="192" y="229.5776027787"/>
			<point x="194" y="216.5776027787"/>
			<point x="201" y="194.5776027787" type="curve"/>
			<point x="127" y="308.5776027787" type="line"/>
			<point x="160" y="285.5776027787"/>
			<point x="182" y="279.5776027787"/>
			<point x="214" y="279.5776027787" type="curve" smooth="yes"/>
			<point x="276" y="279.5776027787"/>
			<point x="339" y="359.5776027787"/>
		</contour>
	</outline>
</glyph>
<glyph name="at.case.alt1" format="2">
	<advance width="924"/>
	<outline>
		<contour>
			<point x="534" y="271.7584370769" type="curve" smooth="yes"/>
			<point x="493" y="258.7584370769"/>
			<point x="454" y="220.7584370769"/>
			<point x="454" y="186.7584370769" type="curve" smooth="yes"/>
			<point x="454" y="168.7584370769"/>
			<point x="461" y="152.7584370769"/>
			<point x="475" y="140.7584370769" type="curve"/>
			<point x="353" y="239.7584370769" type="line"/>
			<point x="376" y="225.7584370769"/>
			<point x="393" y="222.7584370769"/>
			<point x="411" y="222.7584370769" type="curve" smooth="yes"/>
			<point x="427" y="222.7584370769"/>
			<point x="435" y="235.7584370769"/>
			<point x="459" y="263.7584370769" type="curve" smooth="yes"/>
			<point x="489" y="300.7584370769"/>
			<point x="523" y="325.7584370769"/>
			<point x="575" y="325.7584370769" type="curve" smooth="yes"/>
			<point x="610" y="325.7584370769"/>
			<point x="641" y="312.7584370769"/>
			<point x="663" y="280.7584370769" type="curve" smooth="yes"/>
			<point x="694" y="234.7584370769"/>
			<point x="704" y="234.7584370769"/>
			<point x="712" y="234.7584370769" type="curve"/>
			<point x="717" y="234.7584370769"/>
			<point x="720" y="242.7584370769"/>
			<point x="720" y="248.7584370769" type="curve" smooth="yes"/>
			<point x="720" y="353.7584370769"/>
			<point x="635" y="523.7584370769"/>
			<point x="515" y="523.7584370769" type="curve" smooth="yes"/>
			<point x="354" y="523.7584370769"/>
			<point x="204" y="377.7584370769"/>
			<point x="204" y="228.7584370769" type="curve" smooth="yes"/>
			<point x="204" y="59.7584370769"/>
			<point x="358" y="-24.2415629231"/>
			<point x="515" y="-24.2415629231" type="curve" smooth="yes"/>
			<point x="653" y="-24.2415629231"/>
			<point x="709" y="13.7584370769"/>
			<point x="749" y="13.7584370769" type="curve" smooth="yes"/>
			<point x="802" y="13.7584370769"/>
			<point x="833" y="-25.2415629231"/>
			<point x="833" y="-71.2415629231" type="curve" smooth="yes"/>
			<point x="833" y="-105.2415629231"/>
			<point x="813" y="-137.2415629231"/>
			<point x="775" y="-152.2415629231" type="curve" smooth="yes"/>
			<point x="705" y="-179.2415629231"/>
			<point x="636" y="-193.2415629231"/>
			<point x="515" y="-193.2415629231" type="curve" smooth="yes"/>
			<point x="254" y="-193.2415629231"/>
			<point x="35" y="-32.2415629231"/>
			<point x="35" y="228.7584370769" type="curve" smooth="yes"/>
			<point x="35" y="457.7584370769"/>
			<point x="262" y="693.7584370769"/>
			<point x="515" y="693.7584370769" type="curve" smooth="yes"/>
			<point x="761" y="693.7584370769"/>
			<point x="889" y="405.7584370769"/>
			<point x="889" y="248.7584370769" type="curve" smooth="yes"/>
			<point x="889" y="127.7584370769"/>
			<point x="817" y="65.7584370769"/>
			<point x="733" y="65.7584370769" type="curve" smooth="yes"/>
			<point x="683" y="65.7584370769"/>
			<point x="615" y="75.7584370769"/>
			<point x="539" y="184.7584370769" type="curve"/>
			<point x="592" y="181.7584370769" type="line"/>
			<point x="559" y="112.7584370769"/>
			<point x="511" y="72.7584370769"/>
			<point x="433" y="72.7584370769" type="curve" smooth="yes"/>
			<point x="352" y="72.7584370769"/>
			<point x="300" y="112.7584370769"/>
			<point x="300" y="208.7584370769" type="curve" smooth="yes"/>
			<point x="300" y="323.7584370769"/>
			<point x="427" y="436.7584370769"/>
			<point x="504" y="436.7584370769" type="curve" smooth="yes"/>
			<point x="560" y="436.7584370769"/>
			<point x="589" y="399.7584370769"/>
			<point x="589" y="352.7584370769" type="curve" smooth="yes"/>
			<point x="589" y="317.7584370769"/>
			<point x="568" y="283.7584370769"/>
		</contour>
	</outline>
</glyph>
<glyph name="at.case.alt2" format="2">
	<advance width="924"/>
	<outline>
		<contour>
			<point x="534" y="474.8864962634" type="curve" smooth="yes"/>
			<point x="493" y="461.8864962634"/>
			<point x="454" y="423.8864962634"/>
			<point x="454" y="389.8864962634" type="curve" smooth="yes"/>
			<point x="454" y="371.8864962634"/>
			<point x="461" y="355.8864962634"/>
			<point x="475" y="343.8864962634" type="curve"/>
			<point x="353" y="442.8864962634" type="line"/>
			<point x="376" y="428.8864962634"/>
			<point x="393" y="425.8864962634"/>
			<point x="411" y="425.8864962634" type="curve" smooth="yes"/>
			<point x="427" y="425.8864962634"/>
			<point x="435" y="438.8864962634"/>
			<point x="459" y="466.8864962634" type="curve" smooth="yes"/>
			<point x="489" y="503.8864962634"/>
			<point x="523" y="528.8864962634"/>
			<point x="575" y="528.8864962634" type="curve" smooth="yes"/>
			<point x="610" y="528.8864962634"/>
			<point x="641" y="515.8864962634"/>
			<point x="663" y="483.8864962634" type="curve" smooth="yes"/>
			<point x="694" y="437.8864962634"/>
			<point x="704" y="437.8864962634"/>
			<point x="712" y="437.8864962634" type="curve"/>
			<point x="717" y="437.8864962634"/>
			<point x="720" y="445.8864962634"/>
			<point x="720" y="451.8864962634" type="curve" smooth="yes"/>
			<point x="720" y="556.8864962634"/>
			<point x="635" y="726.8864962634"/>
			<point x="515" y="726.8864962634" type="curve" smooth="yes"/>
			<point x="354" y="726.8864962634"/>
			<point x="204" y="580.8864962634"/>
			<point x="204" y="431.8864962634" type="curve" smooth="yes"/>
			<point x="204" y="262.8864962634"/>
			<point x="358" y="178.8864962634"/>
			<point x="515" y="178.8864962634" type="curve" smooth="yes"/>
			<point x="653" y="178.8864962634"/>
			<point x="709" y="216.8864962634"/>
			<point x="749" y="216.8864962634" type="curve" smooth="yes"/>
			<point x="802" y="216.8864962634"/>
			<point x="833" y="177.8864962634"/>
			<point x="833" y="131.8864962634" type="curve" smooth="yes"/>
			<point x="833" y="97.8864962634"/>
			<point x="813" y="65.8864962634"/>
			<point x="775" y="50.8864962634" type="curve" smooth="yes"/>
			<point x="705" y="23.8864962634"/>
			<point x="636" y="9.8864962634"/>
			<point x="515" y="9.8864962634" type="curve" smooth="yes"/>
			<point x="254" y="9.8864962634"/>
			<point x="35" y="170.8864962634"/>
			<point x="35" y="431.8864962634" type="curve" smooth="yes"/>
			<point x="35" y="660.8864962634"/>
			<point x="262" y="896.8864962634"/>
			<point x="515" y="896.8864962634" type="curve" smooth="yes"/>
			<point x="761" y="896.8864962634"/>
			<point x="889" y="608.8864962634"/>
			<point x="889" y="451.8864962634" type="curve" smooth="yes"/>
			<point x="889" y="330.8864962634"/>
			<point x="817" y="268.8864962634"/>
			<point x="733" y="268.8864962634" type="curve" smooth="yes"/>
			<point x="683" y="268.8864962634"/>
			<point x="615" y="278.8864962634"/>
			<point x="539" y="387.8864962634" type="curve"/>
			<point x="592" y="384.8864962634" type="line"/>
			<point x="559" y="315.8864962634"/>
			<point x="511" y="275.8864962634"/>
			<point x="433" y="275.8864962634" type="curve" smooth="yes"/>
			<point x="352" y="275.8864962634"/>
			<point x="300" y="315.8864962634"/>
			<point x="300" y="411.8864962634" type="curve" smooth="yes"/>
			<point x="300" y="526.8864962634"/>
			<point x="427" y="639.8864962634"/>
			<point x="504" y="639.8864962634" type="curve" smooth="yes"/>
			<point x="560" y="639.8864962634"/>
			<point x="589" y="602.8864962634"/>
			<point x="589" y="555.8864962634" type="curve" smooth="yes"/>
			<point x="589" y="520.8864962634"/>
			<point x="568" y="486.8864962634"/>
		</contour>
	</outline>
</glyph>
<glyph name="bracketleft.alt2" format="2">
	<advance width="553"/>
	<outline>
		<contour>
			<point x="432" y="693.7692512716"/>
			<point x="422" y="695.7692512716"/>
			<point x="409" y="695.7692512716" type="curve" smooth="yes"/>
			<point x="347" y="695.7692512716"/>
			<point x="240" y="669.7692512716"/>
			<point x="185" y="669.7692512716" type="curve"/>
			<point x="270" y="741.7692512716" type="line"/>
			<point x="248" y="624.7692512716"/>
			<point x="269" y="383.7692512716"/>
			<point x="263" y="288.7692512716" type="curve" smooth="yes"/>
			<point x="259" y="202.7692512716"/>
			<point x="224" y="10.7692512716"/>
			<point x="284" y="-82.2307487284" type="curve"/>
			<point x="189" y="-55.2307487284" type="line"/>
			<point x="254" y="-43.2307487284"/>
			<point x="295" y="-38.2307487284"/>
			<point x="355" y="-38.2307487284" type="curve" smooth="yes"/>
			<point x="396" y="-38.2307487284"/>
			<point x="431" y="-35.2307487284"/>
			<point x="464" y="-35.2307487284" type="curve" smooth="yes"/>
			<point x="505" y="-35.2307487284"/>
			<point x="533" y="-62.2307487284"/>
			<point x="533" y="-102.2307487284" type="curve" smooth="yes"/>
			<point x="533" y="-167.2307487284"/>
			<point x="493" y="-206.2307487284"/>
			<point x="411" y="-206.2307487284" type="curve" smooth="yes"/>
			<point x="364" y="-206.2307487284"/>
			<point x="328" y="-207.2307487284"/>
			<point x="293" y="-211.2307487284" type="curve" smooth="yes"/>
			<point x="259" y="-214.2307487284"/>
			<point x="235" y="-219.2307487284"/>
			<point x="211" y="-219.2307487284" type="curve" smooth="yes"/>
			<point x="182" y="-219.2307487284"/>
			<point x="151" y="-203.2307487284"/>
			<point x="136" y="-178.2307487284" type="curve" smooth="yes"/>
			<point x="60" y="-59.2307487284"/>
			<point x="81" y="184.7692512716"/>
			<point x="87" y="298.7692512716" type="curve" smooth="yes"/>
			<point x="93" y="399.7692512716"/>
			<point x="74" y="650.7692512716"/>
			<point x="96" y="773.7692512716" type="curve" smooth="yes"/>
			<point x="104" y="815.7692512716"/>
			<point x="141" y="845.7692512716"/>
			<point x="184" y="845.7692512716" type="curve" smooth="yes"/>
			<point x="282" y="845.7692512716"/>
			<point x="375" y="869.7692512716"/>
			<point x="454" y="869.7692512716" type="curve" smooth="yes"/>
			<point x="506" y="869.7692512716"/>
			<point x="531" y="838.7692512716"/>
			<point x="531" y="800.7692512716" type="curve" smooth="yes"/>
			<point x="531" y="756.7692512716"/>
			<point x="505" y="693.7692512716"/>
			<point x="442" y="693.7692512716" type="curve" smooth="yes"/>
		</contour>
	</outline>
</glyph>
<glyph name="c.alt1" format="2">
	<advance width="552"/>
	<outline>
		<contour>
			<point x="494" y="-14.4388735594" type="curve" smooth="yes"/>
			<point x="494" y="43.5611264406"/>
			<point x="477" y="65.5611264406"/>
			<point x="441" y="65.5611264406" type="curve" smooth="yes"/>
			<point x="387" y="65.5611264406"/>
			<point x="396" y="3.5611264406"/>
			<point x="287" y="3.5611264406" type="curve" smooth="yes"/>
			<point x="209" y="3.5611264406"/>
			<point x="198" y="26.5611264406"/>
			<point x="198" y="53.5611264406" type="curve" smooth="yes"/>
			<point x="198" y="121.5611264406"/>
			<point x="267" y="190.5611264406"/>
			<point x="361" y="190.5611264406" type="curve" smooth="yes"/>
			<point x="391" y="190.5611264406"/>
			<point x="392" y="161.5611264406"/>
			<point x="413" y="161.5611264406" type="curve" smooth="yes"/>
			<point x="459" y="161.5611264406"/>
			<point x="483" y="205.5611264406"/>
			<point x="483" y="261.5611264406" type="curve" smooth="yes"/>
			<point x="483" y="343.5611264406"/>
			<point x="427" y="362.5611264406"/>
			<point x="371" y="362.5611264406" type="curve" smooth="yes"/>
			<point x="185" y="362.5611264406"/>
			<point x="26" y="227.5611264406"/>
			<point x="26" y="57.5611264406" type="curve" smooth="yes"/>
			<point x="26" y="-76.4388735594"/>
			<point x="119" y="-171.4388735594"/>
			<point x="296" y="-171.4388735594" type="curve" smooth="yes"/>
			<point x="411" y="-171.4388735594"/>
			<point x="494" y="-113.4388735594"/>
		</contour>
	</outline>
</glyph>
<glyph name="c.alt2" format="2">
	<advance width="552"/>
	<outline>
		<contour>
			<point x="494" y="288.1953612118" type="curve" smooth="yes"/>
			<point x="494" y="346.1953612118"/>
			<point x="477" y="368.1953612118"/>
			<point x="441" y="368.1953612118" type="curve" smooth="yes"/>
			<point x="387" y="368.1953612118"/>
			<point x="396" y="306.1953612118"/>
			<point x="287" y="306.1953612118" type="curve" smooth="yes"/>
			<point x="209" y="306.1953612118"/>
			<point x="198" y="329.1953612118"/>
			<point x="198" y="356.1953612118" type="curve" smooth="yes"/>
			<point x="198" y="424.1953612118"/>
			<point x="267" y="493.1953612118"/>
			<point x="361" y="493.1953612118" type="curve" smooth="yes"/>
			<point x="391" y="493.1953612118"/>
			<point x="392" y="464.1953612118"/>
			<point x="413" y="464.1953612118" type="curve" smooth="yes"/>
			<point x="459" y="464.1953612118"/>
			<point x="483" y="508.1953612118"/>
			<point x="483" y="564.1953612118" type="curve" smooth="yes"/>
			<point x="483" y="646.1953612118"/>
			<point x="427" y="665.1953612118"/>
			<point x="371" y="665.1953612118" type="curve" smooth="yes"/>
			<point x="185" y="665.1953612118"/>
			<point x="26" y="530.1953612118"/>
			<point x="26" y="360.1953612118" type="curve" smooth="yes"/>
			<point x="26" y="226.1953612118"/>
			<point x="119" y="131.1953612118"/>
			<point x="296" y="131.1953612118" type="curve" smooth="yes"/>
			<point x="411" y="131.1953612118"/>
			<point x="494" y="189.1953612118"/>
		</contour>
	</outline>
</glyph>
<glyph name="ellipsis.alt1" format="2">
	<advance width="921"/>
	<outline>
		<contour>
			<point x="183" y="-159.7048399487" type="curve" smooth="yes"/>
			<point x="247" y="-159.7048399487"/>
			<point x="280" y="-125.7048399487"/>
			<point x="280" y="-86.7048399487" type="curve" smooth="yes"/>
			<point x="280" y="-15.7048399487"/>
			<point x="239" y="53.2951600513"/>
			<point x="135" y="53.2951600513" type="curve" smooth="yes"/>
			<point x="83" y="53.2951600513"/>
			<point x="41" y="19.2951600513"/>
			<point x="41" y="-42.7048399487" type="curve" smooth="yes"/>
			<point x="41" y="-121.7048399487"/>
			<point x="89" y="-159.7048399487"/>
		</contour>
		<contour>
			<point x="483" y="-159.7048399487" type="curve" smooth="yes"/>
			<point x="547" y="-159.7048399487"/>
			<point x="580" y="-125.7048399487"/>
			<point x="580" y="-86.7048399487" type="curve" smooth="yes"/>
			<point x="580" y="-15.7048399487"/>
			<point x="539" y="53.2951600513"/>
			<point x="435" y="53.2951600513" type="curve" smooth="yes"/>
			<point x="383" y="53.2951600513"/>
			<point x="341" y="19.2951600513"/>
			<point x="341" y="-42.7048399487" type="curve" smooth="yes"/>
			<point x="341" y="-121.7048399487"/>
			<point x="389" y="-159.7048399487"/>
		</contour>
		<contour>
			<point x="783" y="-159.7048399487" type="curve" smooth="yes"/>
			<point x="847" y="-159.7048399487"/>
			<point x="880" y="-125.7048399487"/>
			<point x="880" y="-86.7048399487" type="curve" smooth="yes"/>
			<point x="880" y="-15.7048399487"/>
			<point x="839" y="53.2951600513"/>
			<point x="735" y="53.2951600513" type="curve" smooth="yes"/>
			<point x="683" y="53.2951600513"/>
			<point x="641" y="19.2951600513"/>
			<point x="641" y="-42.7048399487" type="curve" smooth="yes"/>
			<point x="641" y="-121.7048399487"/>
			<point x="689" y="-159.7048399487"/>
		</contour>
	</outline>
</glyph>
<glyph name="endash.alt1" format="2">
	<advance width="700"/>
	<outline>
		<contour>
			<point x="206" y="54.3772237929" type="curve" smooth="yes"/>
			<point x="262.7638888889" y="54.3772237929"/>
			<point x="355.0172413793" y="64.3772237929"/>
			<point x="608" y="64.3772237929" type="curve" smooth="yes"/>
			<point x="639" y="64.3772237929"/>
			<point x="657" y="85.3772237929"/>
			<point x="657" y="118.3772237929" type="curve" smooth="yes"/>
			<point x="657" y="158.6249302149"/>
			<point x="614" y="225.3772237929"/>
			<point x="495" y="225.3772237929" type="curve" smooth="yes"/>
			<point x="355" y="225.3772237929"/>
			<point x="220.8176325226" y="220.3531614174"/>
			<point x="77" y="201.3772237929" type="curve" smooth="yes"/>
			<point x="46.2890288795" y="197.1412277763"/>
			<point x="41" y="177.8772237929"/>
			<point x="41" y="154.3772237929" type="curve" smooth="yes"/>
			<point x="41" y="105.8335344725"/>
			<point x="99.7116564417" y="54.3772237929"/>
		</contour>
	</outline>
</glyph>
<glyph name="exclam.alt1" format="2">
	<advance width="337"/>
	<outline>
		<contour>
			<point x="249" y="441.4893904989" type="curve" smooth="yes"/>
			<point x="249" y="409.3349189542"/>
			<point x="244" y="372.5869514745"/>
			<point x="244" y="328.4893904989" type="curve" smooth="yes"/>
			<point x="244" y="266.4893904989"/>
			<point x="250" y="202.4893904989"/>
			<point x="250" y="163.4893904989" type="curve" smooth="yes"/>
			<point x="250" y="105.4893904989"/>
			<point x="223" y="77.4893904989"/>
			<point x="180" y="77.4893904989" type="curve" smooth="yes"/>
			<point x="133" y="77.4893904989"/>
			<point x="102" y="97.4893904989"/>
			<point x="93" y="144.4893904989" type="curve" smooth="yes"/>
			<point x="82" y="204.4893904989"/>
			<point x="77" y="244.4893904989"/>
			<point x="77" y="312.4893904989" type="curve" smooth="yes"/>
			<point x="77" y="364.6248071656"/>
			<point x="83.8959158515" y="426.236419845"/>
			<point x="82" y="494.4893904989" type="curve" smooth="yes"/>
			<point x="80" y="533.4893904989"/>
			<point x="93" y="559.4893904989"/>
			<point x="134" y="559.4893904989" type="curve" smooth="yes"/>
			<point x="205" y="559.4893904989"/>
			<point x="249" y="525.4893904989"/>
		</contour>
		<contour>
			<point x="186" y="-171.5106095011" type="curve" smooth="yes"/>
			<point x="243" y="-171.5106095011"/>
			<point x="273" y="-144.5106095011"/>
			<point x="273" y="-101.5106095011" type="curve" smooth="yes"/>
			<point x="273" y="-46.5106095011"/>
			<point x="235" y="6.4893904989"/>
			<point x="153" y="6.4893904989" type="curve" smooth="yes"/>
			<point x="100" y="6.4893904989"/>
			<point x="64" y="-22.5106095011"/>
			<point x="64" y="-82.5106095011" type="curve" smooth="yes"/>
			<point x="64" y="-139.5106095011"/>
			<point x="110" y="-171.5106095011"/>
		</contour>
	</outline>
</glyph>
<glyph name="f.alt1" format="2">
	<advance width="452"/>
	<outline>
		<contour>
			<point x="346" y="258.6192639032" type="curve" smooth="yes"/>
			<point x="378" y="261.6192639032"/>
			<point x="393" y="287.6192639032"/>
			<point x="393" y="316.6192639032" type="curve" smooth="yes"/>
			<point x="393" y="376.6192639032"/>
			<point x="338" y="408.6192639032"/>
			<point x="297" y="408.6192639032" type="curve" smooth="yes"/>
			<point x="261" y="408.6192639032"/>
			<point x="216" y="400.6192639032"/>
			<point x="160" y="380.6192639032" type="curve" smooth="yes"/>
			<point x="113" y="363.6192639032"/>
			<point x="86" y="320.6192639032"/>
			<point x="86" y="269.6192639032" type="curve" smooth="yes"/>
			<point x="86" y="232.6192639032"/>
			<point x="124" y="206.6192639032"/>
			<point x="167" y="206.6192639032" type="curve" smooth="yes"/>
			<point x="197" y="206.6192639032"/>
			<point x="224" y="247.6192639032"/>
		</contour>
		<contour>
			<point x="190" y="-276.3807360968" type="curve" smooth="yes"/>
			<point x="238" y="-276.3807360968"/>
			<point x="261" y="-252.3807360968"/>
			<point x="261" y="-162.3807360968" type="curve" smooth="yes"/>
			<point x="261" y="65.6192639032"/>
			<point x="221" y="193.6192639032"/>
			<point x="221" y="332.6192639032" type="curve" smooth="yes"/>
			<point x="221" y="472.6192639032"/>
			<point x="239" y="504.6192639032"/>
			<point x="360" y="548.6192639032" type="curve" smooth="yes"/>
			<point x="390" y="559.6192639032"/>
			<point x="407" y="580.6192639032"/>
			<point x="407" y="615.6192639032" type="curve" smooth="yes"/>
			<point x="407" y="678.6192639032"/>
			<point x="361" y="702.6192639032"/>
			<point x="312" y="702.6192639032" type="curve"/>
			<point x="180" y="702.6192639032"/>
			<point x="52" y="568.6192639032"/>
			<point x="52" y="366.6192639032" type="curve" smooth="yes"/>
			<point x="52" y="174.6192639032"/>
			<point x="87" y="98.6192639032"/>
			<point x="87" y="-121.3807360968" type="curve" smooth="yes"/>
			<point x="87" y="-221.3807360968"/>
			<point x="138" y="-276.3807360968"/>
		</contour>
	</outline>
</glyph>
<glyph name="four.alt2" format="2">
	<advance width="700"/>
	<outline>
		<contour>
			<point x="327" y="234.7572228571" type="curve" smooth="yes"/>
			<point x="327" y="392.4455345454"/>
			<point x="372" y="538.7572228571"/>
			<point x="372" y="636.7572228571" type="curve" smooth="yes"/>
			<point x="372" y="651.7572228571"/>
			<point x="369" y="663.7572228571"/>
			<point x="358" y="687.7572228571" type="curve"/>
			<point x="411" y="630.7572228571" type="line"/>
			<point x="316" y="571.7572228571"/>
			<point x="234" y="468.7572228571"/>
			<point x="180" y="346.7572228571" type="curve"/>
			<point x="127" y="416.7572228571" type="line"/>
			<point x="160" y="403.7572228571"/>
			<point x="168" y="400.7572228571"/>
			<point x="193" y="400.7572228571" type="curve" smooth="yes"/>
			<point x="322.15" y="400.7572228571"/>
			<point x="428.75" y="444.7572228571"/>
			<point x="603" y="444.7572228571" type="curve" smooth="yes"/>
			<point x="652" y="444.7572228571"/>
			<point x="692" y="392.7572228571"/>
			<point x="692" y="336.7572228571" type="curve" smooth="yes"/>
			<point x="692" y="298.7572228571"/>
			<point x="674" y="269.7572228571"/>
			<point x="629" y="269.7572228571" type="curve" smooth="yes"/>
			<point x="418.7700205339" y="269.7572228571"/>
			<point x="298.3470225873" y="224.7572228571"/>
			<point x="132" y="224.7572228571" type="curve" smooth="yes"/>
			<point x="61" y="224.7572228571"/>
			<point x="15" y="281.7572228571"/>
			<point x="15" y="329.7572228571" type="curve" smooth="yes"/>
			<point x="15" y="378.6927067281"/>
			<point x="22.7022043817" y="433.5948708366"/>
			<point x="73" y="514.7572228571" type="curve" smooth="yes"/>
			<point x="182" y="691.7572228571"/>
			<point x="341" y="792.7572228571"/>
			<point x="415" y="792.7572228571" type="curve" smooth="yes"/>
			<point x="508" y="792.7572228571"/>
			<point x="551" y="720.7572228571"/>
			<point x="551" y="658.7572228571" type="curve" smooth="yes"/>
			<point x="551" y="504.7572228571"/>
			<point x="502" y="389.5668614113"/>
			<point x="502" y="225.7572228571" type="curve" smooth="yes"/>
			<point x="502" y="177.7572228571"/>
			<point x="512" y="156.7572228571"/>
			<point x="512" y="130.7572228571" type="curve" smooth="yes"/>
			<point x="512" y="90.7572228571"/>
			<point x="476" y="66.7572228571"/>
			<point x="422" y="66.7572228571" type="curve" smooth="yes"/>
			<point x="354" y="66.7572228571"/>
			<point x="327" y="116.7572228571"/>
		</contour>
	</outline>
</glyph>
<glyph name="g.alt1" format="2">
	<advance width="660"/>
	<outline>
		<contour>
			<point x="471" y="284.8492869298" type="curve" smooth="yes"/>
			<point x="542" y="284.8492869298"/>
			<point x="574" y="242.8492869298"/>
			<point x="577" y="202.8492869298" type="curve" smooth="yes"/>
			<point x="590" y="46.8492869298"/>
			<point x="635" y="-20.1507130702"/>
			<point x="635" y="-205.1507130702" type="curve" smooth="yes"/>
			<point x="635" y="-352.1507130702"/>
			<point x="548" y="-442.1507130702"/>
			<point x="395" y="-442.1507130702" type="curve" smooth="yes"/>
			<point x="147" y="-442.1507130702"/>
			<point x="108" y="-357.1507130702"/>
			<point x="108" y="-297.1507130702" type="curve" smooth="yes"/>
			<point x="108" y="-243.1507130702"/>
			<point x="148" y="-201.1507130702"/>
			<point x="214" y="-201.1507130702" type="curve" smooth="yes"/>
			<point x="240" y="-201.1507130702"/>
			<point x="248" y="-212.1507130702"/>
			<point x="248" y="-233.1507130702" type="curve" smooth="yes"/>
			<point x="248" y="-253.1507130702"/>
			<point x="274" y="-270.1507130702"/>
			<point x="385" y="-270.1507130702" type="curve" smooth="yes"/>
			<point x="443" y="-270.1507130702"/>
			<point x="462" y="-245.1507130702"/>
			<point x="462" y="-198.1507130702" type="curve" smooth="yes"/>
			<point x="462" y="-111.1507130702"/>
			<point x="437" y="-69.1507130702"/>
			<point x="425" y="29.8492869298" type="curve"/>
			<point x="489" y="22.8492869298" type="line"/>
			<point x="450" y="-106.1507130702"/>
			<point x="326" y="-141.1507130702"/>
			<point x="242" y="-141.1507130702" type="curve" smooth="yes"/>
			<point x="108" y="-141.1507130702"/>
			<point x="25" y="-66.1507130702"/>
			<point x="25" y="59.8492869298" type="curve" smooth="yes"/>
			<point x="25" y="222.8492869298"/>
			<point x="159" y="347.8492869298"/>
			<point x="308" y="347.8492869298" type="curve" smooth="yes"/>
			<point x="419" y="347.8492869298"/>
			<point x="457" y="277.8492869298"/>
			<point x="457" y="212.8492869298" type="curve" smooth="yes"/>
			<point x="457" y="173.8492869298"/>
			<point x="437" y="149.8492869298"/>
			<point x="420" y="149.8492869298" type="curve" smooth="yes"/>
			<point x="385" y="149.8492869298"/>
			<point x="378" y="183.8492869298"/>
			<point x="333" y="183.8492869298" type="curve" smooth="yes"/>
			<point x="273" y="183.8492869298"/>
			<point x="198" y="124.8492869298"/>
			<point x="198" y="73.8492869298" type="curve" smooth="yes"/>
			<point x="198" y="47.8492869298"/>
			<point x="212" y="33.8492869298"/>
			<point x="243" y="33.8492869298" type="curve" smooth="yes"/>
			<point x="348" y="33.8492869298"/>
			<point x="425" y="98.8492869298"/>
			<point x="425" y="221.8492869298" type="curve" smooth="yes"/>
			<point x="425" y="265.8492869298"/>
			<point x="436" y="284.8492869298"/>
		</contour>
	</outline>
</glyph>
<glyph name="g.alt2" format="2">
	<advance width="660"/>
	<outline>
		<contour>
			<point x="471" y="531.0580819203" type="curve" smooth="yes"/>
			<point x="542" y="531.0580819203"/>
			<point x="574" y="489.0580819203"/>
			<point x="577" y="449.0580819203" type="curve" smooth="yes"/>
			<point x="590" y="293.0580819203"/>
			<point x="635" y="226.0580819203"/>
			<point x="635" y="41.0580819203" type="curve" smooth="yes"/>
			<point x="635" y="-105.9419180797"/>
			<point x="548" y="-195.9419180797"/>
			<point x="395" y="-195.9419180797" type="curve" smooth="yes"/>
			<point x="147" y="-195.9419180797"/>
			<point x="108" y="-110.9419180797"/>
			<point x="108" y="-50.9419180797" type="curve" smooth="yes"/>
			<point x="108" y="3.0580819203"/>
			<point x="148" y="45.0580819203"/>
			<point x="214" y="45.0580819203" type="curve" smooth="yes"/>
			<point x="240" y="45.0580819203"/>
			<point x="248" y="34.0580819203"/>
			<point x="248" y="13.0580819203" type="curve" smooth="yes"/>
			<point x="248" y="-6.9419180797"/>
			<point x="274" y="-23.9419180797"/>
			<point x="385" y="-23.9419180797" type="curve" smooth="yes"/>
			<point x="443" y="-23.9419180797"/>
			<point x="462" y="1.0580819203"/>
			<point x="462" y="48.0580819203" type="curve" smooth="yes"/>
			<point x="462" y="135.0580819203"/>
			<point x="437" y="177.0580819203"/>
			<point x="425" y="276.0580819203" type="curve"/>
			<point x="489" y="269.0580819203" type="line"/>
			<point x="450" y="140.0580819203"/>
			<point x="326" y="105.0580819203"/>
			<point x="242" y="105.0580819203" type="curve" smooth="yes"/>
			<point x="108" y="105.0580819203"/>
			<point x="25" y="180.0580819203"/>
			<point x="25" y="306.0580819203" type="curve" smooth="yes"/>
			<point x="25" y="469.0580819203"/>
			<point x="159" y="594.0580819203"/>
			<point x="308" y="594.0580819203" type="curve" smooth="yes"/>
			<point x="419" y="594.0580819203"/>
			<point x="457" y="524.0580819203"/>
			<point x="457" y="459.0580819203" type="curve" smooth="yes"/>
			<point x="457" y="420.0580819203"/>
			<point x="437" y="396.0580819203"/>
			<point x="420" y="396.0580819203" type="curve" smooth="yes"/>
			<point x="385" y="396.0580819203"/>
			<point x="378" y="430.0580819203"/>
			<point x="333" y="430.0580819203" type="curve" smooth="yes"/>
			<point x="273" y="430.0580819203"/>
			<point x="198" y="371.0580819203"/>
			<point x="198" y="320.0580819203" type="curve" smooth="yes"/>
			<point x="198" y="294.0580819203"/>
			<point x="212" y="280.0580819203"/>
			<point x="243" y="280.0580819203" type="curve" smooth="yes"/>
			<point x="348" y="280.0580819203"/>
			<point x="425" y="345.0580819203"/>
			<point x="425" y="468.0580819203" type="curve" smooth="yes"/>
			<point x="425" y="512.0580819203"/>
			<point x="436" y="531.0580819203"/>
		</contour>
	</outline>
</glyph>
<glyph name="h.alt1" format="2">
	<advance width="693"/>
	<outline>
		<contour>
			<point x="593" y="-84.8899050458" type="curve" smooth="yes"/>
			<point x="638" y="-84.8899050458"/>
			<point x="672" y="-58.8899050458"/>
			<point x="672" y="-24.8899050458" type="curve" smooth="yes"/>
			<point x="672" y="-8.8899050458"/>
			<point x="667" y="6.1100949542"/>
			<point x="660" y="20.1100949542" type="curve" smooth="yes"/>
			<point x="642" y="52.1100949542"/>
			<point x="607" y="84.1100949542"/>
			<point x="596" y="195.1100949542" type="curve" smooth="yes"/>
			<point x="581" y="361.1100949542"/>
			<point x="549" y="459.1100949542"/>
			<point x="429" y="459.1100949542" type="curve" smooth="yes"/>
			<point x="346" y="459.1100949542"/>
			<point x="265" y="382.1100949542"/>
			<point x="194" y="224.1100949542" type="curve"/>
			<point x="230" y="151.1100949542" type="line"/>
			<point x="230" y="374.1100949542"/>
			<point x="252" y="473.1100949542"/>
			<point x="252" y="554.1100949542" type="curve" smooth="yes"/>
			<point x="252" y="697.1100949542"/>
			<point x="188" y="737.1100949542"/>
			<point x="136" y="737.1100949542" type="curve" smooth="yes"/>
			<point x="82" y="737.1100949542"/>
			<point x="63" y="708.1100949542"/>
			<point x="63" y="678.1100949542" type="curve" smooth="yes"/>
			<point x="63" y="637.1100949542"/>
			<point x="78" y="609.1100949542"/>
			<point x="78" y="532.1100949542" type="curve" smooth="yes"/>
			<point x="78" y="416.1100949542"/>
			<point x="55" y="273.1100949542"/>
			<point x="55" y="62.1100949542" type="curve" smooth="yes"/>
			<point x="55" y="-12.8899050458"/>
			<point x="103" y="-82.8899050458"/>
			<point x="163" y="-82.8899050458" type="curve" smooth="yes"/>
			<point x="192" y="-82.8899050458"/>
			<point x="213" y="-71.8899050458"/>
			<point x="232" y="-30.8899050458" type="curve" smooth="yes"/>
			<point x="308" y="137.1100949542"/>
			<point x="379" y="235.1100949542"/>
			<point x="416" y="248.1100949542" type="curve"/>
			<point x="423" y="216.1100949542"/>
			<point x="428" y="178.1100949542"/>
			<point x="434" y="76.1100949542" type="curve" smooth="yes"/>
			<point x="440" y="-11.8899050458"/>
			<point x="495" y="-84.8899050458"/>
		</contour>
	</outline>
</glyph>
<glyph name="h.alt2" format="2">
	<advance width="693"/>
	<outline>
		<contour>
			<point x="593" y="174.897526902" type="curve" smooth="yes"/>
			<point x="638" y="174.897526902"/>
			<point x="672" y="200.897526902"/>
			<point x="672" y="234.897526902" type="curve" smooth="yes"/>
			<point x="672" y="250.897526902"/>
			<point x="667" y="265.897526902"/>
			<point x="660" y="279.897526902" type="curve" smooth="yes"/>
			<point x="642" y="311.897526902"/>
			<point x="607" y="343.897526902"/>
			<point x="596" y="454.897526902" type="curve" smooth="yes"/>
			<point x="581" y="620.897526902"/>
			<point x="549" y="718.897526902"/>
			<point x="429" y="718.897526902" type="curve" smooth="yes"/>
			<point x="346" y="718.897526902"/>
			<point x="265" y="641.897526902"/>
			<point x="194" y="483.897526902" type="curve"/>
			<point x="230" y="410.897526902" type="line"/>
			<point x="230" y="633.897526902"/>
			<point x="252" y="732.897526902"/>
			<point x="252" y="813.897526902" type="curve" smooth="yes"/>
			<point x="252" y="956.897526902"/>
			<point x="188" y="996.897526902"/>
			<point x="136" y="996.897526902" type="curve" smooth="yes"/>
			<point x="82" y="996.897526902"/>
			<point x="63" y="967.897526902"/>
			<point x="63" y="937.897526902" type="curve" smooth="yes"/>
			<point x="63" y="896.897526902"/>
			<point x="78" y="868.897526902"/>
			<point x="78" y="791.897526902" type="curve" smooth="yes"/>
			<point x="78" y="675.897526902"/>
			<point x="55" y="532.897526902"/>
			<point x="55" y="321.897526902" type="curve" smooth="yes"/>
			<point x="55" y="246.897526902"/>
			<point x="103" y="176.897526902"/>
			<point x="163" y="176.897526902" type="curve" smooth="yes"/>
			<point x="192" y="176.897526902"/>
			<point x="213" y="187.897526902"/>
			<point x="232" y="228.897526902" type="curve" smooth="yes"/>
			<point x="308" y="396.897526902"/>
			<point x="379" y="494.897526902"/>
			<point x="416" y="507.897526902" type="curve"/>
			<point x="423" y="475.897526902"/>
			<point x="428" y="437.897526902"/>
			<point x="434" y="335.897526902" type="curve" smooth="yes"/>
			<point x="440" y="247.897526902"/>
			<point x="495" y="174.897526902"/>
		</contour>
	</outline>
</glyph>
<glyph name="hyphen.alt1" format="2">
	<advance width="531"/>
	<outline>
		<contour>
			<point x="206" y="1.9320154597" type="curve" smooth="yes"/>
			<point x="238.7592592593" y="1.9320154597"/>
			<point x="291.9259259259" y="11.9320154597"/>
			<point x="438" y="11.9320154597" type="curve" smooth="yes"/>
			<point x="469" y="11.9320154597"/>
			<point x="487" y="32.9320154597"/>
			<point x="487" y="65.9320154597" type="curve" smooth="yes"/>
			<point x="487" y="106.9320154597"/>
			<point x="444" y="174.9320154597"/>
			<point x="325" y="174.9320154597" type="curve" smooth="yes"/>
			<point x="241.9642857143" y="174.9320154597"/>
			<point x="160.9762270093" y="174.7708545395"/>
			<point x="77" y="148.9320154597" type="curve" smooth="yes"/>
			<point x="49" y="140.9320154597"/>
			<point x="43" y="126.9320154597"/>
			<point x="43" y="104.9320154597" type="curve" smooth="yes"/>
			<point x="43" y="54.9320154597"/>
			<point x="101" y="1.9320154597"/>
		</contour>
	</outline>
</glyph>
<glyph name="j.alt2" format="2">
	<advance width="345"/>
	<outline>
		<contour>
			<point x="217" y="568.41338684" type="curve" smooth="yes"/>
			<point x="253" y="379.41338684"/>
			<point x="273" y="213.41338684"/>
			<point x="273" y="62.41338684" type="curve" smooth="yes"/>
			<point x="273" y="-82.58661316"/>
			<point x="190" y="-157.58661316"/>
			<point x="64" y="-157.58661316" type="curve" smooth="yes"/>
			<point x="-34" y="-157.58661316"/>
			<point x="-90" y="-97.58661316"/>
			<point x="-90" y="-24.58661316" type="curve" smooth="yes"/>
			<point x="-90" y="14.41338684"/>
			<point x="-70" y="36.41338684"/>
			<point x="-41" y="36.41338684" type="curve" smooth="yes"/>
			<point x="-6" y="36.41338684"/>
			<point x="12" y="14.41338684"/>
			<point x="55" y="14.41338684" type="curve" smooth="yes"/>
			<point x="86" y="14.41338684"/>
			<point x="103" y="39.41338684"/>
			<point x="103" y="76.41338684" type="curve" smooth="yes"/>
			<point x="103" y="286.41338684"/>
			<point x="50" y="368.41338684"/>
			<point x="50" y="504.41338684" type="curve" smooth="yes"/>
			<point x="50" y="592.41338684"/>
			<point x="96" y="626.41338684"/>
			<point x="143" y="626.41338684" type="curve" smooth="yes"/>
			<point x="183" y="626.41338684"/>
			<point x="207" y="615.41338684"/>
		</contour>
		<contour>
			<point x="158" y="701.41338684" type="curve" smooth="yes"/>
			<point x="216" y="701.41338684"/>
			<point x="238" y="751.41338684"/>
			<point x="238" y="797.41338684" type="curve" smooth="yes"/>
			<point x="238" y="851.41338684"/>
			<point x="204" y="919.41338684"/>
			<point x="143" y="919.41338684" type="curve" smooth="yes"/>
			<point x="84" y="919.41338684"/>
			<point x="37" y="871.41338684"/>
			<point x="37" y="804.41338684" type="curve" smooth="yes"/>
			<point x="37" y="751.41338684"/>
			<point x="91" y="701.41338684"/>
		</contour>
	</outline>
</glyph>
<glyph name="k.alt2" format="2">
	<advance width="678"/>
	<outline>
		<contour>
			<point x="555" y="145.041989189" type="curve" smooth="yes"/>
			<point x="602" y="145.041989189"/>
			<point x="627" y="173.041989189"/>
			<point x="627" y="217.041989189" type="curve" smooth="yes"/>
			<point x="627" y="266.041989189"/>
			<point x="601" y="318.041989189"/>
			<point x="533" y="332.041989189" type="curve" smooth="yes"/>
			<point x="405" y="363.041989189"/>
			<point x="363" y="385.041989189"/>
			<point x="363" y="401.041989189" type="curve" smooth="yes"/>
			<point x="363" y="422.041989189"/>
			<point x="433" y="474.041989189"/>
			<point x="545" y="507.041989189" type="curve" smooth="yes"/>
			<point x="612" y="527.041989189"/>
			<point x="629" y="548.041989189"/>
			<point x="629" y="584.041989189" type="curve" smooth="yes"/>
			<point x="629" y="645.041989189"/>
			<point x="591" y="679.041989189"/>
			<point x="533" y="679.041989189" type="curve" smooth="yes"/>
			<point x="422" y="679.041989189"/>
			<point x="172" y="528.041989189"/>
			<point x="172" y="381.041989189" type="curve" smooth="yes"/>
			<point x="172" y="290.041989189"/>
			<point x="414" y="145.041989189"/>
		</contour>
		<contour>
			<point x="139" y="962.041989189" type="curve" smooth="yes"/>
			<point x="94" y="962.041989189"/>
			<point x="73" y="938.041989189"/>
			<point x="73" y="893.041989189" type="curve" smooth="yes"/>
			<point x="73" y="857.041989189"/>
			<point x="82" y="826.041989189"/>
			<point x="82" y="746.041989189" type="curve" smooth="yes"/>
			<point x="82" y="557.041989189"/>
			<point x="55" y="375.041989189"/>
			<point x="55" y="289.041989189" type="curve" smooth="yes"/>
			<point x="55" y="171.041989189"/>
			<point x="110" y="142.041989189"/>
			<point x="164" y="142.041989189" type="curve" smooth="yes"/>
			<point x="206" y="142.041989189"/>
			<point x="229" y="161.041989189"/>
			<point x="229" y="205.041989189" type="curve" smooth="yes"/>
			<point x="229" y="254.041989189"/>
			<point x="224" y="297.041989189"/>
			<point x="224" y="361.041989189" type="curve" smooth="yes"/>
			<point x="224" y="477.041989189"/>
			<point x="261" y="604.041989189"/>
			<point x="261" y="748.041989189" type="curve" smooth="yes"/>
			<point x="261" y="904.041989189"/>
			<point x="221" y="962.041989189"/>
		</contour>
	</outline>
</glyph>
<glyph name="l.alt2" format="2">
	<advance width="403"/>
	<outline>
		<contour>
			<point x="251" y="847.5089166494" type="curve" smooth="yes"/>
			<point x="251" y="764.5089166494"/>
			<point x="229" y="668.5089166494"/>
			<point x="229" y="519.5089166494" type="curve" smooth="yes"/>
			<point x="229" y="342.5089166494"/>
			<point x="249" y="336.5089166494"/>
			<point x="273" y="336.5089166494" type="curve" smooth="yes"/>
			<point x="307" y="336.5089166494"/>
			<point x="326" y="358.5089166494"/>
			<point x="348" y="358.5089166494" type="curve" smooth="yes"/>
			<point x="382" y="358.5089166494"/>
			<point x="393" y="328.5089166494"/>
			<point x="393" y="287.5089166494" type="curve" smooth="yes"/>
			<point x="393" y="209.5089166494"/>
			<point x="326" y="161.5089166494"/>
			<point x="231" y="161.5089166494" type="curve" smooth="yes"/>
			<point x="166" y="161.5089166494"/>
			<point x="52" y="198.5089166494"/>
			<point x="52" y="539.5089166494" type="curve" smooth="yes"/>
			<point x="52" y="685.5089166494"/>
			<point x="62" y="803.5089166494"/>
			<point x="83" y="918.5089166494" type="curve" smooth="yes"/>
			<point x="91" y="963.5089166494"/>
			<point x="114" y="982.5089166494"/>
			<point x="157" y="982.5089166494" type="curve" smooth="yes"/>
			<point x="217" y="982.5089166494"/>
			<point x="251" y="942.5089166494"/>
		</contour>
	</outline>
</glyph>
<glyph name="n.alt2" format="2">
	<advance width="707"/>
	<outline>
		<contour>
			<point x="585" y="158.5902137202" type="curve" smooth="yes"/>
			<point x="624" y="158.5902137202"/>
			<point x="667" y="197.5902137202"/>
			<point x="667" y="251.5902137202" type="curve" smooth="yes"/>
			<point x="667" y="276.5902137202"/>
			<point x="660" y="293.5902137202"/>
			<point x="642" y="308.5902137202" type="curve" smooth="yes"/>
			<point x="601" y="342.5902137202"/>
			<point x="594" y="407.5902137202"/>
			<point x="594" y="538.5902137202" type="curve" smooth="yes"/>
			<point x="594" y="624.5902137202"/>
			<point x="533" y="692.5902137202"/>
			<point x="439" y="692.5902137202" type="curve" smooth="yes"/>
			<point x="341" y="692.5902137202"/>
			<point x="234" y="609.5902137202"/>
			<point x="167" y="420.5902137202" type="curve"/>
			<point x="217" y="354.5902137202" type="line"/>
			<point x="217" y="493.5902137202"/>
			<point x="244" y="509.5902137202"/>
			<point x="244" y="580.5902137202" type="curve" smooth="yes"/>
			<point x="244" y="645.5902137202"/>
			<point x="182" y="679.5902137202"/>
			<point x="141" y="679.5902137202" type="curve" smooth="yes"/>
			<point x="104" y="679.5902137202"/>
			<point x="84" y="658.5902137202"/>
			<point x="84" y="629.5902137202" type="curve" smooth="yes"/>
			<point x="84" y="506.5902137202"/>
			<point x="55" y="454.5902137202"/>
			<point x="55" y="319.5902137202" type="curve" smooth="yes"/>
			<point x="55" y="226.5902137202"/>
			<point x="85" y="159.5902137202"/>
			<point x="145" y="159.5902137202" type="curve" smooth="yes"/>
			<point x="191" y="159.5902137202"/>
			<point x="216" y="174.5902137202"/>
			<point x="229" y="218.5902137202" type="curve" smooth="yes"/>
			<point x="282" y="395.5902137202"/>
			<point x="374" y="525.5902137202"/>
			<point x="425" y="525.5902137202" type="curve" smooth="yes"/>
			<point x="443" y="525.5902137202"/>
			<point x="456" y="514.5902137202"/>
			<point x="483" y="485.5902137202" type="curve"/>
			<point x="488" y="542.5902137202"/>
			<point x="457" y="544.5902137202"/>
			<point x="404" y="547.5902137202" type="curve"/>
			<point x="437" y="532.5902137202"/>
			<point x="438" y="509.5902137202"/>
			<point x="438" y="467.5902137202" type="curve" smooth="yes"/>
			<point x="438" y="263.5902137202"/>
			<point x="493" y="158.5902137202"/>
		</contour>
	</outline>
</glyph>
<glyph name="nine.alt1" format="2">
	<advance width="700"/>
	<outline>
		<contour>
			<point x="462" y="428.3362282154" type="curve" smooth="yes"/>
			<point x="501" y="428.3362282154"/>
			<point x="518" y="461.3362282154"/>
			<point x="518" y="493.3362282154" type="curve" smooth="yes"/>
			<point x="518" y="567.3362282154"/>
			<point x="463.7033898305" y="613.3362282154"/>
			<point x="369" y="613.3362282154" type="curve" smooth="yes"/>
			<point x="140" y="613.3362282154"/>
			<point x="32" y="473.1988236352"/>
			<point x="32" y="345.3362282154" type="curve" smooth="yes"/>
			<point x="32" y="219.3267044059"/>
			<point x="107.6622222222" y="143.3362282154"/>
			<point x="256" y="143.3362282154" type="curve" smooth="yes"/>
			<point x="394.4554455446" y="143.3362282154"/>
			<point x="481.5653363309" y="193.2307477263"/>
			<point x="560" y="317.3362282154" type="curve"/>
			<point x="455" y="264.3362282154" type="line"/>
			<point x="455" y="146.4563695582"/>
			<point x="458.2370330897" y="51.7481065143"/>
			<point x="468" y="-13.6637717846" type="curve" smooth="yes"/>
			<point x="477.5202892732" y="-67.6120776661"/>
			<point x="521" y="-105.6637717846"/>
			<point x="580" y="-105.6637717846" type="curve" smooth="yes"/>
			<point x="625" y="-105.6637717846"/>
			<point x="650" y="-82.6637717846"/>
			<point x="650" y="-29.6637717846" type="curve" smooth="yes"/>
			<point x="650" y="8.3362282154"/>
			<point x="633" y="55.3362282154"/>
			<point x="633" y="186.3362282154" type="curve" smooth="yes"/>
			<point x="633" y="238.3362282154"/>
			<point x="634" y="291.3362282154"/>
			<point x="637" y="384.3362282154" type="curve"/>
			<point x="663" y="504.3362282154"/>
			<point x="630" y="569.3362282154"/>
			<point x="533" y="569.3362282154" type="curve" smooth="yes"/>
			<point x="498" y="569.3362282154"/>
			<point x="474" y="545.3362282154"/>
			<point x="474" y="503.3362282154" type="curve" smooth="yes"/>
			<point x="474" y="355.4859608357"/>
			<point x="382" y="311.3362282154"/>
			<point x="257" y="311.3362282154" type="curve" smooth="yes"/>
			<point x="222" y="311.3362282154"/>
			<point x="205" y="328.2251171043"/>
			<point x="205" y="351.3362282154" type="curve" smooth="yes"/>
			<point x="205" y="387.9725918518"/>
			<point x="248" y="442.3362282154"/>
			<point x="369" y="442.3362282154" type="curve" smooth="yes"/>
			<point x="415" y="442.3362282154"/>
			<point x="436" y="428.3362282154"/>
		</contour>
	</outline>
</glyph>
<glyph name="nine.alt2" format="2">
	<advance width="700"/>
	<outline>
		<contour>
			<point x="462" y="652.3148085647" type="curve" smooth="yes"/>
			<point x="501" y="652.3148085647"/>
			<point x="518" y="685.3148085647"/>
			<point x="518" y="717.3148085647" type="curve" smooth="yes"/>
			<point x="518" y="791.3148085647"/>
			<point x="463.7033898305" y="837.3148085647"/>
			<point x="369" y="837.3148085647" type="curve" smooth="yes"/>
			<point x="140" y="837.3148085647"/>
			<point x="32" y="697.1774039845"/>
			<point x="32" y="569.3148085647" type="curve" smooth="yes"/>
			<point x="32" y="443.3052847552"/>
			<point x="107.6622222222" y="367.3148085647"/>
			<point x="256" y="367.3148085647" type="curve" smooth="yes"/>
			<point x="394.4554455446" y="367.3148085647"/>
			<point x="481.5653363309" y="417.2093280756"/>
			<point x="560" y="541.3148085647" type="curve"/>
			<point x="455" y="488.3148085647" type="line"/>
			<point x="455" y="370.4349499075"/>
			<point x="458.2370330897" y="275.7266868636"/>
			<point x="468" y="210.3148085647" type="curve" smooth="yes"/>
			<point x="477.5202892732" y="156.3665026832"/>
			<point x="521" y="118.3148085647"/>
			<point x="580" y="118.3148085647" type="curve" smooth="yes"/>
			<point x="625" y="118.3148085647"/>
			<point x="650" y="141.3148085647"/>
			<point x="650" y="194.3148085647" type="curve" smooth="yes"/>
			<point x="650" y="232.3148085647"/>
			<point x="633" y="279.3148085647"/>
			<point x="633" y="410.3148085647" type="curve" smooth="yes"/>
			<point x="633" y="462.3148085647"/>
			<point x="634" y="515.3148085647"/>
			<point x="637" y="608.3148085647" type="curve"/>
			<point x="663" y="728.3148085647"/>
			<point x="630" y="793.3148085647"/>
			<point x="533" y="793.3148085647" type="curve" smooth="yes"/>
			<point x="498" y="793.3148085647"/>
			<point x="474" y="769.3148085647"/>
			<point x="474" y="727.3148085647" type="curve" smooth="yes"/>
			<point x="474" y="579.464541185"/>
			<point x="382" y="535.3148085647"/>
			<point x="257" y="535.3148085647" type="curve" smooth="yes"/>
			<point x="222" y="535.3148085647"/>
			<point x="205" y="552.2036974536"/>
			<point x="205" y="575.3148085647" type="curve" smooth="yes"/>
			<point x="205" y="611.9511722011"/>
			<point x="248" y="666.3148085647"/>
			<point x="369" y="666.3148085647" type="curve" smooth="yes"/>
			<point x="415" y="666.3148085647"/>
			<point x="436" y="652.3148085647"/>
		</contour>
	</outline>
</glyph>
<glyph name="numbersign.alt1" format="2">
	<advance width="1029"/>
	<outline>
		<contour>
			<point x="539" y="605.9777796468" type="curve" smooth="yes"/>
			<point x="539" y="442.9777796468"/>
			<point x="332" y="25.9777796468"/>
			<point x="332" y="-154.0222203532" type="curve" smooth="yes"/>
			<point x="332" y="-204.0222203532"/>
			<point x="290" y="-243.0222203532"/>
			<point x="248" y="-242.0222203532" type="curve" smooth="yes"/>
			<point x="194" y="-241.0222203532"/>
			<point x="150" y="-202.0222203532"/>
			<point x="150" y="-125.0222203532" type="curve" smooth="yes"/>
			<point x="150" y="42.9777796468"/>
			<point x="358" y="461.9777796468"/>
			<point x="358" y="617.9777796468" type="curve" smooth="yes"/>
			<point x="358" y="683.9777796468"/>
			<point x="385" y="714.9777796468"/>
			<point x="433" y="715.9777796468" type="curve" smooth="yes"/>
			<point x="490" y="716.9777796468"/>
			<point x="539" y="665.9777796468"/>
		</contour>
		<contour>
			<point x="828" y="664.9777796468"/>
			<point x="884" y="623.9777796468"/>
			<point x="884" y="560.9777796468" type="curve" smooth="yes"/>
			<point x="884" y="415.9777796468"/>
			<point x="682" y="66.9777796468"/>
			<point x="682" y="-205.0222203532" type="curve" smooth="yes"/>
			<point x="682" y="-262.0222203532"/>
			<point x="649" y="-293.0222203532"/>
			<point x="604" y="-292.0222203532" type="curve" smooth="yes"/>
			<point x="540" y="-291.0222203532"/>
			<point x="499" y="-246.0222203532"/>
			<point x="500" y="-189.0222203532" type="curve" smooth="yes"/>
			<point x="505" y="78.9777796468"/>
			<point x="706" y="420.9777796468"/>
			<point x="706" y="583.9777796468" type="curve" smooth="yes"/>
			<point x="706" y="634.9777796468"/>
			<point x="727" y="664.9777796468"/>
			<point x="772" y="664.9777796468" type="curve" smooth="yes"/>
		</contour>
		<contour>
			<point x="128" y="149.9777796468" type="curve" smooth="yes"/>
			<point x="371.2781456954" y="149.9777796468"/>
			<point x="659.7218543046" y="182.9777796468"/>
			<point x="903" y="182.9777796468" type="curve" smooth="yes"/>
			<point x="962" y="182.9777796468"/>
			<point x="983" y="161.9777796468"/>
			<point x="984" y="123.9777796468" type="curve" smooth="yes"/>
			<point x="986" y="69.9777796468"/>
			<point x="942" y="14.9777796468"/>
			<point x="838" y="10.9777796468" type="curve" smooth="yes"/>
			<point x="639.9896802498" y="5.8212609033"/>
			<point x="354.2978056426" y="-46.0222203532"/>
			<point x="180" y="-46.0222203532" type="curve" smooth="yes"/>
			<point x="66" y="-46.0222203532"/>
			<point x="32" y="12.9777796468"/>
			<point x="35" y="71.9777796468" type="curve" smooth="yes"/>
			<point x="37" y="114.9777796468"/>
			<point x="78" y="149.9777796468"/>
		</contour>
		<contour>
			<point x="330.8708708709" y="508.9777796468"/>
			<point x="374" y="454.9777796468"/>
			<point x="920" y="454.9777796468" type="curve" smooth="yes"/>
			<point x="967" y="454.9777796468"/>
			<point x="993" y="430.9777796468"/>
			<point x="994" y="386.9777796468" type="curve" smooth="yes"/>
			<point x="995" y="339.9777796468"/>
			<point x="956" y="293.9777796468"/>
			<point x="890" y="293.9777796468" type="curve" smooth="yes"/>
			<point x="660" y="293.9777796468"/>
			<point x="459" y="300.9777796468"/>
			<point x="290" y="320.9777796468" type="curve" smooth="yes"/>
			<point x="177" y="332.9777796468"/>
			<point x="153" y="386.9777796468"/>
			<point x="153" y="431.9777796468" type="curve" smooth="yes"/>
			<point x="153" y="476.9777796468"/>
			<point x="178" y="508.9777796468"/>
			<point x="240" y="508.9777796468" type="curve" smooth="yes"/>
		</contour>
	</outline>
</glyph>
<glyph name="numbersign.alt2" format="2">
	<advance width="1029"/>
	<outline>
		<contour>
			<point x="539" y="788.2065077073" type="curve" smooth="yes"/>
			<point x="539" y="625.2065077073"/>
			<point x="332" y="208.2065077073"/>
			<point x="332" y="28.2065077073" type="curve" smooth="yes"/>
			<point x="332" y="-21.7934922927"/>
			<point x="290" y="-60.7934922927"/>
			<point x="248" y="-59.7934922927" type="curve" smooth="yes"/>
			<point x="194" y="-58.7934922927"/>
			<point x="150" y="-19.7934922927"/>
			<point x="150" y="57.2065077073" type="curve" smooth="yes"/>
			<point x="150" y="225.2065077073"/>
			<point x="358" y="644.2065077073"/>
			<point x="358" y="800.2065077073" type="curve" smooth="yes"/>
			<point x="358" y="866.2065077073"/>
			<point x="385" y="897.2065077073"/>
			<point x="433" y="898.2065077073" type="curve" smooth="yes"/>
			<point x="490" y="899.2065077073"/>
			<point x="539" y="848.2065077073"/>
		</contour>
		<contour>
			<point x="828" y="847.2065077073"/>
			<point x="884" y="806.2065077073"/>
			<point x="884" y="743.2065077073" type="curve" smooth="yes"/>
			<point x="884" y="598.2065077073"/>
			<point x="682" y="249.2065077073"/>
			<point x="682" y="-22.7934922927" type="curve" smooth="yes"/>
			<point x="682" y="-79.7934922927"/>
			<point x="649" y="-110.7934922927"/>
			<point x="604" y="-109.7934922927" type="curve" smooth="yes"/>
			<point x="540" y="-108.7934922927"/>
			<point x="499" y="-63.7934922927"/>
			<point x="500" y="-6.7934922927" type="curve" smooth="yes"/>
			<point x="505" y="261.2065077073"/>
			<point x="706" y="603.2065077073"/>
			<point x="706" y="766.2065077073" type="curve" smooth="yes"/>
			<point x="706" y="817.2065077073"/>
			<point x="727" y="847.2065077073"/>
			<point x="772" y="847.2065077073" type="curve" smooth="yes"/>
		</contour>
		<contour>
			<point x="128" y="332.2065077073" type="curve" smooth="yes"/>
			<point x="371.2781456954" y="332.2065077073"/>
			<point x="659.7218543046" y="365.2065077073"/>
			<point x="903" y="365.2065077073" type="curve" smooth="yes"/>
			<point x="962" y="365.2065077073"/>
			<point x="983" y="344.2065077073"/>
			<point x="984" y="306.2065077073" type="curve" smooth="yes"/>
			<point x="986" y="252.2065077073"/>
			<point x="942" y="197.2065077073"/>
			<point x="838" y="193.2065077073" type="curve" smooth="yes"/>
			<point x="639.9896802498" y="188.0499889638"/>
			<point x="354.2978056426" y="136.2065077073"/>
			<point x="180" y="136.2065077073" type="curve" smooth="yes"/>
			<point x="66" y="136.2065077073"/>
			<point x="32" y="195.2065077073"/>
			<point x="35" y="254.2065077073" type="curve" smooth="yes"/>
			<point x="37" y="297.2065077073"/>
			<point x="78" y="332.2065077073"/>
		</contour>
		<contour>
			<point x="330.8708708709" y="691.2065077073"/>
			<point x="374" y="637.2065077073"/>
			<point x="920" y="637.2065077073" type="curve" smooth="yes"/>
			<point x="967" y="637.2065077073"/>
			<point x="993" y="613.2065077073"/>
			<point x="994" y="569.2065077073" type="curve" smooth="yes"/>
			<point x="995" y="522.2065077073"/>
			<point x="956" y="476.2065077073"/>
			<point x="890" y="476.2065077073" type="curve" smooth="yes"/>
			<point x="660" y="476.2065077073"/>
			<point x="459" y="483.2065077073"/>
			<point x="290" y="503.2065077073" type="curve" smooth="yes"/>
			<point x="177" y="515.2065077073"/>
			<point x="153" y="569.2065077073"/>
			<point x="153" y="614.2065077073" type="curve" smooth="yes"/>
			<point x="153" y="659.2065077073"/>
			<point x="178" y="691.2065077073"/>
			<point x="240" y="691.2065077073" type="curve" smooth="yes"/>
		</contour>
	</outline>
</glyph>
<glyph name="o.alt1" format="2">
	<advance width="678"/>
	<outline>
		<contour>
			<point x="354" y="-74.0019527515" type="curve" smooth="yes"/>
			<point x="513" y="-74.0019527515"/>
			<point x="634" y="45.9980472485"/>
			<point x="634" y="203.9980472485" type="curve" smooth="yes"/>
			<point x="634" y="357.9980472485"/>
			<point x="530" y="453.9980472485"/>
			<point x="350" y="453.9980472485" type="curve" smooth="yes"/>
			<point x="265" y="453.9980472485"/>
			<point x="170" y="365.9980472485"/>
			<point x="170" y="282.9980472485" type="curve" smooth="yes"/>
			<point x="170" y="222.9980472485"/>
			<point x="195" y="206.9980472485"/>
			<point x="220" y="206.9980472485" type="curve" smooth="yes"/>
			<point x="252" y="206.9980472485"/>
			<point x="269" y="216.9980472485"/>
			<point x="297" y="244.9980472485" type="curve" smooth="yes"/>
			<point x="322" y="269.9980472485"/>
			<point x="336" y="284.9980472485"/>
			<point x="362" y="284.9980472485" type="curve" smooth="yes"/>
			<point x="422" y="284.9980472485"/>
			<point x="464" y="249.9980472485"/>
			<point x="464" y="195.9980472485" type="curve" smooth="yes"/>
			<point x="464" y="133.9980472485"/>
			<point x="416" y="91.9980472485"/>
			<point x="349" y="91.9980472485" type="curve" smooth="yes"/>
			<point x="267" y="91.9980472485"/>
			<point x="215" y="133.9980472485"/>
			<point x="215" y="196.9980472485" type="curve" smooth="yes"/>
			<point x="215" y="235.9980472485"/>
			<point x="257" y="273.9980472485"/>
			<point x="296" y="285.9980472485" type="curve" smooth="yes"/>
			<point x="364" y="306.9980472485"/>
			<point x="381" y="349.9980472485"/>
			<point x="381" y="403.9980472485" type="curve" smooth="yes"/>
			<point x="381" y="448.9980472485"/>
			<point x="343" y="466.9980472485"/>
			<point x="304" y="466.9980472485" type="curve" smooth="yes"/>
			<point x="178" y="466.9980472485"/>
			<point x="44" y="332.9980472485"/>
			<point x="44" y="203.9980472485" type="curve" smooth="yes"/>
			<point x="44" y="41.9980472485"/>
			<point x="174" y="-74.0019527515"/>
		</contour>
	</outline>
</glyph>
<glyph name="o.alt2" format="2">
	<advance width="678"/>
	<outline>
		<contour>
			<point x="354" y="175.9949661949" type="curve" smooth="yes"/>
			<point x="513" y="175.9949661949"/>
			<point x="634" y="295.9949661949"/>
			<point x="634" y="453.9949661949" type="curve" smooth="yes"/>
			<point x="634" y="607.9949661949"/>
			<point x="530" y="703.9949661949"/>
			<point x="350" y="703.9949661949" type="curve" smooth="yes"/>
			<point x="265" y="703.9949661949"/>
			<point x="170" y="615.9949661949"/>
			<point x="170" y="532.9949661949" type="curve" smooth="yes"/>
			<point x="170" y="472.9949661949"/>
			<point x="195" y="456.9949661949"/>
			<point x="220" y="456.9949661949" type="curve" smooth="yes"/>
			<point x="252" y="456.9949661949"/>
			<point x="269" y="466.9949661949"/>
			<point x="297" y="494.9949661949" type="curve" smooth="yes"/>
			<point x="322" y="519.9949661949"/>
			<point x="336" y="534.9949661949"/>
			<point x="362" y="534.9949661949" type="curve" smooth="yes"/>
			<point x="422" y="534.9949661949"/>
			<point x="464" y="499.9949661949"/>
			<point x="464" y="445.9949661949" type="curve" smooth="yes"/>
			<point x="464" y="383.9949661949"/>
			<point x="416" y="341.9949661949"/>
			<point x="349" y="341.9949661949" type="curve" smooth="yes"/>
			<point x="267" y="341.9949661949"/>
			<point x="215" y="383.9949661949"/>
			<point x="215" y="446.9949661949" type="curve" smooth="yes"/>
			<point x="215" y="485.9949661949"/>
			<point x="257" y="523.9949661949"/>
			<point x="296" y="535.9949661949" type="curve" smooth="yes"/>
			<point x="364" y="556.9949661949"/>
			<point x="381" y="599.9949661949"/>
			<point x="381" y="653.9949661949" type="curve" smooth="yes"/>
			<point x="381" y="698.9949661949"/>
			<point x="343" y="716.9949661949"/>
			<point x="304" y="716.9949661949" type="curve" smooth="yes"/>
			<point x="178" y="716.9949661949"/>
			<point x="44" y="582.9949661949"/>
			<point x="44" y="453.9949661949" type="curve" smooth="yes"/>
			<point x="44" y="291.9949661949"/>
			<point x="174" y="175.9949661949"/>
		</contour>
	</outline>
</glyph>
<glyph name="one.alt1" format="2">
	<advance width="700"/>
	<outline>
		<contour>
			<point x="161" y="96.0998354294" type="curve" smooth="yes"/>
			<point x="233" y="96.0998354294"/>
			<point x="418.6808510638" y="103.0998354294"/>
			<point x="528" y="103.0998354294" type="curve" smooth="yes"/>
			<point x="622" y="103.0998354294"/>
			<point x="658" y="63.0998354294"/>
			<point x="660" y="8.0998354294" type="curve" smooth="yes"/>
			<point x="662" y="-37.9001645706"/>
			<point x="632" y="-70.9001645706"/>
			<point x="541" y="-70.9001645706" type="curve" smooth="yes"/>
			<point x="325" y="-70.9001645706"/>
			<point x="236" y="-79.9001645706"/>
			<point x="188" y="-79.9001645706" type="curve" smooth="yes"/>
			<point x="68" y="-79.9001645706"/>
			<point x="45" y="-26.5196335971"/>
			<point x="45" y="24.0998354294" type="curve" smooth="yes"/>
			<point x="45" y="66.3855497151"/>
			<point x="79" y="96.0998354294"/>
		</contour>
		<contour>
			<point x="121" y="540.0998354294" type="curve" smooth="yes"/>
			<point x="197" y="548.0998354294"/>
			<point x="260" y="577.0998354294"/>
			<point x="302" y="615.0998354294" type="curve" smooth="yes"/>
			<point x="321" y="632.0998354294"/>
			<point x="343" y="645.0998354294"/>
			<point x="375" y="645.0998354294" type="curve" smooth="yes"/>
			<point x="447" y="645.0998354294"/>
			<point x="498.6738295556" y="579.0323685205"/>
			<point x="477" y="508.0998354294" type="curve" smooth="yes"/>
			<point x="429" y="328.0998354294"/>
			<point x="433" y="128.0998354294"/>
			<point x="433" y="92.0998354294" type="curve" smooth="yes"/>
			<point x="433" y="54.0998354294"/>
			<point x="410" y="25.0998354294"/>
			<point x="367" y="25.0998354294" type="curve" smooth="yes"/>
			<point x="300" y="25.0998354294"/>
			<point x="260" y="78.0998354294"/>
			<point x="260" y="144.0998354294" type="curve" smooth="yes"/>
			<point x="260" y="253.0998354294"/>
			<point x="275" y="365.0998354294"/>
			<point x="296" y="466.0998354294" type="curve"/>
			<point x="328" y="438.0998354294" type="line"/>
			<point x="287.9930727825" y="404.2478200915"/>
			<point x="214" y="380.0998354294"/>
			<point x="151" y="380.0998354294" type="curve" smooth="yes"/>
			<point x="81" y="380.0998354294"/>
			<point x="49" y="427.0792168727"/>
			<point x="49" y="473.0998354294" type="curve" smooth="yes"/>
			<point x="49" y="506.0360056422"/>
			<point x="70" y="534.0998354294"/>
		</contour>
	</outline>
</glyph>
<glyph name="one.alt2" format="2">
	<advance width="700"/>
	<outline>
		<contour>
			<point x="161" y="359.352422041" type="curve" smooth="yes"/>
			<point x="233" y="359.352422041"/>
			<point x="418.6808510638" y="366.352422041"/>
			<point x="528" y="366.352422041" type="curve" smooth="yes"/>
			<point x="622" y="366.352422041"/>
			<point x="658" y="326.352422041"/>
			<point x="660" y="271.352422041" type="curve" smooth="yes"/>
			<point x="662" y="225.352422041"/>
			<point x="632" y="192.352422041"/>
			<point x="541" y="192.352422041" type="curve" smooth="yes"/>
			<point x="325" y="192.352422041"/>
			<point x="236" y="183.352422041"/>
			<point x="188" y="183.352422041" type="curve" smooth="yes"/>
			<point x="68" y="183.352422041"/>
			<point x="45" y="236.7329530145"/>
			<point x="45" y="287.352422041" type="curve" smooth="yes"/>
			<point x="45" y="329.6381363267"/>
			<point x="79" y="359.352422041"/>
		</contour>
		<contour>
			<point x="121" y="803.352422041" type="curve" smooth="yes"/>
			<point x="197" y="811.352422041"/>
			<point x="260" y="840.352422041"/>
			<point x="302" y="878.352422041" type="curve" smooth="yes"/>
			<point x="321" y="895.352422041"/>
			<point x="343" y="908.352422041"/>
			<point x="375" y="908.352422041" type="curve" smooth="yes"/>
			<point x="447" y="908.352422041"/>
			<point x="498.6738295556" y="842.2849551321"/>
			<point x="477" y="771.352422041" type="curve" smooth="yes"/>
			<point x="429" y="591.352422041"/>
			<point x="433" y="391.352422041"/>
			<point x="433" y="355.352422041" type="curve" smooth="yes"/>
			<point x="433" y="317.352422041"/>
			<point x="410" y="288.352422041"/>
			<point x="367" y="288.352422041" type="curve" smooth="yes"/>
			<point x="300" y="288.352422041"/>
			<point x="260" y="341.352422041"/>
			<point x="260" y="407.352422041" type="curve" smooth="yes"/>
			<point x="260" y="516.352422041"/>
			<point x="275" y="628.352422041"/>
			<point x="296" y="729.352422041" type="curve"/>
			<point x="328" y="701.352422041" type="line"/>
			<point x="287.9930727825" y="667.5004067031"/>
			<point x="214" y="643.352422041"/>
			<point x="151" y="643.352422041" type="curve" smooth="yes"/>
			<point x="81" y="643.352422041"/>
			<point x="49" y="690.3318034843"/>
			<point x="49" y="736.352422041" type="curve" smooth="yes"/>
			<point x="49" y="769.2885922538"/>
			<point x="70" y="797.352422041"/>
		</contour>
	</outline>
</glyph>
<glyph name="parenleft.alt1" format="2">
	<advance width="519"/>
	<outline>
		<contour>
			<point x="441" y="588.4693013865" type="curve" smooth="yes"/>
			<point x="341" y="470.4693013865"/>
			<point x="245" y="308.4693013865"/>
			<point x="245" y="118.4693013865" type="curve" smooth="yes"/>
			<point x="245" y="-43.5306986135"/>
			<point x="319" y="-151.5306986135"/>
			<point x="439" y="-191.5306986135" type="curve" smooth="yes"/>
			<point x="483" y="-206.5306986135"/>
			<point x="499" y="-219.5306986135"/>
			<point x="499" y="-250.5306986135" type="curve" smooth="yes"/>
			<point x="499" y="-299.5306986135"/>
			<point x="448" y="-330.5306986135"/>
			<point x="402" y="-330.5306986135" type="curve" smooth="yes"/>
			<point x="381" y="-330.5306986135"/>
			<point x="366" y="-328.5306986135"/>
			<point x="321" y="-310.5306986135" type="curve" smooth="yes"/>
			<point x="186" y="-254.5306986135"/>
			<point x="69" y="-126.5306986135"/>
			<point x="69" y="118.4693013865" type="curve" smooth="yes"/>
			<point x="69" y="350.4693013865"/>
			<point x="181" y="552.4693013865"/>
			<point x="310" y="705.4693013865" type="curve" smooth="yes"/>
			<point x="333" y="733.4693013865"/>
			<point x="358" y="743.4693013865"/>
			<point x="383" y="743.4693013865" type="curve" smooth="yes"/>
			<point x="428" y="743.4693013865"/>
			<point x="474" y="697.4693013865"/>
			<point x="474" y="652.4693013865" type="curve" smooth="yes"/>
			<point x="474" y="632.4693013865"/>
			<point x="464" y="615.4693013865"/>
		</contour>
	</outline>
</glyph>
<glyph name="parenleft.alt2" format="2">
	<advance width="519"/>
	<outline>
		<contour>
			<point x="441" y="752.53198219" type="curve" smooth="yes"/>
			<point x="341" y="634.53198219"/>
			<point x="245" y="472.53198219"/>
			<point x="245" y="282.53198219" type="curve" smooth="yes"/>
			<point x="245" y="120.53198219"/>
			<point x="319" y="12.53198219"/>
			<point x="439" y="-27.46801781" type="curve" smooth="yes"/>
			<point x="483" y="-42.46801781"/>
			<point x="499" y="-55.46801781"/>
			<point x="499" y="-86.46801781" type="curve" smooth="yes"/>
			<point x="499" y="-135.46801781"/>
			<point x="448" y="-166.46801781"/>
			<point x="402" y="-166.46801781" type="curve" smooth="yes"/>
			<point x="381" y="-166.46801781"/>
			<point x="366" y="-164.46801781"/>
			<point x="321" y="-146.46801781" type="curve" smooth="yes"/>
			<point x="186" y="-90.46801781"/>
			<point x="69" y="37.53198219"/>
			<point x="69" y="282.53198219" type="curve" smooth="yes"/>
			<point x="69" y="514.53198219"/>
			<point x="181" y="716.53198219"/>
			<point x="310" y="869.53198219" type="curve" smooth="yes"/>
			<point x="333" y="897.53198219"/>
			<point x="358" y="907.53198219"/>
			<point x="383" y="907.53198219" type="curve" smooth="yes"/>
			<point x="428" y="907.53198219"/>
			<point x="474" y="861.53198219"/>
			<point x="474" y="816.53198219" type="curve" smooth="yes"/>
			<point x="474" y="796.53198219"/>
			<point x="464" y="779.53198219"/>
		</contour>
	</outline>
</glyph>
<glyph name="period.alt1" format="2">
	<advance width="320"/>
	<outline>
		<contour>
			<point x="183" y="-87.4083874234" type="curve" smooth="yes"/>
			<point x="247" y="-87.4083874234"/>
			<point x="280" y="-53.4083874234"/>
			<point x="280" y="-14.4083874234" type="curve" smooth="yes"/>
			<point x="280" y="56.5916125766"/>
			<point x="239" y="125.5916125766"/>
			<point x="135" y="125.5916125766" type="curve" smooth="yes"/>
			<point x="83" y="125.5916125766"/>
			<point x="41" y="91.5916125766"/>
			<point x="41" y="29.5916125766" type="curve" smooth="yes"/>
			<point x="41" y="-49.4083874234"/>
			<point x="89" y="-87.4083874234"/>
		</contour>
	</outline>
</glyph>
<glyph name="period.alt2" format="2">
	<advance width="320"/>
	<outline>
		<contour>
			<point x="183" y="140.3377263252" type="curve" smooth="yes"/>
			<point x="247" y="140.3377263252"/>
			<point x="280" y="174.3377263252"/>
			<point x="280" y="213.3377263252" type="curve" smooth="yes"/>
			<point x="280" y="284.3377263252"/>
			<point x="239" y="353.3377263252"/>
			<point x="135" y="353.3377263252" type="curve" smooth="yes"/>
			<point x="83" y="353.3377263252"/>
			<point x="41" y="319.3377263252"/>
			<point x="41" y="257.3377263252" type="curve" smooth="yes"/>
			<point x="41" y="178.3377263252"/>
			<point x="89" y="140.3377263252"/>
		</contour>
	</outline>
</glyph>
<glyph name="question.alt1" format="2">
	<advance width="541"/>
	<outline>
		<contour>
			<point x="56" y="586.7528973156" type="curve" smooth="yes"/>
			<point x="107" y="613.7528973156"/>
			<point x="189" y="628.7528973156"/>
			<point x="251" y="628.7528973156" type="curve" smooth="yes"/>
			<point x="420" y="628.7528973156"/>
			<point x="510" y="559.7528973156"/>
			<point x="510" y="441.7528973156" type="curve" smooth="yes"/>
			<point x="510" y="362.7528973156"/>
			<point x="459" y="316.7528973156"/>
			<point x="396" y="287.7528973156" type="curve" smooth="yes"/>
			<point x="327" y="253.7528973156"/>
			<point x="314" y="244.7528973156"/>
			<point x="314" y="235.7528973156" type="curve" smooth="yes"/>
			<point x="314" y="227.7528973156"/>
			<point x="331" y="213.7528973156"/>
			<point x="331" y="191.7528973156" type="curve" smooth="yes"/>
			<point x="331" y="167.7528973156"/>
			<point x="310" y="139.7528973156"/>
			<point x="268" y="139.7528973156" type="curve" smooth="yes"/>
			<point x="191" y="139.7528973156"/>
			<point x="144" y="195.7528973156"/>
			<point x="144" y="258.7528973156" type="curve" smooth="yes"/>
			<point x="144" y="302.7528973156"/>
			<point x="170" y="340.7528973156"/>
			<point x="257" y="377.7528973156" type="curve" smooth="yes"/>
			<point x="323" y="405.7528973156"/>
			<point x="330" y="417.7528973156"/>
			<point x="330" y="431.7528973156" type="curve" smooth="yes"/>
			<point x="330" y="448.7528973156"/>
			<point x="312" y="458.7528973156"/>
			<point x="262" y="458.7528973156" type="curve" smooth="yes"/>
			<point x="162" y="458.7528973156"/>
			<point x="136" y="424.7528973156"/>
			<point x="90" y="424.7528973156" type="curve" smooth="yes"/>
			<point x="44" y="424.7528973156"/>
			<point x="7" y="451.7528973156"/>
			<point x="7" y="507.7528973156" type="curve" smooth="yes"/>
			<point x="7" y="544.7528973156"/>
			<point x="23" y="569.7528973156"/>
		</contour>
		<contour>
			<point x="256" y="-104.2471026844" type="curve" smooth="yes"/>
			<point x="320" y="-104.2471026844"/>
			<point x="353" y="-73.2471026844"/>
			<point x="353" y="-24.2471026844" type="curve" smooth="yes"/>
			<point x="353" y="25.7528973156"/>
			<point x="315" y="73.7528973156"/>
			<point x="233" y="73.7528973156" type="curve" smooth="yes"/>
			<point x="180" y="73.7528973156"/>
			<point x="144" y="44.7528973156"/>
			<point x="144" y="-15.2471026844" type="curve" smooth="yes"/>
			<point x="144" y="-72.2471026844"/>
			<point x="186" y="-104.2471026844"/>
		</contour>
	</outline>
</glyph>
<glyph name="quotedblright.alt1" format="2">
	<advance width="511"/>
	<outline>
		<contour>
			<point x="168" y="639.4691151536" type="curve" smooth="yes"/>
			<point x="134" y="639.4691151536"/>
			<point x="115" y="625.4691151536"/>
			<point x="99" y="589.4691151536" type="curve" smooth="yes"/>
			<point x="67" y="520.4691151536"/>
			<point x="39" y="427.4691151536"/>
			<point x="39" y="359.4691151536" type="curve" smooth="yes"/>
			<point x="39" y="297.4691151536"/>
			<point x="66" y="241.4691151536"/>
			<point x="110" y="241.4691151536" type="curve" smooth="yes"/>
			<point x="149" y="241.4691151536"/>
			<point x="170" y="270.4691151536"/>
			<point x="190" y="311.4691151536" type="curve" smooth="yes"/>
			<point x="211" y="356.4691151536"/>
			<point x="237" y="397.4691151536"/>
			<point x="263" y="469.4691151536" type="curve" smooth="yes"/>
			<point x="274" y="499.4691151536"/>
			<point x="279" y="520.4691151536"/>
			<point x="279" y="543.4691151536" type="curve" smooth="yes"/>
			<point x="279" y="588.4691151536"/>
			<point x="220" y="639.4691151536"/>
		</contour>
		<contour>
			<point x="408" y="539.4691151536" type="curve" smooth="yes"/>
			<point x="374" y="539.4691151536"/>
			<point x="355" y="525.4691151536"/>
			<point x="339" y="489.4691151536" type="curve" smooth="yes"/>
			<point x="315" y="436.4691151536"/>
			<point x="299" y="362.4691151536"/>
			<point x="299" y="309.4691151536" type="curve" smooth="yes"/>
			<point x="299" y="252.4691151536"/>
			<point x="332" y="201.4691151536"/>
			<point x="387" y="201.4691151536" type="curve" smooth="yes"/>
			<point x="418" y="201.4691151536"/>
			<point x="436" y="225.4691151536"/>
			<point x="450" y="261.4691151536" type="curve" smooth="yes"/>
			<point x="461" y="293.4691151536"/>
			<point x="473" y="330.4691151536"/>
			<point x="499" y="374.4691151536" type="curve" smooth="yes"/>
			<point x="514" y="399.4691151536"/>
			<point x="519" y="420.4691151536"/>
			<point x="519" y="443.4691151536" type="curve" smooth="yes"/>
			<point x="519" y="488.4691151536"/>
			<point x="460" y="539.4691151536"/>
		</contour>
	</outline>
</glyph>
<glyph name="quotedblright.alt2" format="2">
	<advance width="511"/>
	<outline>
		<contour>
			<point x="168" y="892.8987743403" type="curve" smooth="yes"/>
			<point x="134" y="892.8987743403"/>
			<point x="115" y="878.8987743403"/>
			<point x="99" y="842.8987743403" type="curve" smooth="yes"/>
			<point x="67" y="773.8987743403"/>
			<point x="39" y="680.8987743403"/>
			<point x="39" y="612.8987743403" type="curve" smooth="yes"/>
			<point x="39" y="550.8987743403"/>
			<point x="66" y="494.8987743403"/>
			<point x="110" y="494.8987743403" type="curve" smooth="yes"/>
			<point x="149" y="494.8987743403"/>
			<point x="170" y="523.8987743403"/>
			<point x="190" y="564.8987743403" type="curve" smooth="yes"/>
			<point x="211" y="609.8987743403"/>
			<point x="237" y="650.8987743403"/>
			<point x="263" y="722.8987743403" type="curve" smooth="yes"/>
			<point x="274" y="752.8987743403"/>
			<point x="279" y="773.8987743403"/>
			<point x="279" y="796.8987743403" type="curve" smooth="yes"/>
			<point x="279" y="841.8987743403"/>
			<point x="220" y="892.8987743403"/>
		</contour>
		<contour>
			<point x="408" y="792.8987743403" type="curve" smooth="yes"/>
			<point x="374" y="792.8987743403"/>
			<point x="355" y="778.8987743403"/>
			<point x="339" y="742.8987743403" type="curve" smooth="yes"/>
			<point x="315" y="689.8987743403"/>
			<point x="299" y="615.8987743403"/>
			<point x="299" y="562.8987743403" type="curve" smooth="yes"/>
			<point x="299" y="505.8987743403"/>
			<point x="332" y="454.8987743403"/>
			<point x="387" y="454.8987743403" type="curve" smooth="yes"/>
			<point x="418" y="454.8987743403"/>
			<point x="436" y="478.8987743403"/>
			<point x="450" y="514.8987743403" type="curve" smooth="yes"/>
			<point x="461" y="546.8987743403"/>
			<point x="473" y="583.8987743403"/>
			<point x="499" y="627.8987743403" type="curve" smooth="yes"/>
			<point x="514" y="652.8987743403"/>
			<point x="519" y="673.8987743403"/>
			<point x="519" y="696.8987743403" type="curve" smooth="yes"/>
			<point x="519" y="741.8987743403"/>
			<point x="460" y="792.8987743403"/>
		</contour>
	</outline>
</glyph>
<glyph name="quoteright.alt1" format="2">
	<advance width="271"/>
	<outline>
		<contour>
			<point x="178" y="700.8685384022" type="curve" smooth="yes"/>
			<point x="144" y="700.8685384022"/>
			<point x="125" y="686.8685384022"/>
			<point x="109" y="650.8685384022" type="curve" smooth="yes"/>
			<point x="77" y="581.8685384022"/>
			<point x="49" y="488.8685384022"/>
			<point x="49" y="420.8685384022" type="curve" smooth="yes"/>
			<point x="49" y="358.8685384022"/>
			<point x="76" y="302.8685384022"/>
			<point x="120" y="302.8685384022" type="curve" smooth="yes"/>
			<point x="159" y="302.8685384022"/>
			<point x="180" y="331.8685384022"/>
			<point x="200" y="372.8685384022" type="curve" smooth="yes"/>
			<point x="221" y="417.8685384022"/>
			<point x="247" y="458.8685384022"/>
			<point x="273" y="530.8685384022" type="curve" smooth="yes"/>
			<point x="284" y="560.8685384022"/>
			<point x="289" y="581.8685384022"/>
			<point x="289" y="604.8685384022" type="curve" smooth="yes"/>
			<point x="289" y="649.8685384022"/>
			<point x="230" y="700.8685384022"/>
		</contour>
	</outline>
</glyph>
<glyph name="quotesingle.alt1" format="2">
	<advance width="281"/>
	<outline>
		<contour>
			<point x="130" y="265.1686363637" type="curve" smooth="yes"/>
			<point x="168" y="265.1686363637"/>
			<point x="194" y="286.1686363637"/>
			<point x="208" y="325.1686363637" type="curve" smooth="yes"/>
			<point x="237" y="407.1686363637"/>
			<point x="246" y="506.1686363637"/>
			<point x="232" y="572.1686363637" type="curve" smooth="yes"/>
			<point x="223" y="607.1686363637"/>
			<point x="187" y="633.1686363637"/>
			<point x="147" y="633.1686363637" type="curve" smooth="yes"/>
			<point x="97" y="633.1686363637"/>
			<point x="56" y="587.1686363637"/>
			<point x="64" y="539.1686363637" type="curve" smooth="yes"/>
			<point x="73" y="488.1686363637"/>
			<point x="61" y="425.1686363637"/>
			<point x="46" y="379.1686363637" type="curve" smooth="yes"/>
			<point x="32" y="333.1686363637"/>
			<point x="73" y="265.1686363637"/>
		</contour>
	</outline>
</glyph>
<glyph name="second.alt1" format="2">
	<advance width="556"/>
	<outline>
		<contour>
			<point x="361" y="294.9339318029" type="curve" smooth="yes"/>
			<point x="401" y="294.9339318029"/>
			<point x="429" y="315.9339318029"/>
			<point x="451" y="350.9339318029" type="curve" smooth="yes"/>
			<point x="490" y="413.9339318029"/>
			<point x="520" y="496.9339318029"/>
			<point x="520" y="558.9339318029" type="curve" smooth="yes"/>
			<point x="520" y="623.9339318029"/>
			<point x="475" y="660.9339318029"/>
			<point x="407" y="660.9339318029" type="curve" smooth="yes"/>
			<point x="350" y="660.9339318029"/>
			<point x="325" y="621.9339318029"/>
			<point x="325" y="557.9339318029" type="curve" smooth="yes"/>
			<point x="325" y="414.9339318029"/>
			<point x="300" y="397.9339318029"/>
			<point x="300" y="354.9339318029" type="curve" smooth="yes"/>
			<point x="300" y="319.9339318029"/>
			<point x="317" y="294.9339318029"/>
		</contour>
		<contour>
			<point x="97" y="294.9339318029" type="curve" smooth="yes"/>
			<point x="137" y="294.9339318029"/>
			<point x="165" y="315.9339318029"/>
			<point x="187" y="350.9339318029" type="curve" smooth="yes"/>
			<point x="226" y="413.9339318029"/>
			<point x="256" y="496.9339318029"/>
			<point x="256" y="558.9339318029" type="curve" smooth="yes"/>
			<point x="256" y="623.9339318029"/>
			<point x="211" y="660.9339318029"/>
			<point x="143" y="660.9339318029" type="curve" smooth="yes"/>
			<point x="86" y="660.9339318029"/>
			<point x="61" y="621.9339318029"/>
			<point x="61" y="557.9339318029" type="curve" smooth="yes"/>
			<point x="61" y="429.9339318029"/>
			<point x="36" y="399.9339318029"/>
			<point x="36" y="354.9339318029" type="curve" smooth="yes"/>
			<point x="36" y="319.9339318029"/>
			<point x="53" y="294.9339318029"/>
		</contour>
	</outline>
</glyph>
<glyph name="section.alt1" format="2">
	<advance width="603"/>
	<outline>
		<contour>
			<point x="262" y="-313.9490833223" type="curve" smooth="yes"/>
			<point x="459" y="-313.9490833223"/>
			<point x="556" y="-258.9490833223"/>
			<point x="556" y="-136.9490833223" type="curve" smooth="yes"/>
			<point x="556" y="57.0509166777"/>
			<point x="208" y="74.0509166777"/>
			<point x="208" y="156.0509166777" type="curve" smooth="yes"/>
			<point x="208" y="181.0509166777"/>
			<point x="247" y="212.0509166777"/>
			<point x="332" y="220.0509166777" type="curve"/>
			<point x="238" y="305.0509166777" type="line"/>
			<point x="116" y="291.0509166777"/>
			<point x="47" y="237.0509166777"/>
			<point x="47" y="150.0509166777" type="curve" smooth="yes"/>
			<point x="47" y="-47.9490833223"/>
			<point x="342" y="-68.9490833223"/>
			<point x="375" y="-132.9490833223" type="curve"/>
			<point x="330" y="-143.9490833223"/>
			<point x="304" y="-146.9490833223"/>
			<point x="241" y="-146.9490833223" type="curve" smooth="yes"/>
			<point x="166" y="-146.9490833223"/>
			<point x="148" y="-119.9490833223"/>
			<point x="112" y="-119.9490833223" type="curve" smooth="yes"/>
			<point x="70" y="-119.9490833223"/>
			<point x="60" y="-140.9490833223"/>
			<point x="60" y="-175.9490833223" type="curve" smooth="yes"/>
			<point x="60" y="-245.9490833223"/>
			<point x="131" y="-313.9490833223"/>
		</contour>
		<contour>
			<point x="372" y="-11.9490833223" type="line"/>
			<point x="495" y="-11.9490833223"/>
			<point x="566" y="46.0509166777"/>
			<point x="566" y="134.0509166777" type="curve" smooth="yes"/>
			<point x="566" y="314.0509166777"/>
			<point x="236" y="336.0509166777"/>
			<point x="236" y="397.0509166777" type="curve" smooth="yes"/>
			<point x="236" y="427.0509166777"/>
			<point x="341" y="461.0509166777"/>
			<point x="490" y="492.0509166777" type="curve" smooth="yes"/>
			<point x="522" y="498.0509166777"/>
			<point x="544" y="527.0509166777"/>
			<point x="544" y="561.0509166777" type="curve" smooth="yes"/>
			<point x="544" y="610.0509166777"/>
			<point x="520" y="656.0509166777"/>
			<point x="448" y="656.0509166777" type="curve" smooth="yes"/>
			<point x="325" y="656.0509166777"/>
			<point x="57" y="558.0509166777"/>
			<point x="57" y="401.0509166777" type="curve" smooth="yes"/>
			<point x="57" y="203.0509166777"/>
			<point x="372" y="183.0509166777"/>
			<point x="405" y="128.0509166777" type="curve"/>
			<point x="381" y="99.0509166777"/>
			<point x="338" y="84.0509166777"/>
			<point x="256" y="79.0509166777" type="curve"/>
		</contour>
	</outline>
</glyph>
<glyph name="seven.alt1" format="2">
	<advance width="700"/>
	<outline>
		<contour>
			<point x="172" y="290.47594653" type="curve" smooth="yes"/>
			<point x="285.9679144385" y="290.47594653"/>
			<point x="386.5882352941" y="318.47594653"/>
			<point x="556" y="318.47594653" type="curve" smooth="yes"/>
			<point x="635" y="318.47594653"/>
			<point x="682" y="271.47594653"/>
			<point x="682" y="213.47594653" type="curve" smooth="yes"/>
			<point x="682" y="177.47594653"/>
			<point x="657" y="153.47594653"/>
			<point x="611" y="153.47594653" type="curve" smooth="yes"/>
			<point x="387.4245524297" y="153.47594653"/>
			<point x="307.4296675192" y="125.47594653"/>
			<point x="210" y="125.47594653" type="curve" smooth="yes"/>
			<point x="153" y="125.47594653"/>
			<point x="111" y="172.47594653"/>
			<point x="111" y="222.47594653" type="curve" smooth="yes"/>
			<point x="111" y="266.47594653"/>
			<point x="130" y="290.47594653"/>
		</contour>
		<contour>
			<point x="52" y="569.47594653" type="curve" smooth="yes"/>
			<point x="151" y="606.47594653"/>
			<point x="295.1998732257" y="634.47594653"/>
			<point x="376" y="634.47594653" type="curve" smooth="yes"/>
			<point x="553.0196078431" y="634.47594653"/>
			<point x="620" y="559.47594653"/>
			<point x="620" y="449.47594653" type="curve" smooth="yes"/>
			<point x="620" y="289.47594653"/>
			<point x="440" y="159.47594653"/>
			<point x="440" y="-5.52405347" type="curve" smooth="yes"/>
			<point x="440" y="-66.52405347"/>
			<point x="421" y="-84.52405347"/>
			<point x="373" y="-84.52405347" type="curve" smooth="yes"/>
			<point x="315" y="-84.52405347"/>
			<point x="267" y="-55.52405347"/>
			<point x="267" y="7.47594653" type="curve" smooth="yes"/>
			<point x="267" y="164.47594653"/>
			<point x="443" y="360.47594653"/>
			<point x="443" y="430.47594653" type="curve" smooth="yes"/>
			<point x="443" y="459.47594653"/>
			<point x="427" y="470.47594653"/>
			<point x="383" y="470.47594653" type="curve" smooth="yes"/>
			<point x="224" y="470.47594653"/>
			<point x="156.309352518" y="418.47594653"/>
			<point x="109" y="418.47594653" type="curve" smooth="yes"/>
			<point x="67.4772727273" y="418.47594653"/>
			<point x="22" y="471.47594653"/>
			<point x="22" y="517.47594653" type="curve" smooth="yes"/>
			<point x="22" y="539.47594653"/>
			<point x="32" y="562.47594653"/>
		</contour>
	</outline>
</glyph>
<glyph name="six.alt1" format="2">
	<advance width="700"/>
	<outline>
		<contour>
			<point x="465" y="438.1476177195" type="curve" smooth="yes"/>
			<point x="318.5493302526" y="334.3993928512"/>
			<point x="205" y="237.1476177195"/>
			<point x="205" y="133.1476177195" type="curve" smooth="yes"/>
			<point x="205" y="69.3501493651"/>
			<point x="269.9192546584" y="49.1476177195"/>
			<point x="361" y="49.1476177195" type="curve" smooth="yes"/>
			<point x="447.0970149254" y="49.1476177195"/>
			<point x="500" y="81.1476177195"/>
			<point x="500" y="120.1476177195" type="curve" smooth="yes"/>
			<point x="500" y="149.1476177195"/>
			<point x="473.3913043478" y="177.1476177195"/>
			<point x="398" y="177.1476177195" type="curve" smooth="yes"/>
			<point x="313.3971631206" y="177.1476177195"/>
			<point x="291.9787234043" y="156.1476177195"/>
			<point x="247" y="156.1476177195" type="curve" smooth="yes"/>
			<point x="205" y="156.1476177195"/>
			<point x="191" y="176.1476177195"/>
			<point x="191" y="202.1476177195" type="curve" smooth="yes"/>
			<point x="191" y="245.1082476408"/>
			<point x="286" y="326.1476177195"/>
			<point x="443" y="326.1476177195" type="curve" smooth="yes"/>
			<point x="585" y="326.1476177195"/>
			<point x="675" y="233.4592456265"/>
			<point x="675" y="114.1476177195" type="curve" smooth="yes"/>
			<point x="675" y="-23.8523822805"/>
			<point x="552.5339805825" y="-120.8523822805"/>
			<point x="357" y="-120.8523822805" type="curve" smooth="yes"/>
			<point x="130.1495601173" y="-120.8523822805"/>
			<point x="25" y="-19.8523822805"/>
			<point x="25" y="128.1476177195" type="curve" smooth="yes"/>
			<point x="25" y="273.1476177195"/>
			<point x="145.1410615844" y="421.9720496496"/>
			<point x="341" y="565.1476177195" type="curve" smooth="yes"/>
			<point x="379.0628429786" y="592.923205839"/>
			<point x="392.8405797101" y="599.1476177195"/>
			<point x="414" y="599.1476177195" type="curve" smooth="yes"/>
			<point x="464.7446808511" y="599.1476177195"/>
			<point x="504" y="549.6526682246"/>
			<point x="504" y="501.1476177195" type="curve" smooth="yes"/>
			<point x="504" y="478.1476177195"/>
			<point x="500" y="462.1476177195"/>
		</contour>
	</outline>
</glyph>
<glyph name="six.alt2" format="2">
	<advance width="700"/>
	<outline>
		<contour>
			<point x="465" y="720.685254321" type="curve" smooth="yes"/>
			<point x="318.5493302526" y="616.9370294527"/>
			<point x="205" y="519.685254321"/>
			<point x="205" y="415.685254321" type="curve" smooth="yes"/>
			<point x="205" y="351.8877859666"/>
			<point x="269.9192546584" y="331.685254321"/>
			<point x="361" y="331.685254321" type="curve" smooth="yes"/>
			<point x="447.0970149254" y="331.685254321"/>
			<point x="500" y="363.685254321"/>
			<point x="500" y="402.685254321" type="curve" smooth="yes"/>
			<point x="500" y="431.685254321"/>
			<point x="473.3913043478" y="459.685254321"/>
			<point x="398" y="459.685254321" type="curve" smooth="yes"/>
			<point x="313.3971631206" y="459.685254321"/>
			<point x="291.9787234043" y="438.685254321"/>
			<point x="247" y="438.685254321" type="curve" smooth="yes"/>
			<point x="205" y="438.685254321"/>
			<point x="191" y="458.685254321"/>
			<point x="191" y="484.685254321" type="curve" smooth="yes"/>
			<point x="191" y="527.6458842423"/>
			<point x="286" y="608.685254321"/>
			<point x="443" y="608.685254321" type="curve" smooth="yes"/>
			<point x="585" y="608.685254321"/>
			<point x="675" y="515.996882228"/>
			<point x="675" y="396.685254321" type="curve" smooth="yes"/>
			<point x="675" y="258.685254321"/>
			<point x="552.5339805825" y="161.685254321"/>
			<point x="357" y="161.685254321" type="curve" smooth="yes"/>
			<point x="130.1495601173" y="161.685254321"/>
			<point x="25" y="262.685254321"/>
			<point x="25" y="410.685254321" type="curve" smooth="yes"/>
			<point x="25" y="555.685254321"/>
			<point x="145.1410615844" y="704.5096862511"/>
			<point x="341" y="847.685254321" type="curve" smooth="yes"/>
			<point x="379.0628429786" y="875.4608424405"/>
			<point x="392.8405797101" y="881.685254321"/>
			<point x="414" y="881.685254321" type="curve" smooth="yes"/>
			<point x="464.7446808511" y="881.685254321"/>
			<point x="504" y="832.1903048261"/>
			<point x="504" y="783.685254321" type="curve" smooth="yes"/>
			<point x="504" y="760.685254321"/>
			<point x="500" y="744.685254321"/>
		</contour>
	</outline>
</glyph>
<glyph name="slash.alt1" format="2">
	<advance width="455"/>
	<outline>
		<contour>
			<point x="506" y="688.7249113944"/>
			<point x="545" y="598.7249113944"/>
			<point x="487" y="506.7249113944" type="curve" smooth="yes"/>
			<point x="353" y="292.7249113944"/>
			<point x="258" y="55.7249113944"/>
			<point x="225" y="-231.2750886056" type="curve" smooth="yes"/>
			<point x="219" y="-288.2750886056"/>
			<point x="187" y="-319.2750886056"/>
			<point x="137" y="-319.2750886056" type="curve" smooth="yes"/>
			<point x="74" y="-319.2750886056"/>
			<point x="39" y="-268.2750886056"/>
			<point x="46" y="-204.2750886056" type="curve" smooth="yes"/>
			<point x="80" y="88.7249113944"/>
			<point x="205" y="430.7249113944"/>
			<point x="325" y="603.7249113944" type="curve" smooth="yes"/>
			<point x="365" y="661.7249113944"/>
			<point x="392" y="688.7249113944"/>
			<point x="434" y="688.7249113944" type="curve" smooth="yes"/>
		</contour>
	</outline>
</glyph>
<glyph name="slash.alt2" format="2">
	<advance width="455"/>
	<outline>
		<contour>
			<point x="506" y="975.918665233"/>
			<point x="545" y="885.918665233"/>
			<point x="487" y="793.918665233" type="curve" smooth="yes"/>
			<point x="353" y="579.918665233"/>
			<point x="258" y="342.918665233"/>
			<point x="225" y="55.918665233" type="curve" smooth="yes"/>
			<point x="219" y="-1.081334767"/>
			<point x="187" y="-32.081334767"/>
			<point x="137" y="-32.081334767" type="curve" smooth="yes"/>
			<point x="74" y="-32.081334767"/>
			<point x="39" y="18.918665233"/>
			<point x="46" y="82.918665233" type="curve" smooth="yes"/>
			<point x="80" y="375.918665233"/>
			<point x="205" y="717.918665233"/>
			<point x="325" y="890.918665233" type="curve" smooth="yes"/>
			<point x="365" y="948.918665233"/>
			<point x="392" y="975.918665233"/>
			<point x="434" y="975.918665233" type="curve" smooth="yes"/>
		</contour>
	</outline>
</glyph>
<glyph name="three.alt1" format="2">
	<advance width="700"/>
	<outline>
		<contour>
			<point x="372" y="529.6824902936" type="curve" smooth="yes"/>
			<point x="536" y="529.6824902936"/>
			<point x="614" y="458.6824902936"/>
			<point x="614" y="349.6824902936" type="curve" smooth="yes"/>
			<point x="614" y="279.6824902936"/>
			<point x="570.3647598726" y="206.7420429259"/>
			<point x="423" y="182.6824902936" type="curve"/>
			<point x="417" y="221.6824902936" type="line"/>
			<point x="620" y="219.6824902936"/>
			<point x="668" y="143.5759814179"/>
			<point x="668" y="45.6824902936" type="curve" smooth="yes"/>
			<point x="668" y="-123.3175097064"/>
			<point x="488" y="-194.3175097064"/>
			<point x="257" y="-194.3175097064" type="curve"/>
			<point x="92.2" y="-194.3175097064"/>
			<point x="51" y="-140.3175097064"/>
			<point x="51" y="-61.3175097064" type="curve" smooth="yes"/>
			<point x="51" y="-17.3175097064"/>
			<point x="68.2833333333" y="18.6824902936"/>
			<point x="112" y="18.6824902936" type="curve" smooth="yes"/>
			<point x="153" y="18.6824902936"/>
			<point x="156.3609022556" y="-21.3175097064"/>
			<point x="230" y="-21.3175097064" type="curve" smooth="yes"/>
			<point x="389" y="-21.3175097064"/>
			<point x="495" y="4.6824902936"/>
			<point x="495" y="56.6824902936" type="curve" smooth="yes"/>
			<point x="495" y="89.6824902936"/>
			<point x="458" y="99.6824902936"/>
			<point x="291" y="99.6824902936" type="curve" smooth="yes"/>
			<point x="238" y="99.6824902936"/>
			<point x="211" y="145.6824902936"/>
			<point x="211" y="194.6824902936" type="curve" smooth="yes"/>
			<point x="211" y="220.6824902936"/>
			<point x="223" y="238.6824902936"/>
			<point x="253" y="244.6824902936" type="curve" smooth="yes"/>
			<point x="373" y="269.6824902936"/>
			<point x="433" y="298.6824902936"/>
			<point x="433" y="339.6824902936" type="curve" smooth="yes"/>
			<point x="433" y="357.6824902936"/>
			<point x="422" y="364.6824902936"/>
			<point x="383" y="364.6824902936" type="curve" smooth="yes"/>
			<point x="220" y="364.6824902936"/>
			<point x="180.4285714286" y="292.6824902936"/>
			<point x="120" y="292.6824902936" type="curve" smooth="yes"/>
			<point x="92" y="292.6824902936"/>
			<point x="42" y="327.6824902936"/>
			<point x="42" y="373.6824902936" type="curve" smooth="yes"/>
			<point x="42" y="437.4244257775"/>
			<point x="191.7765650081" y="529.6824902936"/>
		</contour>
	</outline>
</glyph>
<glyph name="three.alt2" format="2">
	<advance width="700"/>
	<outline>
		<contour>
			<point x="372" y="825.8958221358" type="curve" smooth="yes"/>
			<point x="536" y="825.8958221358"/>
			<point x="614" y="754.8958221358"/>
			<point x="614" y="645.8958221358" type="curve" smooth="yes"/>
			<point x="614" y="575.8958221358"/>
			<point x="570.3647598726" y="502.9553747681"/>
			<point x="423" y="478.8958221358" type="curve"/>
			<point x="417" y="517.8958221358" type="line"/>
			<point x="620" y="515.8958221358"/>
			<point x="668" y="439.7893132601"/>
			<point x="668" y="341.8958221358" type="curve" smooth="yes"/>
			<point x="668" y="172.8958221358"/>
			<point x="488" y="101.8958221358"/>
			<point x="257" y="101.8958221358" type="curve"/>
			<point x="92.2" y="101.8958221358"/>
			<point x="51" y="155.8958221358"/>
			<point x="51" y="234.8958221358" type="curve" smooth="yes"/>
			<point x="51" y="278.8958221358"/>
			<point x="68.2833333333" y="314.8958221358"/>
			<point x="112" y="314.8958221358" type="curve" smooth="yes"/>
			<point x="153" y="314.8958221358"/>
			<point x="156.3609022556" y="274.8958221358"/>
			<point x="230" y="274.8958221358" type="curve" smooth="yes"/>
			<point x="389" y="274.8958221358"/>
			<point x="495" y="300.8958221358"/>
			<point x="495" y="352.8958221358" type="curve" smooth="yes"/>
			<point x="495" y="385.8958221358"/>
			<point x="458" y="395.8958221358"/>
			<point x="291" y="395.8958221358" type="curve" smooth="yes"/>
			<point x="238" y="395.8958221358"/>
			<point x="211" y="441.8958221358"/>
			<point x="211" y="490.8958221358" type="curve" smooth="yes"/>
			<point x="211" y="516.8958221358"/>
			<point x="223" y="534.8958221358"/>
			<point x="253" y="540.8958221358" type="curve" smooth="yes"/>
			<point x="373" y="565.8958221358"/>
			<point x="433" y="594.8958221358"/>
			<point x="433" y="635.8958221358" type="curve" smooth="yes"/>
			<point x="433" y="653.8958221358"/>
			<point x="422" y="660.8958221358"/>
			<point x="383" y="660.8958221358" type="curve" smooth="yes"/>
			<point x="220" y="660.8958221358"/>
			<point x="180.4285714286" y="588.8958221358"/>
			<point x="120" y="588.8958221358" type="curve" smooth="yes"/>
			<point x="92" y="588.8958221358"/>
			<point x="42" y="623.8958221358"/>
			<point x="42" y="669.8958221358" type="curve" smooth="yes"/>
			<point x="42" y="733.6377576197"/>
			<point x="191.7765650081" y="825.8958221358"/>
		</contour>
	</outline>
</glyph>
<glyph name="trademark.alt2" format="2">
	<advance width="1207"/>
	<outline>
		<contour>
			<point x="155" y="671.8230705035" type="curve" smooth="yes"/>
			<point x="141" y="525.8230705035"/>
			<point x="141" y="469.8230705035"/>
			<point x="164" y="397.8230705035" type="curve" smooth="yes"/>
			<point x="178" y="353.8230705035"/>
			<point x="212" y="325.8230705035"/>
			<point x="252" y="325.8230705035" type="curve" smooth="yes"/>
			<point x="295" y="325.8230705035"/>
			<point x="316" y="343.8230705035"/>
			<point x="316" y="387.8230705035" type="curve" smooth="yes"/>
			<point x="316" y="440.8230705035"/>
			<point x="300" y="451.8230705035"/>
			<point x="312" y="650.8230705035" type="curve" smooth="yes"/>
			<point x="316" y="714.8230705035"/>
			<point x="291" y="743.8230705035"/>
			<point x="218" y="743.8230705035" type="curve" smooth="yes"/>
			<point x="183" y="743.8230705035"/>
			<point x="159" y="719.8230705035"/>
		</contour>
		<contour>
			<point x="119" y="653.8230705035" type="curve" smooth="yes"/>
			<point x="185" y="646.8230705035"/>
			<point x="263" y="643.8230705035"/>
			<point x="346" y="643.8230705035" type="curve" smooth="yes"/>
			<point x="400" y="643.8230705035"/>
			<point x="459" y="671.8230705035"/>
			<point x="459" y="743.8230705035" type="curve" smooth="yes"/>
			<point x="459" y="775.8230705035"/>
			<point x="439" y="796.8230705035"/>
			<point x="397" y="796.8230705035" type="curve" smooth="yes"/>
			<point x="368" y="796.8230705035"/>
			<point x="347" y="789.8230705035"/>
			<point x="309" y="789.8230705035" type="curve" smooth="yes"/>
			<point x="246" y="789.8230705035"/>
			<point x="158" y="797.8230705035"/>
			<point x="80" y="797.8230705035" type="curve" smooth="yes"/>
			<point x="38" y="797.8230705035"/>
			<point x="20" y="771.8230705035"/>
			<point x="20" y="740.8230705035" type="curve" smooth="yes"/>
			<point x="20" y="686.8230705035"/>
			<point x="47" y="660.8230705035"/>
		</contour>
		<contour>
			<point x="979" y="617.8230705035"/>
			<point x="971" y="635.8230705035"/>
			<point x="958" y="654.8230705035" type="curve"/>
			<point x="1015" y="626.8230705035" type="line"/>
			<point x="959.3187087509" y="587.9512256693"/>
			<point x="929.1017873111" y="518.2863782644"/>
			<point x="900" y="385.8230705035" type="curve" smooth="yes"/>
			<point x="890" y="340.8230705035"/>
			<point x="868" y="328.8230705035"/>
			<point x="842" y="328.8230705035" type="curve" smooth="yes"/>
			<point x="817" y="328.8230705035"/>
			<point x="803" y="335.8230705035"/>
			<point x="792" y="347.8230705035" type="curve" smooth="yes"/>
			<point x="766.7439994362" y="375.8852933522"/>
			<point x="753.9857813641" y="432.9492608973"/>
			<point x="746" y="503.8230705035" type="curve" smooth="yes"/>
			<point x="740" y="553.8230705035"/>
			<point x="732" y="581.8230705035"/>
			<point x="705" y="605.8230705035" type="curve"/>
			<point x="741" y="607.8230705035" type="line"/>
			<point x="688" y="568.8230705035"/>
			<point x="652" y="458.8230705035"/>
			<point x="652" y="383.8230705035" type="curve" smooth="yes"/>
			<point x="652" y="342.8230705035"/>
			<point x="631" y="326.8230705035"/>
			<point x="590" y="326.8230705035" type="curve" smooth="yes"/>
			<point x="543" y="326.8230705035"/>
			<point x="504" y="367.8230705035"/>
			<point x="504" y="459.8230705035" type="curve" smooth="yes"/>
			<point x="504" y="533.8230705035"/>
			<point x="522" y="588.8230705035"/>
			<point x="522" y="664.8230705035" type="curve" smooth="yes"/>
			<point x="522" y="688.8230705035"/>
			<point x="516" y="711.8230705035"/>
			<point x="516" y="737.8230705035" type="curve" smooth="yes"/>
			<point x="516" y="769.8230705035"/>
			<point x="536" y="790.8230705035"/>
			<point x="568" y="790.8230705035" type="curve" smooth="yes"/>
			<point x="650" y="790.8230705035"/>
			<point x="675" y="734.8230705035"/>
			<point x="670" y="633.8230705035" type="curve"/>
			<point x="629" y="619.8230705035" type="line"/>
			<point x="660" y="737.8230705035"/>
			<point x="716" y="795.8230705035"/>
			<point x="783" y="795.8230705035" type="curve" smooth="yes"/>
			<point x="836.4578313253" y="795.8230705035"/>
			<point x="860.9976840721" y="766.8385100231"/>
			<point x="870" y="706.8230705035" type="curve" smooth="yes"/>
			<point x="878" y="653.8230705035"/>
			<point x="884" y="600.8230705035"/>
			<point x="905" y="541.8230705035" type="curve"/>
			<point x="814" y="541.8230705035" type="line"/>
			<point x="819" y="567.8230705035"/>
			<point x="842" y="632.8230705035"/>
			<point x="875" y="692.8230705035" type="curve" smooth="yes"/>
			<point x="907.545651477" y="752.8291154142"/>
			<point x="958.6934306569" y="793.8230705035"/>
			<point x="1022" y="793.8230705035" type="curve" smooth="yes"/>
			<point x="1097" y="793.8230705035"/>
			<point x="1139" y="752.8230705035"/>
			<point x="1146" y="648.8230705035" type="curve" smooth="yes"/>
			<point x="1150" y="582.8230705035"/>
			<point x="1160" y="487.8230705035"/>
			<point x="1178" y="431.8230705035" type="curve" smooth="yes"/>
			<point x="1195" y="380.8230705035"/>
			<point x="1192" y="328.8230705035"/>
			<point x="1122" y="328.8230705035" type="curve" smooth="yes"/>
			<point x="1080" y="328.8230705035"/>
			<point x="1042" y="345.8230705035"/>
			<point x="1019" y="385.8230705035" type="curve" smooth="yes"/>
			<point x="989" y="437.8230705035"/>
			<point x="983" y="497.8230705035"/>
			<point x="981" y="561.8230705035" type="curve" smooth="yes"/>
		</contour>
	</outline>
</glyph>
<glyph name="u.alt1" format="2">
	<advance width="639"/>
	<outline>
		<contour>
			<point x="333" y="-178.9816495737" type="curve" smooth="yes"/>
			<point x="474" y="-178.9816495737"/>
			<point x="585" y="-50.9365367917"/>
			<point x="585" y="214.0183504263" type="curve" smooth="yes"/>
			<point x="585" y="304.0183504263"/>
			<point x="547" y="348.0183504263"/>
			<point x="482" y="348.0183504263" type="curve" smooth="yes"/>
			<point x="428" y="348.0183504263"/>
			<point x="413" y="319.0183504263"/>
			<point x="413" y="270.0183504263" type="curve" smooth="yes"/>
			<point x="413" y="238.0183504263"/>
			<point x="417" y="213.0183504263"/>
			<point x="417" y="173.0183504263" type="curve" smooth="yes"/>
			<point x="417" y="86.9363832132"/>
			<point x="384" y="-3.9816495737"/>
			<point x="321" y="-3.9816495737" type="curve" smooth="yes"/>
			<point x="271" y="-3.9816495737"/>
			<point x="208" y="75.8664516921"/>
			<point x="208" y="148.0183504263" type="curve" smooth="yes"/>
			<point x="208" y="181.0183504263"/>
			<point x="230" y="217.0183504263"/>
			<point x="230" y="242.0183504263" type="curve" smooth="yes"/>
			<point x="230" y="298.8922243002"/>
			<point x="177" y="349.0183504263"/>
			<point x="121" y="349.0183504263" type="curve" smooth="yes"/>
			<point x="95" y="349.0183504263"/>
			<point x="75" y="332.0183504263"/>
			<point x="67" y="310.0183504263" type="curve" smooth="yes"/>
			<point x="45.4562248666" y="256.1589125927"/>
			<point x="35" y="206.5725672938"/>
			<point x="35" y="148.0183504263" type="curve" smooth="yes"/>
			<point x="35" y="11.5228549308"/>
			<point x="152" y="-178.9816495737"/>
		</contour>
	</outline>
</glyph>
<glyph name="underscore.alt2" format="2">
	<advance width="700"/>
	<outline>
		<contour>
			<point x="206" y="-94.505719033" type="curve" smooth="yes"/>
			<point x="262.7638888889" y="-94.505719033"/>
			<point x="355.0172413793" y="-84.505719033"/>
			<point x="608" y="-84.505719033" type="curve" smooth="yes"/>
			<point x="639" y="-84.505719033"/>
			<point x="657" y="-63.505719033"/>
			<point x="657" y="-30.505719033" type="curve" smooth="yes"/>
			<point x="657" y="9.741987389"/>
			<point x="614" y="76.494280967"/>
			<point x="495" y="76.494280967" type="curve" smooth="yes"/>
			<point x="355" y="76.494280967"/>
			<point x="220.8176325226" y="71.4702185915"/>
			<point x="77" y="52.494280967" type="curve" smooth="yes"/>
			<point x="46.2890288795" y="48.2582849504"/>
			<point x="41" y="28.994280967"/>
			<point x="41" y="5.494280967" type="curve" smooth="yes"/>
			<point x="41" y="-43.0494083534"/>
			<point x="99.7116564417" y="-94.505719033"/>
		</contour>
	</outline>
</glyph>
<glyph name="uni2010.alt1" format="2">
	<advance width="531"/>
	<outline>
		<contour>
			<point x="206" y="-75.3929887004" type="curve" smooth="yes"/>
			<point x="238.7592592593" y="-75.3929887004"/>
			<point x="291.9259259259" y="-65.3929887004"/>
			<point x="438" y="-65.3929887004" type="curve" smooth="yes"/>
			<point x="469" y="-65.3929887004"/>
			<point x="487" y="-44.3929887004"/>
			<point x="487" y="-11.3929887004" type="curve" smooth="yes"/>
			<point x="487" y="29.6070112996"/>
			<point x="444" y="97.6070112996"/>
			<point x="325" y="97.6070112996" type="curve" smooth="yes"/>
			<point x="241.9642857143" y="97.6070112996"/>
			<point x="160.9762270093" y="97.4458503794"/>
			<point x="77" y="71.6070112996" type="curve" smooth="yes"/>
			<point x="49" y="63.6070112996"/>
			<point x="43" y="49.6070112996"/>
			<point x="43" y="27.6070112996" type="curve" smooth="yes"/>
			<point x="43" y="-22.3929887004"/>
			<point x="101" y="-75.3929887004"/>
		</contour>
	</outline>
</glyph>
